<?xml version="1.0" encoding="UTF-8" standalone="no"?>
<!-- Created with Inkscape (http://www.inkscape.org/) -->

<svg
   width="468"
   height="60"
   viewBox="0 0 123.825 15.875"
   version="1.1"
   id="svg9296"
   inkscape:version="1.2.1 (9c6d41e410, 2022-07-14)"
   sodipodi:docname="adblock-light.svg"
   xmlns:inkscape="http://www.inkscape.org/namespaces/inkscape"
   xmlns:sodipodi="http://sodipodi.sourceforge.net/DTD/sodipodi-0.dtd"
   xmlns:xlink="http://www.w3.org/1999/xlink"
   xmlns="http://www.w3.org/2000/svg"
   xmlns:svg="http://www.w3.org/2000/svg">
  <sodipodi:namedview
     id="namedview9298"
     pagecolor="#ffffff"
     bordercolor="#000000"
     borderopacity="0.25"
     inkscape:showpageshadow="2"
     inkscape:pageopacity="0.0"
     inkscape:pagecheckerboard="0"
     inkscape:deskcolor="#d1d1d1"
     inkscape:document-units="mm"
     showgrid="false"
     inkscape:zoom="2.0510461"
     inkscape:cx="250.8476"
     inkscape:cy="-25.109138"
     inkscape:window-width="1920"
     inkscape:window-height="1001"
     inkscape:window-x="-9"
     inkscape:window-y="-9"
     inkscape:window-maximized="1"
     inkscape:current-layer="layer1" />
  <defs
     id="defs9293">
    <linearGradient
       inkscape:collect="always"
       xlink:href="#linearGradient10932"
       id="linearGradient10934"
       x1="13.243918"
       y1="49.804054"
       x2="31.634459"
       y2="49.804054"
       gradientUnits="userSpaceOnUse"
       gradientTransform="matrix(0.6528533,0,0,0.6528533,-6.909547,-24.516792)" />
    <linearGradient
       inkscape:collect="always"
       id="linearGradient10932">
      <stop
         style="stop-color:#697be2;stop-opacity:1;"
         offset="0"
         id="stop10928" />
      <stop
         style="stop-color:#9354f2;stop-opacity:1;"
         offset="1"
         id="stop10930" />
    </linearGradient>
  </defs>
  <g
     inkscape:label="Layer 1"
     inkscape:groupmode="layer"
     id="layer1">
    <path
       d="M 5.6263375,1.9947888 A 0.90047442,0.90047442 0 0 0 4.9895032,2.2584168 L 2.0009278,5.2479918 A 0.90047442,0.90047442 0 0 0 1.7367886,5.8843254 v 4.2272316 c 0,0.239121 0.095049,0.468246 0.2641392,0.637335 l 2.9885754,2.988573 a 0.90047442,0.90047442 0 0 0 0.6368343,0.263649 h 4.2272284 a 0.90047442,0.90047442 0 0 0 0.6368351,-0.263649 l 2.989075,-2.988573 a 0.90047442,0.90047442 0 0 0 0.263638,-0.637335 V 5.8843254 A 0.90047442,0.90047442 0 0 0 13.479476,5.2479918 L 10.490401,2.2584168 A 0.90047442,0.90047442 0 0 0 9.8535659,1.9947888 Z m 2.2146678,1.50079 c 0.5102689,0 0.4792534,0.554295 0.4792534,0.554295 v 3.3937855 c 0,0 -0.00456,0.1090918 0.080036,0.1090918 0.094046,0 0.087541,-0.1130676 0.087541,-0.1130676 L 8.4868363,4.6232091 c 0,0 -0.025018,-0.4932607 0.4797518,-0.4932607 0.5052658,0 0.4852558,0.4917672 0.4852558,0.4917672 V 8.434227 c 0,0 0.007,0.079038 0.07055,0.079038 0.06353,0 0.472251,-1.0615718 0.472251,-1.0615718 0,0 0.2256181,-0.7488885 1.2886781,-0.550284 0.01901,0.00389 -0.08353,0.3441911 -0.08353,0.3441911 l -1.142099,3.2797127 c 0,0 -0.4717511,1.824959 -2.4607978,1.824959 -2.5233293,0 -2.4052678,-2.7049187 -2.4082692,-2.7039137 V 5.7778232 c 0,0 -0.00794,-0.4952616 0.4487361,-0.4952616 0.4292271,0 0.4247239,0.4952616 0.4247239,0.4952616 l 0.00359,1.7924413 c 0,0 -0.00208,0.086036 0.083534,0.086036 0.080036,0 0.070545,-0.086036 0.070545,-0.086036 l 0.00489,-2.9645597 c 0,0 -0.02751,-0.581314 0.4832557,-0.581314 0.5202752,0 0.4917584,0.5713118 0.4917584,0.5713118 v 2.8069677 c 0,0 -0.00248,0.1021001 0.076046,0.1021001 0.084044,0 0.077048,-0.1030465 0.077048,-0.1030465 l 0.00489,-3.3482725 c 0,0 -0.028021,-0.5577931 0.4832556,-0.5577931 z"
       id="path10556"
       style="fill:url(#linearGradient10934);fill-opacity:1;stroke-width:0.500264" />
    <g
       aria-label="Adblocking "
       id="text14043"
       style="font-size:17.6389px;font-family:'Google Sans';-inkscape-font-specification:'Google Sans';letter-spacing:-0.0185208px;fill:#000000;stroke:#000000;stroke-width:0;stroke-linecap:square"
       transform="matrix(0.45689422,0,0,0.45689422,-7.3438296,-16.505213)">
      <path
         d="m 57.957362,40.142627 1.69327,-0.01478 4.907807,12.587106 -1.640355,0.01431 -1.300276,-3.463648 -5.450213,0.04756 -1.239629,3.485813 -1.640356,0.01432 z m 3.136624,7.7164 -1.715344,-4.53604 -0.523361,-1.35368 -0.07055,6.15e-4 -0.482018,1.362454 -1.63592,4.565286 z"
         style="word-spacing:-0.0105833px;fill:#000000"
         id="path31704" />
      <path
         d="m 69.463908,53.054888 q -1.199399,0.01047 -2.192527,-0.598251 -0.97549,-0.608873 -1.549303,-1.679879 -0.573967,-1.088645 -0.585972,-2.464427 -0.01185,-1.358143 0.543028,-2.456639 0.55488,-1.098496 1.519595,-1.7243 0.982354,-0.625957 2.181753,-0.636424 1.040656,-0.0091 1.85617,0.46007 0.815361,0.451514 1.244681,1.135711 l 0.07055,-6.16e-4 -0.08148,-1.251699 -0.03248,-3.721666 1.49925,-0.01308 0.110208,12.628972 -1.428697,0.01247 -0.01154,-1.322867 -0.07055,6.16e-4 q -0.417468,0.673947 -1.224671,1.157259 -0.807356,0.465675 -1.848012,0.474756 z m 0.16453,-1.359683 q 0.793721,-0.0069 1.460279,-0.436093 0.684197,-0.42932 1.083104,-1.208943 0.416545,-0.779776 0.407617,-1.802793 -0.0089,-1.023017 -0.439017,-1.795405 -0.412452,-0.772542 -1.104037,-1.189857 -0.673947,-0.417468 -1.467667,-0.410542 -0.776083,0.0068 -1.460279,0.436093 -0.684197,0.429321 -1.100588,1.226735 -0.398907,0.779623 -0.390133,1.785002 0.0088,1.005379 0.421379,1.795559 0.43009,0.772388 1.121675,1.189702 0.691585,0.417315 1.467667,0.410542 z"
         style="word-spacing:-0.0105833px;fill:#000000"
         id="path31706" />
      <path
         d="m 80.822437,53.048269 q -1.023017,0.0089 -1.856016,-0.442432 -0.815514,-0.469151 -1.227042,-1.135864 l -0.07055,6.16e-4 0.01154,1.322867 -1.428697,0.01247 -0.110208,-12.628972 1.499249,-0.01308 0.03248,3.721667 -0.05962,1.25293 0.07055,-6.16e-4 q 0.399677,-0.691431 1.207033,-1.157106 0.824841,-0.483466 1.847858,-0.492394 1.1994,-0.01047 2.192528,0.598252 0.993128,0.608718 1.567095,1.697363 0.573966,1.088645 0.585818,2.446788 0.01201,1.375782 -0.542874,2.474278 -0.555034,1.080857 -1.537388,1.706815 -0.982353,0.625958 -2.181753,0.636424 z m -0.188234,-1.356604 q 0.776082,-0.0068 1.460279,-0.436093 0.684197,-0.42932 1.083103,-1.208943 0.416391,-0.797414 0.407618,-1.802793 -0.0088,-1.005379 -0.438864,-1.777767 -0.412606,-0.79018 -1.104191,-1.207495 -0.691585,-0.417314 -1.467667,-0.410542 -0.776082,0.0068 -1.460279,0.436093 -0.684197,0.429321 -1.083103,1.208943 -0.398907,0.779622 -0.389979,1.80264 0.0089,1.023017 0.421379,1.795559 0.412452,0.772542 1.104037,1.189856 0.691585,0.417315 1.467667,0.410542 z"
         style="word-spacing:-0.0105833px;fill:#000000"
         id="path31708" />
      <path
         d="m 86.65337,40.176952 1.49925,-0.01308 0.110208,12.628972 -1.499249,0.01308 z"
         style="word-spacing:-0.0105833px;fill:#000000"
         id="path31710" />
      <path
         d="m 94.526138,53.051964 q -1.322867,0.01154 -2.386702,-0.614197 -1.063835,-0.625741 -1.673078,-1.714078 -0.591605,-1.088491 -0.603149,-2.411358 -0.01154,-1.322867 0.560974,-2.421517 0.590157,-1.098803 1.642909,-1.743015 1.052753,-0.644211 2.37562,-0.655756 1.322867,-0.01154 2.386702,0.614197 1.063835,0.625741 1.65544,1.714232 0.609243,1.088337 0.620787,2.411204 0.01154,1.322867 -0.578613,2.421671 -0.572518,1.098649 -1.62527,1.742861 -1.052753,0.644211 -2.37562,0.655756 z m -0.01185,-1.358144 q 0.828997,-0.0072 1.530985,-0.419071 0.719474,-0.429628 1.136019,-1.209404 0.434183,-0.77993 0.425101,-1.820586 -0.0091,-1.040655 -0.456809,-1.812889 -0.43009,-0.772388 -1.156798,-1.171757 -0.709223,-0.41716 -1.53822,-0.409926 -0.828997,0.0072 -1.54847,0.436863 -0.719627,0.41199 -1.153811,1.19192 -0.416544,0.779776 -0.407463,1.820432 0.0091,1.040655 0.439172,1.813043 0.447728,0.772234 1.174589,1.189241 0.726708,0.399368 1.555705,0.392134 z"
         style="word-spacing:-0.0105833px;fill:#000000"
         id="path31712" />
      <path
         d="m 104.94986,53.052579 q -1.30523,0.01139 -2.35127,-0.596866 -1.0462,-0.625895 -1.63765,-1.696747 -0.5916,-1.088491 -0.60345,-2.446635 -0.0119,-1.358143 0.56066,-2.456793 0.57252,-1.09865 1.60779,-1.725069 1.03527,-0.62642 2.3405,-0.63781 1.46397,-0.01278 2.45771,0.666496 1.01123,0.661479 1.4444,1.786631 l -1.35322,0.576276 q -0.34236,-0.826072 -1.01631,-1.243541 -0.65646,-0.43526 -1.59128,-0.427103 -0.79372,0.0069 -1.47777,0.453886 -0.68419,0.42932 -1.10074,1.209096 -0.39891,0.779623 -0.39013,1.785002 0.009,1.005379 0.42122,1.777921 0.43009,0.772388 1.12183,1.20734 0.69159,0.417315 1.48531,0.410388 0.95246,-0.0083 1.63651,-0.45527 0.68404,-0.446959 1.01208,-1.261242 l 1.34543,0.552725 q -0.44889,1.115211 -1.46591,1.812029 -0.99937,0.696665 -2.44571,0.709286 z"
         style="word-spacing:-0.0105833px;fill:#000000"
         id="path31714" />
      <path
         d="m 110.37507,40.176952 1.49925,-0.01308 0.0693,7.937203 4.19562,-4.340669 1.90493,-0.01662 6.2e-4,0.07055 -3.49656,3.593707 3.66202,5.259915 6.1e-4,0.07055 -1.78146,0.01555 -2.93038,-4.296123 -1.53862,1.565709 0.0242,2.769202 -1.49925,0.01308 z"
         style="word-spacing:-0.0105833px;fill:#000000"
         id="path31716" />
      <path
         d="m 120.16333,42.144737 q -0.44096,0.0038 -0.76121,-0.310869 -0.32026,-0.314718 -0.32411,-0.755673 -0.004,-0.440956 0.31102,-0.743577 0.31472,-0.320258 0.75568,-0.324107 0.44095,-0.0038 0.76121,0.31087 0.32011,0.297079 0.32395,0.738035 0.004,0.440956 -0.31087,0.761214 -0.29708,0.320105 -0.75567,0.324107 z m -0.72634,1.664459 1.48161,-0.01293 0.0785,8.995497 -1.48162,0.01293 z"
         style="word-spacing:-0.0105833px;fill:#000000"
         id="path31718" />
      <path
         d="m 123.26375,43.810427 1.4287,-0.01247 0.0115,1.322867 0.0706,-6.15e-4 q 0.36455,-0.673485 1.17191,-1.13916 0.8072,-0.483312 1.72439,-0.491316 1.62271,-0.01416 2.47766,0.930915 0.87243,0.927284 0.88659,2.550001 l 0.0503,5.767701 -1.49925,0.01308 -0.0483,-5.538404 q -0.0109,-1.252314 -0.61555,-1.811504 -0.60462,-0.55919 -1.64528,-0.550109 -0.72317,0.0063 -1.30169,0.41707 -0.56088,0.410605 -0.87252,1.083628 -0.31179,0.655385 -0.30548,1.378553 l 0.0442,5.062171 -1.49925,0.01308 z"
         style="word-spacing:-0.0105833px;fill:#000000"
         id="path31720" />
      <path
         d="m 137.11767,56.863514 q -1.58744,0.01385 -2.63456,-0.717871 -1.02948,-0.731878 -1.39133,-1.769455 l 1.35306,-0.593914 q 0.30663,0.773466 0.99867,1.243695 0.70984,0.487713 1.66231,0.479402 1.39342,-0.01216 2.14478,-0.830137 0.769,-0.818132 0.75607,-2.299743 l -0.009,-1.005379 -0.0705,6.16e-4 q -0.43496,0.691739 -1.24247,1.139775 -0.79002,0.430244 -1.81304,0.439171 -1.16412,0.01016 -2.13946,-0.581075 -0.9577,-0.591388 -1.53151,-1.662394 -0.57381,-1.071007 -0.58582,-2.446788 -0.0119,-1.358144 0.54318,-2.439002 0.55488,-1.098495 1.50211,-1.706507 0.96487,-0.608165 2.129,-0.618324 1.02301,-0.0089 1.82058,0.425101 0.81505,0.416237 1.26217,1.117919 l 0.0706,-6.16e-4 -0.0112,-1.287591 1.4287,-0.01247 0.0754,8.642733 q 0.0189,2.169502 -1.17061,3.308815 -1.1894,1.156952 -3.14724,1.174037 z m -0.046,-5.27383 q 0.81135,-0.0071 1.46043,-0.418455 0.66671,-0.411528 1.04813,-1.173359 0.39906,-0.761984 0.38998,-1.802639 -0.009,-1.058294 -0.42153,-1.813198 -0.39466,-0.755057 -1.0683,-1.137249 -0.65615,-0.399984 -1.46751,-0.392904 -0.81136,0.0071 -1.47807,0.418609 -0.66672,0.411528 -1.06578,1.173512 -0.38142,0.761831 -0.37234,1.802486 0.009,1.040656 0.4039,1.813351 0.4123,0.754904 1.08609,1.154734 0.67364,0.382192 1.485,0.375112 z"
         style="word-spacing:-0.0105833px;fill:#000000"
         id="path31722" />
    </g>
    <g
       aria-label="Browing Youtube without annoying ads"
       id="text15594"
       style="font-size:10.5833px;font-family:'Google Sans';-inkscape-font-specification:'Google Sans';fill:#000000;stroke:#000000;stroke-width:0;stroke-linecap:square"
       transform="matrix(0.45689422,0,0,0.45689422,-7.3438296,-16.505213)">
      <path
         d="m 53.752075,59.192621 h 2.719908 q 0.571498,0 1.068913,0.264583 0.507998,0.264582 0.804331,0.730247 0.296332,0.465665 0.296332,1.047747 0,0.550332 -0.285749,0.96308 -0.275166,0.412749 -0.751414,0.634998 v 0.04233 q 0.571498,0.1905 0.93133,0.656165 0.359832,0.465665 0.359832,1.09008 0,0.613831 -0.317499,1.111246 -0.306915,0.486832 -0.83608,0.761998 -0.518582,0.275166 -1.12183,0.275166 h -2.868074 z m 2.719908,3.280823 q 0.380999,0 0.666748,-0.179916 0.296332,-0.179916 0.455082,-0.455082 0.158749,-0.285749 0.158749,-0.582081 0,-0.28575 -0.158749,-0.560915 -0.148167,-0.285749 -0.433916,-0.465666 -0.275166,-0.179916 -0.645581,-0.179916 h -1.873244 v 2.423576 z m 0.201082,3.439572 q 0.380999,0 0.677332,-0.190499 0.306915,-0.190499 0.465665,-0.486832 0.169333,-0.306915 0.169333,-0.624414 0,-0.317499 -0.169333,-0.613832 -0.169333,-0.306916 -0.476249,-0.486832 -0.306915,-0.190499 -0.709081,-0.190499 h -1.98966 v 2.592908 z"
         id="path31639"
         style="fill:#000000" />
      <path
         d="m 59.985648,61.372781 h 0.857247 v 0.86783 h 0.04233 q 0.15875,-0.444498 0.613832,-0.730247 0.455082,-0.296333 0.952497,-0.296333 0.370415,0 0.634998,0.105833 v 0.973664 q -0.338666,-0.169333 -0.761998,-0.169333 -0.391582,0 -0.719664,0.222249 -0.328082,0.22225 -0.529165,0.603249 -0.1905,0.370415 -0.1905,0.80433 v 3.016241 h -0.89958 z"
         id="path31641"
         style="fill:#000000" />
      <path
         d="m 66.123954,66.939596 q -0.793747,0 -1.428745,-0.380998 -0.634998,-0.380999 -0.99483,-1.037164 -0.349249,-0.656164 -0.349249,-1.449912 0,-0.793747 0.349249,-1.449912 0.359832,-0.656164 0.99483,-1.037163 0.634998,-0.380999 1.428745,-0.380999 0.793748,0 1.428746,0.380999 0.634998,0.380999 0.984247,1.037163 0.359832,0.656165 0.359832,1.449912 0,0.793748 -0.359832,1.449912 -0.349249,0.656165 -0.984247,1.037164 -0.634998,0.380998 -1.428746,0.380998 z m 0,-0.814914 q 0.497415,0 0.920747,-0.243415 0.433916,-0.254 0.687915,-0.719665 0.264582,-0.465665 0.264582,-1.09008 0,-0.624414 -0.264582,-1.09008 -0.253999,-0.465665 -0.687915,-0.709081 -0.423332,-0.253999 -0.920747,-0.253999 -0.497415,0 -0.93133,0.253999 -0.433915,0.243416 -0.698498,0.709081 -0.253999,0.465666 -0.253999,1.09008 0,0.624415 0.253999,1.09008 0.264583,0.465665 0.698498,0.719665 0.433915,0.243415 0.93133,0.243415 z"
         id="path31643"
         style="fill:#000000" />
      <path
         d="m 69.246032,61.372781 h 0.920748 l 1.291162,4.26507 h 0.01058 l 1.354663,-4.26507 h 0.93133 l 1.365246,4.254486 h 0.01058 l 1.280579,-4.254486 h 0.910164 l -1.746244,5.397483 h -0.910164 l -1.396996,-4.307403 -1.386412,4.307403 h -0.89958 z"
         id="path31645"
         style="fill:#000000" />
      <path
         d="m 78.591091,60.377951 q -0.264583,0 -0.455082,-0.1905 -0.1905,-0.190499 -0.1905,-0.455082 0,-0.264582 0.1905,-0.444498 0.190499,-0.1905 0.455082,-0.1905 0.264582,0 0.455082,0.1905 0.190499,0.179916 0.190499,0.444498 0,0.264583 -0.190499,0.455082 -0.179917,0.1905 -0.455082,0.1905 z m -0.444499,0.99483 h 0.888997 v 5.397483 h -0.888997 z"
         id="path31647"
         style="fill:#000000" />
      <path
         d="m 80.45375,61.372781 h 0.857248 v 0.793747 h 0.04233 q 0.222249,-0.402165 0.709081,-0.677331 0.486832,-0.285749 1.037163,-0.285749 0.973664,0 1.481662,0.571498 0.518582,0.560915 0.518582,1.534579 v 3.460739 h -0.89958 v -3.323156 q 0,-0.751415 -0.359833,-1.09008 -0.359832,-0.338666 -0.984247,-0.338666 -0.433915,0 -0.783164,0.243416 -0.338665,0.243416 -0.529165,0.645581 -0.190499,0.391582 -0.190499,0.825498 v 3.037407 H 80.45375 Z"
         id="path31649"
         style="fill:#000000" />
      <path
         d="m 88.70874,69.225589 q -0.952497,0 -1.576911,-0.444498 -0.613832,-0.444499 -0.825498,-1.068914 l 0.814914,-0.349249 q 0.179916,0.465666 0.592665,0.751415 0.423332,0.296332 0.99483,0.296332 0.836081,0 1.291163,-0.486832 0.465665,-0.486831 0.465665,-1.375829 v -0.603248 h -0.04233 q -0.264583,0.412749 -0.751414,0.677331 -0.476249,0.254 -1.09008,0.254 -0.698498,0 -1.28058,-0.359833 -0.571498,-0.359832 -0.910163,-1.005413 -0.338666,-0.645581 -0.338666,-1.471079 0,-0.814914 0.338666,-1.460495 0.338665,-0.656165 0.910163,-1.015997 0.582082,-0.359832 1.28058,-0.359832 0.613831,0 1.09008,0.264583 0.486831,0.253999 0.751414,0.677331 h 0.04233 v -0.772581 h 0.857247 v 5.185817 q 0,1.301746 -0.719664,1.979077 -0.719664,0.687914 -1.894411,0.687914 z m 0,-3.164406 q 0.486832,0 0.878414,-0.243416 0.402166,-0.243416 0.634998,-0.698498 0.243416,-0.455082 0.243416,-1.079497 0,-0.634998 -0.243416,-1.090079 -0.232832,-0.455082 -0.634998,-0.687915 -0.391582,-0.243416 -0.878414,-0.243416 -0.486831,0 -0.888997,0.243416 -0.402165,0.243416 -0.645581,0.698498 -0.232833,0.455082 -0.232833,1.079496 0,0.624415 0.232833,1.09008 0.243416,0.455082 0.645581,0.698498 0.402166,0.232833 0.888997,0.232833 z"
         id="path31651"
         style="fill:#000000" />
      <path
         d="m 96.741461,63.267191 -2.561158,-4.07457 h 1.047746 l 1.936744,3.17499 h 0.04233 l 1.904994,-3.17499 h 1.047753 l -2.518831,4.07457 v 3.503073 h -0.899581 z"
         id="path31653"
         style="fill:#000000" />
      <path
         d="m 102.4141,66.939596 q -0.79375,0 -1.42875,-0.380998 -0.63499,-0.380999 -0.994826,-1.037164 -0.349248,-0.656164 -0.349248,-1.449912 0,-0.793747 0.349248,-1.449912 0.359836,-0.656164 0.994826,-1.037163 0.635,-0.380999 1.42875,-0.380999 0.79375,0 1.42875,0.380999 0.63499,0.380999 0.98424,1.037163 0.35983,0.656165 0.35983,1.449912 0,0.793748 -0.35983,1.449912 -0.34925,0.656165 -0.98424,1.037164 -0.635,0.380998 -1.42875,0.380998 z m 0,-0.814914 q 0.49742,0 0.92075,-0.243415 0.43391,-0.254 0.68791,-0.719665 0.26458,-0.465665 0.26458,-1.09008 0,-0.624414 -0.26458,-1.09008 -0.254,-0.465665 -0.68791,-0.709081 -0.42333,-0.253999 -0.92075,-0.253999 -0.49741,0 -0.93133,0.253999 -0.43392,0.243416 -0.6985,0.709081 -0.254,0.465666 -0.254,1.09008 0,0.624415 0.254,1.09008 0.26458,0.465665 0.6985,0.719665 0.43392,0.243415 0.93133,0.243415 z"
         id="path31655"
         style="fill:#000000" />
      <path
         d="m 108.13968,66.939596 q -0.97366,0 -1.49224,-0.571498 -0.508,-0.571498 -0.508,-1.598078 v -3.397239 h 0.89958 v 3.259656 q 0,0.772581 0.34925,1.132413 0.34925,0.359832 0.94191,0.359832 0.45508,0 0.80433,-0.243415 0.35983,-0.243416 0.55033,-0.634998 0.20109,-0.391583 0.20109,-0.825498 v -3.04799 h 0.89958 v 5.397483 h -0.85725 v -0.783165 h -0.0423 q -0.22225,0.402166 -0.70909,0.677332 -0.48683,0.275165 -1.03716,0.275165 z"
         id="path31657"
         style="fill:#000000" />
      <path
         d="m 114.24624,66.85493 q -0.32808,0 -0.61383,-0.105833 -0.27516,-0.105833 -0.46566,-0.285749 -0.21167,-0.201083 -0.3175,-0.465665 -0.10584,-0.264583 -0.10584,-0.645581 v -3.164407 h -0.94191 v -0.814914 h 0.94191 v -1.523995 h 0.89959 v 1.523995 h 1.31232 v 0.814914 H 113.643 v 2.942157 q 0,0.444499 0.16933,0.656165 0.20108,0.232832 0.58208,0.232832 0.30692,0 0.59266,-0.179916 v 0.878414 q -0.15874,0.07408 -0.32808,0.105833 -0.15875,0.03175 -0.41275,0.03175 z"
         id="path31659"
         style="fill:#000000" />
      <path
         d="m 118.00331,66.939596 q -0.97367,0 -1.49225,-0.571498 -0.508,-0.571498 -0.508,-1.598078 v -3.397239 h 0.89958 v 3.259656 q 0,0.772581 0.34925,1.132413 0.34925,0.359832 0.94191,0.359832 0.45509,0 0.80434,-0.243415 0.35983,-0.243416 0.55033,-0.634998 0.20108,-0.391583 0.20108,-0.825498 v -3.04799 h 0.89958 v 5.397483 h -0.85725 v -0.783165 h -0.0423 q -0.22225,0.402166 -0.70908,0.677332 -0.48683,0.275165 -1.03716,0.275165 z"
         id="path31661"
         style="fill:#000000" />
      <path
         d="m 124.72371,66.939596 q -0.61383,0 -1.11125,-0.275165 -0.48683,-0.285749 -0.73024,-0.687915 h -0.0423 v 0.793748 h -0.85724 v -7.577643 h 0.89958 v 2.233076 l -0.0423,0.751415 h 0.0423 q 0.24341,-0.412749 0.73024,-0.687915 0.49742,-0.285749 1.11125,-0.285749 0.71966,0 1.31233,0.370416 0.59266,0.370415 0.93133,1.02658 0.33867,0.656164 0.33867,1.471078 0,0.825498 -0.33867,1.481662 -0.33867,0.645581 -0.93133,1.015997 -0.59267,0.370415 -1.31233,0.370415 z m -0.10583,-0.814914 q 0.46566,0 0.87841,-0.253999 0.41275,-0.253999 0.65617,-0.719664 0.25399,-0.476249 0.25399,-1.079497 0,-0.603248 -0.25399,-1.068913 -0.24342,-0.476248 -0.65617,-0.730248 -0.41275,-0.253999 -0.87841,-0.253999 -0.46567,0 -0.87842,0.253999 -0.41275,0.254 -0.65616,0.719665 -0.24342,0.465665 -0.24342,1.079496 0,0.613832 0.24342,1.079497 0.24341,0.465665 0.65616,0.719664 0.41275,0.253999 0.87842,0.253999 z"
         id="path31663"
         style="fill:#000000" />
      <path
         d="m 130.75618,66.939596 q -0.77258,0 -1.38641,-0.370415 -0.61383,-0.370416 -0.96308,-1.015997 -0.33866,-0.656164 -0.33866,-1.471078 0,-0.783165 0.31749,-1.439329 0.32809,-0.656165 0.92075,-1.047747 0.59267,-0.391582 1.37583,-0.391582 0.79375,0 1.37583,0.359832 0.58208,0.349249 0.889,0.973664 0.3175,0.624414 0.3175,1.428745 0,0.15875 -0.0318,0.275166 h -4.26507 q 0.0317,0.613831 0.29633,1.037163 0.26458,0.423332 0.66675,0.634998 0.41275,0.211666 0.85724,0.211666 1.03717,0 1.59808,-0.973663 l 0.762,0.370415 q -0.34925,0.656165 -0.9525,1.037164 -0.59266,0.380998 -1.43933,0.380998 z m 1.55575,-3.439572 q -0.0212,-0.338666 -0.1905,-0.677331 -0.16933,-0.338666 -0.53975,-0.571498 -0.35983,-0.232833 -0.91016,-0.232833 -0.635,0 -1.0795,0.412749 -0.43391,0.402165 -0.5715,1.068913 z"
         id="path31665"
         style="fill:#000000" />
      <path
         d="m 136.17484,61.372781 h 0.92074 l 1.29117,4.26507 h 0.0106 l 1.35466,-4.26507 h 0.93133 l 1.36525,4.254486 h 0.0106 l 1.28058,-4.254486 h 0.91016 l -1.74624,5.397483 h -0.91016 l -1.397,-4.307403 -1.38641,4.307403 h -0.89958 z"
         id="path31667"
         style="fill:#000000" />
      <path
         d="m 145.5199,60.377951 q -0.26459,0 -0.45509,-0.1905 -0.1905,-0.190499 -0.1905,-0.455082 0,-0.264582 0.1905,-0.444498 0.1905,-0.1905 0.45509,-0.1905 0.26458,0 0.45508,0.1905 0.1905,0.179916 0.1905,0.444498 0,0.264583 -0.1905,0.455082 -0.17992,0.1905 -0.45508,0.1905 z m -0.4445,0.99483 h 0.88899 v 5.397483 h -0.88899 z"
         id="path31669"
         style="fill:#000000" />
      <path
         d="m 149.40397,66.85493 q -0.32808,0 -0.61383,-0.105833 -0.27517,-0.105833 -0.46567,-0.285749 -0.21166,-0.201083 -0.3175,-0.465665 -0.10583,-0.264583 -0.10583,-0.645581 v -3.164407 h -0.94191 v -0.814914 h 0.94191 v -1.523995 h 0.89958 v 1.523995 h 1.31233 v 0.814914 h -1.31233 v 2.942157 q 0,0.444499 0.16933,0.656165 0.20109,0.232832 0.58209,0.232832 0.30691,0 0.59266,-0.179916 v 0.878414 q -0.15875,0.07408 -0.32808,0.105833 -0.15875,0.03175 -0.41275,0.03175 z"
         id="path31671"
         style="fill:#000000" />
      <path
         d="m 151.25603,59.192621 h 0.89958 v 2.233076 l -0.0423,0.740831 h 0.0423 q 0.22225,-0.412748 0.6985,-0.687914 0.48683,-0.275166 1.05833,-0.275166 0.98424,0 1.50282,0.582082 0.51859,0.571498 0.51859,1.523995 v 3.460739 h -0.89958 v -3.323156 q 0,-0.730248 -0.37042,-1.079497 -0.37042,-0.349249 -0.96308,-0.349249 -0.42333,0 -0.78316,0.253999 -0.34925,0.254 -0.56092,0.656165 -0.20108,0.402165 -0.20108,0.836081 v 3.005657 h -0.89958 z"
         id="path31673"
         style="fill:#000000" />
      <path
         d="m 159.71208,66.939596 q -0.79375,0 -1.42874,-0.380998 -0.635,-0.380999 -0.99483,-1.037164 -0.34925,-0.656164 -0.34925,-1.449912 0,-0.793747 0.34925,-1.449912 0.35983,-0.656164 0.99483,-1.037163 0.63499,-0.380999 1.42874,-0.380999 0.79375,0 1.42875,0.380999 0.63499,0.380999 0.98424,1.037163 0.35984,0.656165 0.35984,1.449912 0,0.793748 -0.35984,1.449912 -0.34925,0.656165 -0.98424,1.037164 -0.635,0.380998 -1.42875,0.380998 z m 0,-0.814914 q 0.49742,0 0.92075,-0.243415 0.43391,-0.254 0.68791,-0.719665 0.26459,-0.465665 0.26459,-1.09008 0,-0.624414 -0.26459,-1.09008 -0.254,-0.465665 -0.68791,-0.709081 -0.42333,-0.253999 -0.92075,-0.253999 -0.49741,0 -0.93133,0.253999 -0.43391,0.243416 -0.6985,0.709081 -0.254,0.465666 -0.254,1.09008 0,0.624415 0.254,1.09008 0.26459,0.465665 0.6985,0.719665 0.43392,0.243415 0.93133,0.243415 z"
         id="path31675"
         style="fill:#000000" />
      <path
         d="m 165.43766,66.939596 q -0.97366,0 -1.49224,-0.571498 -0.508,-0.571498 -0.508,-1.598078 v -3.397239 h 0.89958 v 3.259656 q 0,0.772581 0.34925,1.132413 0.34925,0.359832 0.94191,0.359832 0.45508,0 0.80433,-0.243415 0.35983,-0.243416 0.55033,-0.634998 0.20109,-0.391583 0.20109,-0.825498 v -3.04799 h 0.89958 v 5.397483 h -0.85725 v -0.783165 h -0.0423 q -0.22225,0.402166 -0.70908,0.677332 -0.48684,0.275165 -1.03717,0.275165 z"
         id="path31677"
         style="fill:#000000" />
      <path
         d="m 171.54422,66.85493 q -0.32808,0 -0.61383,-0.105833 -0.27517,-0.105833 -0.46567,-0.285749 -0.21166,-0.201083 -0.31749,-0.465665 -0.10584,-0.264583 -0.10584,-0.645581 v -3.164407 h -0.94191 v -0.814914 h 0.94191 v -1.523995 h 0.89958 v 1.523995 h 1.31233 v 0.814914 h -1.31233 v 2.942157 q 0,0.444499 0.16934,0.656165 0.20108,0.232832 0.58208,0.232832 0.30691,0 0.59266,-0.179916 v 0.878414 q -0.15875,0.07408 -0.32808,0.105833 -0.15875,0.03175 -0.41275,0.03175 z"
         id="path31679"
         style="fill:#000000" />
      <path
         d="m 177.52378,66.939596 q -0.59266,0 -1.05833,-0.232832 -0.46566,-0.232833 -0.71966,-0.634998 -0.254,-0.412749 -0.254,-0.93133 0,-0.857248 0.64558,-1.333496 0.64558,-0.486832 1.62983,-0.486832 0.48683,0 0.89958,0.105833 0.42333,0.105833 0.64558,0.243416 v -0.328082 q 0,-0.603248 -0.42333,-0.963081 -0.42333,-0.370415 -1.06891,-0.370415 -0.45509,0 -0.83608,0.201083 -0.381,0.190499 -0.60325,0.539748 l -0.67733,-0.507999 q 0.3175,-0.486831 0.86783,-0.761997 0.56091,-0.275166 1.23824,-0.275166 1.10067,0 1.72508,0.582082 0.635,0.571498 0.635,1.566328 v 3.418406 h -0.85725 v -0.772581 h -0.0423 q -0.23283,0.391582 -0.6985,0.666748 -0.46566,0.275165 -1.04775,0.275165 z m 0.0847,-0.793747 q 0.45508,0 0.84666,-0.232833 0.39159,-0.232832 0.62442,-0.624414 0.23283,-0.391582 0.23283,-0.857248 -0.254,-0.169332 -0.62441,-0.275165 -0.37042,-0.105833 -0.78317,-0.105833 -0.74083,0 -1.12183,0.306915 -0.37041,0.306916 -0.37041,0.793748 0,0.444498 0.33866,0.719664 0.33867,0.275166 0.85725,0.275166 z"
         id="path31681"
         style="fill:#000000" />
      <path
         d="m 181.41843,61.372781 h 0.85725 v 0.793747 h 0.0423 q 0.22225,-0.402165 0.70909,-0.677331 0.48683,-0.285749 1.03716,-0.285749 0.97366,0 1.48166,0.571498 0.51858,0.560915 0.51858,1.534579 v 3.460739 h -0.89958 v -3.323156 q 0,-0.751415 -0.35983,-1.09008 -0.35983,-0.338666 -0.98425,-0.338666 -0.43391,0 -0.78316,0.243416 -0.33867,0.243416 -0.52917,0.645581 -0.1905,0.391582 -0.1905,0.825498 v 3.037407 h -0.89958 z"
         id="path31683"
         style="fill:#000000" />
      <path
         d="m 187.35568,61.372781 h 0.85725 v 0.793747 h 0.0423 q 0.22225,-0.402165 0.70908,-0.677331 0.48684,-0.285749 1.03717,-0.285749 0.97366,0 1.48166,0.571498 0.51858,0.560915 0.51858,1.534579 v 3.460739 h -0.89958 v -3.323156 q 0,-0.751415 -0.35983,-1.09008 -0.35983,-0.338666 -0.98425,-0.338666 -0.43391,0 -0.78316,0.243416 -0.33867,0.243416 -0.52917,0.645581 -0.1905,0.391582 -0.1905,0.825498 v 3.037407 h -0.89958 z"
         id="path31685"
         style="fill:#000000" />
      <path
         d="m 195.78,66.939596 q -0.79375,0 -1.42875,-0.380998 -0.635,-0.380999 -0.99483,-1.037164 -0.34925,-0.656164 -0.34925,-1.449912 0,-0.793747 0.34925,-1.449912 0.35983,-0.656164 0.99483,-1.037163 0.635,-0.380999 1.42875,-0.380999 0.79375,0 1.42874,0.380999 0.635,0.380999 0.98425,1.037163 0.35983,0.656165 0.35983,1.449912 0,0.793748 -0.35983,1.449912 -0.34925,0.656165 -0.98425,1.037164 -0.63499,0.380998 -1.42874,0.380998 z m 0,-0.814914 q 0.49741,0 0.92075,-0.243415 0.43391,-0.254 0.68791,-0.719665 0.26458,-0.465665 0.26458,-1.09008 0,-0.624414 -0.26458,-1.09008 -0.254,-0.465665 -0.68791,-0.709081 -0.42334,-0.253999 -0.92075,-0.253999 -0.49742,0 -0.93133,0.253999 -0.43392,0.243416 -0.6985,0.709081 -0.254,0.465666 -0.254,1.09008 0,0.624415 0.254,1.09008 0.26458,0.465665 0.6985,0.719665 0.43391,0.243415 0.93133,0.243415 z"
         id="path31687"
         style="fill:#000000" />
      <path
         d="m 201.0399,66.431598 -2.23308,-5.058817 h 0.97366 l 1.69333,4.01107 h 0.0212 l 1.62983,-4.01107 h 0.97366 l -3.33374,7.683475 h -0.93133 z"
         id="path31689"
         style="fill:#000000" />
      <path
         d="m 205.37905,60.377951 q -0.26458,0 -0.45508,-0.1905 -0.1905,-0.190499 -0.1905,-0.455082 0,-0.264582 0.1905,-0.444498 0.1905,-0.1905 0.45508,-0.1905 0.26458,0 0.45508,0.1905 0.1905,0.179916 0.1905,0.444498 0,0.264583 -0.1905,0.455082 -0.17992,0.1905 -0.45508,0.1905 z m -0.4445,0.99483 h 0.889 v 5.397483 h -0.889 z"
         id="path31691"
         style="fill:#000000" />
      <path
         d="m 207.24171,61.372781 h 0.85725 v 0.793747 h 0.0423 q 0.22225,-0.402165 0.70909,-0.677331 0.48683,-0.285749 1.03716,-0.285749 0.97366,0 1.48166,0.571498 0.51858,0.560915 0.51858,1.534579 v 3.460739 h -0.89958 v -3.323156 q 0,-0.751415 -0.35983,-1.09008 -0.35983,-0.338666 -0.98425,-0.338666 -0.43391,0 -0.78316,0.243416 -0.33867,0.243416 -0.52917,0.645581 -0.1905,0.391582 -0.1905,0.825498 v 3.037407 h -0.89958 z"
         id="path31693"
         style="fill:#000000" />
      <path
         d="m 215.49671,69.225589 q -0.9525,0 -1.57691,-0.444498 -0.61383,-0.444499 -0.8255,-1.068914 l 0.81492,-0.349249 q 0.17991,0.465666 0.59266,0.751415 0.42333,0.296332 0.99483,0.296332 0.83608,0 1.29116,-0.486832 0.46567,-0.486831 0.46567,-1.375829 v -0.603248 h -0.0423 q -0.26459,0.412749 -0.75142,0.677331 -0.47625,0.254 -1.09008,0.254 -0.6985,0 -1.28058,-0.359833 -0.5715,-0.359832 -0.91016,-1.005413 -0.33867,-0.645581 -0.33867,-1.471079 0,-0.814914 0.33867,-1.460495 0.33866,-0.656165 0.91016,-1.015997 0.58208,-0.359832 1.28058,-0.359832 0.61383,0 1.09008,0.264583 0.48683,0.253999 0.75142,0.677331 h 0.0423 v -0.772581 h 0.85725 v 5.185817 q 0,1.301746 -0.71967,1.979077 -0.71966,0.687914 -1.89441,0.687914 z m 0,-3.164406 q 0.48683,0 0.87842,-0.243416 0.40216,-0.243416 0.63499,-0.698498 0.24342,-0.455082 0.24342,-1.079497 0,-0.634998 -0.24342,-1.090079 -0.23283,-0.455082 -0.63499,-0.687915 -0.39159,-0.243416 -0.87842,-0.243416 -0.48683,0 -0.889,0.243416 -0.40216,0.243416 -0.64558,0.698498 -0.23283,0.455082 -0.23283,1.079496 0,0.624415 0.23283,1.09008 0.24342,0.455082 0.64558,0.698498 0.40217,0.232833 0.889,0.232833 z"
         id="path31695"
         style="fill:#000000" />
      <path
         d="m 223.62469,66.939596 q -0.59266,0 -1.05833,-0.232832 -0.46567,-0.232833 -0.71966,-0.634998 -0.254,-0.412749 -0.254,-0.93133 0,-0.857248 0.64558,-1.333496 0.64558,-0.486832 1.62983,-0.486832 0.48683,0 0.89958,0.105833 0.42333,0.105833 0.64558,0.243416 v -0.328082 q 0,-0.603248 -0.42333,-0.963081 -0.42334,-0.370415 -1.06892,-0.370415 -0.45508,0 -0.83608,0.201083 -0.381,0.190499 -0.60325,0.539748 l -0.67733,-0.507999 q 0.3175,-0.486831 0.86783,-0.761997 0.56092,-0.275166 1.23825,-0.275166 1.10066,0 1.72508,0.582082 0.635,0.571498 0.635,1.566328 v 3.418406 h -0.85725 v -0.772581 h -0.0423 q -0.23283,0.391582 -0.69849,0.666748 -0.46567,0.275165 -1.04775,0.275165 z m 0.0847,-0.793747 q 0.45508,0 0.84666,-0.232833 0.39158,-0.232832 0.62442,-0.624414 0.23283,-0.391582 0.23283,-0.857248 -0.254,-0.169332 -0.62442,-0.275165 -0.37041,-0.105833 -0.78316,-0.105833 -0.74083,0 -1.12183,0.306915 -0.37042,0.306916 -0.37042,0.793748 0,0.444498 0.33867,0.719664 0.33866,0.275166 0.85725,0.275166 z"
         id="path31697"
         style="fill:#000000" />
      <path
         d="m 229.75242,66.939596 q -0.71966,0 -1.31233,-0.370415 -0.58208,-0.370416 -0.92074,-1.015997 -0.33867,-0.656164 -0.33867,-1.481662 0,-0.814914 0.33867,-1.471078 0.33866,-0.656165 0.92074,-1.02658 0.59267,-0.370416 1.31233,-0.370416 0.62442,0 1.11125,0.285749 0.48683,0.275166 0.74083,0.687915 h 0.0423 l -0.0423,-0.751415 v -2.233076 h 0.89958 v 7.577643 h -0.85725 v -0.793748 h -0.0423 q -0.254,0.402166 -0.74083,0.687915 -0.48683,0.275165 -1.11125,0.275165 z m 0.10584,-0.814914 q 0.47624,0 0.87841,-0.253999 0.41275,-0.253999 0.65616,-0.719664 0.254,-0.465665 0.254,-1.079497 0,-0.613831 -0.254,-1.079496 -0.24341,-0.465665 -0.65616,-0.719665 -0.40217,-0.253999 -0.87841,-0.253999 -0.46567,0 -0.87842,0.253999 -0.41275,0.254 -0.66675,0.730248 -0.24341,0.465665 -0.24341,1.068913 0,0.603248 0.24341,1.079497 0.254,0.465665 0.66675,0.719664 0.41275,0.253999 0.87842,0.253999 z"
         id="path31699"
         style="fill:#000000" />
      <path
         d="m 235.6685,66.939596 q -0.86784,0 -1.44992,-0.402165 -0.58208,-0.412749 -0.82549,-1.047747 l 0.80433,-0.359832 q 0.20108,0.486832 0.59266,0.751415 0.40217,0.264582 0.87842,0.264582 0.50799,0 0.86783,-0.201083 0.35983,-0.211666 0.35983,-0.592664 0,-0.338666 -0.28575,-0.539749 -0.28575,-0.211666 -0.89958,-0.359832 l -0.65617,-0.169333 q -0.64558,-0.158749 -1.05833,-0.539748 -0.41274,-0.380999 -0.41274,-0.984247 0,-0.465665 0.27516,-0.814914 0.28575,-0.359832 0.75142,-0.550332 0.46566,-0.190499 1.00541,-0.190499 0.70908,0 1.25941,0.306916 0.56092,0.306915 0.79375,0.857247 l -0.78317,0.359832 q -0.35983,-0.719664 -1.28057,-0.719664 -0.4445,0 -0.78317,0.211666 -0.32808,0.201083 -0.32808,0.518582 0,0.296332 0.23283,0.486831 0.23283,0.179916 0.6985,0.296333 l 0.78316,0.201082 q 0.79375,0.201083 1.19592,0.603248 0.40216,0.391583 0.40216,0.963081 0,0.497415 -0.28575,0.878414 -0.28575,0.370415 -0.77258,0.571498 -0.48683,0.201082 -1.07949,0.201082 z"
         id="path31701"
         style="fill:#000000" />
    </g>
  </g>
</svg>
