<?xml version="1.0" encoding="UTF-8" standalone="no"?>
<!-- Created with Inkscape (http://www.inkscape.org/) -->

<svg
   width="350"
   height="60"
   viewBox="0 0 92.604164 15.875"
   version="1.1"
   id="svg5"
   inkscape:version="1.2.1 (9c6d41e410, 2022-07-14)"
   sodipodi:docname="adblock-light.svg"
   xmlns:inkscape="http://www.inkscape.org/namespaces/inkscape"
   xmlns:sodipodi="http://sodipodi.sourceforge.net/DTD/sodipodi-0.dtd"
   xmlns:xlink="http://www.w3.org/1999/xlink"
   xmlns="http://www.w3.org/2000/svg"
   xmlns:svg="http://www.w3.org/2000/svg">
  <sodipodi:namedview
     id="namedview7"
     pagecolor="#ffffff"
     bordercolor="#000000"
     borderopacity="0.25"
     inkscape:showpageshadow="2"
     inkscape:pageopacity="0.0"
     inkscape:pagecheckerboard="0"
     inkscape:deskcolor="#d1d1d1"
     inkscape:document-units="mm"
     showgrid="false"
     inkscape:zoom="2.9006173"
     inkscape:cx="152.72611"
     inkscape:cy="21.37476"
     inkscape:window-width="1366"
     inkscape:window-height="697"
     inkscape:window-x="-8"
     inkscape:window-y="-8"
     inkscape:window-maximized="1"
     inkscape:current-layer="layer1" />
  <defs
     id="defs2">
    <linearGradient
       inkscape:collect="always"
       xlink:href="#linearGradient10932"
       id="linearGradient10934"
       x1="13.243918"
       y1="49.804054"
       x2="31.634459"
       y2="49.804054"
       gradientUnits="userSpaceOnUse"
       gradientTransform="matrix(0.54065836,0,0,0.54065839,-4.287435,-18.945481)" />
    <linearGradient
       inkscape:collect="always"
       id="linearGradient10932">
      <stop
         style="stop-color:#697be2;stop-opacity:1;"
         offset="0"
         id="stop10928" />
      <stop
         style="stop-color:#9354f2;stop-opacity:1;"
         offset="1"
         id="stop10930" />
    </linearGradient>
  </defs>
  <g
     inkscape:label="Layer 1"
     inkscape:groupmode="layer"
     id="layer1">
    <g
       aria-label="Adblocking
Browsing without annoying ads"
       id="text1058"
       style="font-size:4.58611px;font-family:'Google Sans';-inkscape-font-specification:'Google Sans';stroke:#000000;stroke-width:0;stroke-linecap:square"
       inkscape:transform-center-x="-3.4662162"
       inkscape:transform-center-y="-2.0067568">
      <path
         d="m 17.336029,1.6533928 h 0.675239 l 1.922364,5.0505133 H 19.272174 L 18.769189,5.3120866 H 16.578107 L 16.075123,6.7039061 H 15.413664 Z M 18.562484,4.7470906 17.887244,2.928079 17.687429,2.3837535 h -0.02756 L 17.460052,2.928079 16.784813,4.7470906 Z"
         style="font-size:7.05556px"
         id="path241" />
      <path
         d="M 21.029173,6.5729923 Q 20.643323,6.3318355 20.415946,5.890863 20.18857,5.4567807 20.18857,4.9055651 q 0,-0.5443255 0.227376,-0.9784078 0.234267,-0.4478627 0.613227,-0.6890195 0.392742,-0.2480471 0.881945,-0.2480471 0.399632,0 0.730361,0.1929255 0.33762,0.1998157 0.496094,0.4616431 h 0.02756 L 23.137573,3.141675 V 1.6533928 H 23.73702 V 6.7039061 H 23.165134 V 6.173361 h -0.02756 q -0.158474,0.2618274 -0.496094,0.4547529 -0.323839,0.1860353 -0.730361,0.1860353 -0.502984,0 -0.881945,-0.2411569 z m 1.529624,-0.4685332 q 0.275608,-0.1653647 0.440972,-0.4823137 0.165365,-0.3100588 0.165365,-0.7165803 0,-0.4134118 -0.165365,-0.7234706 Q 22.834405,3.8789259 22.558797,3.7066711 22.276299,3.5344162 21.97313,3.5344162 q -0.296278,0 -0.585666,0.1722549 -0.268718,0.1584744 -0.440973,0.4823136 -0.165365,0.3100588 -0.165365,0.7165804 0,0.4065215 0.165365,0.7165803 0.172255,0.3238392 0.440973,0.4823137 0.289388,0.1722548 0.585666,0.1722548 0.303169,0 0.585667,-0.1722548 z"
         style="font-size:7.05556px"
         id="path243" />
      <path
         d="M 25.714506,6.6281139 Q 25.397557,6.4489688 25.225303,6.173361 h -0.03445 V 6.7039061 H 24.625856 V 1.6533928 h 0.599447 V 3.141675 l -0.03445,0.5029843 h 0.03445 q 0.165364,-0.282498 0.489203,-0.4616431 0.34451,-0.1929255 0.737251,-0.1929255 0.482314,0 0.875055,0.2480471 0.385851,0.248047 0.620118,0.6890195 0.227376,0.4340823 0.227376,0.9784078 0,0.5512156 -0.227376,0.9852979 -0.227377,0.4340823 -0.620118,0.6821293 -0.378961,0.2411569 -0.875055,0.2411569 -0.406521,0 -0.737251,-0.1860353 z m 1.260906,-0.5236548 q 0.261828,-0.1515843 0.434082,-0.4823137 0.165365,-0.3100588 0.165365,-0.7165803 0,-0.4134118 -0.165365,-0.7234706 -0.172254,-0.316949 -0.434082,-0.4754234 -0.289388,-0.1722549 -0.585666,-0.1722549 -0.310059,0 -0.592557,0.1722549 -0.268718,0.1653646 -0.434083,0.4754234 -0.172254,0.3238392 -0.172254,0.7234706 0,0.3927411 0.172254,0.7165803 0.172255,0.316949 0.434083,0.4823137 0.282498,0.1722548 0.592557,0.1722548 0.296278,0 0.585666,-0.1722548 z"
         style="font-size:7.05556px"
         id="path245" />
      <path
         d="m 28.835765,1.6533928 h 0.599447 v 5.0505133 h -0.599447 z"
         style="font-size:7.05556px"
         id="path247" />
      <path
         d="M 30.992396,6.5661022 Q 30.572094,6.3111649 30.330937,5.8701924 30.09667,5.4430003 30.09667,4.9055651 q 0,-0.5374353 0.234267,-0.9646274 0.241157,-0.4409725 0.661459,-0.6959097 0.420302,-0.2549373 0.950847,-0.2549373 0.530545,0 0.950847,0.2549373 0.420301,0.2549372 0.661458,0.6959097 0.234267,0.4271921 0.234267,0.9646274 0,0.5374352 -0.234267,0.9646273 -0.241157,0.4409725 -0.661458,0.6959098 -0.406522,0.248047 -0.950847,0.248047 -0.544326,0 -0.950847,-0.248047 z M 32.56336,6.1044591 q 0.275608,-0.1584745 0.454753,-0.4754235 0.172255,-0.3031686 0.172255,-0.7234705 0,-0.4271922 -0.172255,-0.7303608 Q 32.838968,3.8582554 32.56336,3.6997809 32.273972,3.5344162 31.943243,3.5344162 q -0.33073,0 -0.620118,0.1653647 -0.282498,0.1653646 -0.461643,0.4754234 -0.172255,0.3031686 -0.172255,0.7303608 0,0.4203019 0.172255,0.7234705 0.179145,0.3100588 0.461643,0.4754235 0.303169,0.1722548 0.620118,0.1722548 0.316949,0 0.620117,-0.1722548 z"
         style="font-size:7.05556px"
         id="path249" />
      <path
         d="M 35.181635,6.5661022 Q 34.775114,6.3180551 34.533957,5.8839728 34.29969,5.4567807 34.29969,4.9055651 q 0,-0.5512157 0.234267,-0.9784078 0.248047,-0.4478627 0.647678,-0.6890195 0.413412,-0.2480471 0.937067,-0.2480471 0.571886,0 0.985298,0.2756078 0.399631,0.2687177 0.564996,0.7234706 L 37.12467,4.2165455 Q 36.986867,3.8720357 36.731929,3.7066711 36.470102,3.5344162 36.091141,3.5344162 q -0.316949,0 -0.592557,0.1722549 -0.275608,0.1722548 -0.440972,0.4823136 -0.165365,0.3100588 -0.165365,0.7165804 0,0.3996313 0.165365,0.7096901 0.165364,0.3100588 0.440972,0.4823137 0.282498,0.179145 0.592557,0.179145 0.372071,0 0.654569,-0.179145 0.275607,-0.1722549 0.413411,-0.5029843 L 37.689666,5.821961 Q 37.503631,6.2629336 37.104,6.5385414 q -0.399631,0.2756078 -0.985298,0.2756078 -0.523655,0 -0.937067,-0.248047 z"
         style="font-size:7.05556px"
         id="path251" />
      <path
         d="m 38.344234,1.6533928 h 0.599447 V 4.8297729 L 40.631778,3.107224 h 0.764812 v 0.027561 l -1.41249,1.4262705 1.453831,2.11529 v 0.027561 h -0.71658 L 39.563798,4.974467 38.943681,5.5945846 v 1.1093215 h -0.599447 z"
         style="font-size:7.05556px"
         id="path253" />
      <path
         d="m 42.257867,2.4457653 q -0.172255,0 -0.303169,-0.1309137 -0.130914,-0.1309137 -0.130914,-0.3031686 0,-0.1791451 0.130914,-0.3100588 0.117133,-0.1171333 0.303169,-0.1171333 0.186035,0 0.303168,0.1171333 0.124024,0.1240235 0.124024,0.3100588 0,0.1791451 -0.124024,0.3031686 -0.130914,0.1309137 -0.303168,0.1309137 z M 41.961588,3.107224 h 0.599447 v 3.5966821 h -0.599447 z"
         style="font-size:7.05556px"
         id="path255" />
      <path
         d="m 43.498101,3.107224 h 0.564996 v 0.5305451 h 0.03445 q 0.144694,-0.2687176 0.468534,-0.4547529 0.330729,-0.1929255 0.695909,-0.1929255 0.647679,0 0.985298,0.3789608 0.34451,0.3858509 0.34451,1.0266391 v 2.3082155 h -0.599447 v -2.218643 q 0,-0.496094 -0.241157,-0.7234705 -0.234266,-0.2273764 -0.654568,-0.2273764 -0.289389,0 -0.516765,0.1653647 -0.241157,0.179145 -0.35829,0.4271921 -0.124024,0.2687176 -0.124024,0.5512156 v 2.0257175 h -0.599447 z"
         style="font-size:7.05556px"
         id="path257" />
      <path
         d="M 47.949167,8.0474942 Q 47.535755,7.7512158 47.391061,7.3309138 l 0.551216,-0.2342666 q 0.117133,0.316949 0.392741,0.5098745 0.275608,0.1929254 0.661459,0.1929254 0.551215,0 0.861274,-0.3238392 Q 50.16781,7.158659 50.16781,6.5523218 V 6.1526904 h -0.02756 q -0.172255,0.2687176 -0.496094,0.4478627 -0.316949,0.1722549 -0.73036,0.1722549 -0.468534,0 -0.854385,-0.2411568 -0.37896,-0.2342667 -0.606337,-0.668349 -0.227376,-0.4340823 -0.227376,-0.9784077 0,-0.5443255 0.227376,-0.9784078 0.234267,-0.4409725 0.606337,-0.6752391 0.385851,-0.2411569 0.854385,-0.2411569 0.413411,0 0.73036,0.1722549 0.316949,0.1722549 0.496094,0.4616431 h 0.02756 V 3.107224 h 0.571886 v 3.4588782 q 0,0.8612744 -0.482313,1.3229175 -0.475424,0.4547529 -1.260906,0.4547529 -0.640788,0 -1.04731,-0.2962784 z m 1.632976,-1.9774861 q 0.268718,-0.1653647 0.427193,-0.4685333 0.158474,-0.3031686 0.158474,-0.7165803 0,-0.4271921 -0.158474,-0.7303607 Q 49.850861,3.844475 49.582143,3.6928907 49.306536,3.5344162 48.996477,3.5344162 q -0.323839,0 -0.592557,0.1653647 -0.275608,0.1722548 -0.427192,0.461643 -0.158475,0.3031686 -0.158475,0.7234706 0,0.4065215 0.158475,0.7234705 0.151584,0.3031686 0.427192,0.4616431 0.275608,0.1584745 0.592557,0.1584745 0.330729,0 0.585666,-0.1584745 z"
         style="font-size:7.05556px"
         id="path259" />
      <path
         d="m 15.677558,10.027667 h 1.177878 q 0.255282,0 0.465777,0.111965 0.214974,0.116444 0.344854,0.317983 0.12988,0.206016 0.12988,0.45234 0,0.241846 -0.120923,0.420991 -0.120922,0.179145 -0.326939,0.273196 v 0.01792 q 0.241846,0.08061 0.403076,0.286631 0.156752,0.206017 0.156752,0.470256 0,0.255281 -0.138838,0.479213 -0.12988,0.210495 -0.362768,0.331418 -0.22841,0.120922 -0.48817,0.120922 h -1.240579 z m 1.177878,1.415245 q 0.161231,0 0.291111,-0.07614 0.12988,-0.07614 0.197059,-0.197059 0.06718,-0.120923 0.06718,-0.250803 0,-0.120923 -0.06718,-0.241846 -0.06718,-0.120923 -0.188102,-0.201538 -0.116444,-0.07614 -0.282153,-0.07614 h -0.806152 v 1.04352 z m 0.08957,1.49586 q 0.165709,0 0.295589,-0.08061 0.120923,-0.07614 0.201538,-0.214974 0.07166,-0.125402 0.07166,-0.268718 0,-0.138837 -0.07614,-0.268717 -0.07614,-0.134359 -0.206016,-0.210495 -0.134359,-0.08062 -0.309025,-0.08062 h -0.855417 v 1.124135 z"
         id="path261" />
      <path
         d="m 18.378168,10.972656 h 0.367247 v 0.376205 h 0.02239 q 0.0627,-0.188103 0.264239,-0.317983 0.197059,-0.12988 0.412033,-0.12988 0.156752,0 0.277675,0.04927 v 0.420991 q -0.152273,-0.07614 -0.331418,-0.07614 -0.165709,0 -0.313504,0.09853 -0.138837,0.08957 -0.228409,0.25976 -0.08062,0.147794 -0.08062,0.349333 v 1.307757 h -0.38964 z"
         id="path263" />
      <path
         d="m 20.415942,13.220925 q -0.273196,-0.165709 -0.429948,-0.452341 -0.152273,-0.277675 -0.152273,-0.627007 0,-0.349333 0.152273,-0.627007 0.156752,-0.286632 0.429948,-0.452341 0.273196,-0.165709 0.61805,-0.165709 0.344854,0 0.61805,0.165709 0.273196,0.165709 0.429948,0.452341 0.152273,0.277674 0.152273,0.627007 0,0.349332 -0.152273,0.627007 -0.156752,0.286632 -0.429948,0.452341 -0.264239,0.16123 -0.61805,0.16123 -0.353812,0 -0.61805,-0.16123 z m 1.021126,-0.300068 q 0.179145,-0.103008 0.295589,-0.309025 0.111966,-0.197059 0.111966,-0.470255 0,-0.277675 -0.111966,-0.474734 -0.116444,-0.206017 -0.295589,-0.309025 -0.188102,-0.107487 -0.403076,-0.107487 -0.214974,0 -0.403076,0.107487 -0.183624,0.107487 -0.300068,0.309025 -0.111966,0.197059 -0.111966,0.474734 0,0.273196 0.111966,0.470255 0.116444,0.201538 0.300068,0.309025 0.197059,0.111966 0.403076,0.111966 0.206016,0 0.403076,-0.111966 z"
         id="path265" />
      <path
         d="m 22.386536,10.972656 h 0.403076 l 0.555349,1.845193 h 0.0045 l 0.591178,-1.845193 h 0.398598 l 0.591178,1.840714 h 0.009 l 0.550871,-1.840714 h 0.394119 l -0.752409,2.337841 h -0.398598 l -0.604614,-1.867585 -0.600135,1.867585 h -0.38964 z"
         id="path267" />
      <path
         d="M 26.390424,13.207489 Q 26.148579,13.04178 26.036613,12.755148 l 0.344854,-0.156752 q 0.08957,0.214974 0.25976,0.32694 0.179145,0.116444 0.380683,0.116444 0.219453,0 0.376205,-0.08957 0.156751,-0.08957 0.156751,-0.255282 0,-0.147794 -0.125401,-0.237367 -0.116444,-0.08509 -0.38964,-0.152273 l -0.286632,-0.07614 q -0.277675,-0.06718 -0.45682,-0.232888 -0.179145,-0.165709 -0.179145,-0.425469 0,-0.19706 0.120923,-0.353812 0.125402,-0.156751 0.322461,-0.237367 0.214974,-0.08509 0.438905,-0.08509 0.304547,0 0.546392,0.134358 0.237367,0.12988 0.340376,0.371726 l -0.335897,0.156752 q -0.156752,-0.313504 -0.555349,-0.313504 -0.188103,0 -0.340376,0.08957 -0.143316,0.08509 -0.143316,0.228409 0,0.125402 0.103009,0.206017 0.103008,0.08062 0.300067,0.134359 l 0.340376,0.08509 q 0.349332,0.08957 0.51952,0.25976 0.174666,0.174666 0.174666,0.42099 0,0.210496 -0.125401,0.376205 -0.120923,0.16123 -0.335897,0.250803 -0.201538,0.08509 -0.465777,0.08509 -0.376204,0 -0.631486,-0.174666 z"
         id="path269" />
      <path
         d="m 28.580472,10.542708 q -0.111966,0 -0.19706,-0.08509 -0.08509,-0.08509 -0.08509,-0.19706 0,-0.116444 0.08509,-0.201538 0.07614,-0.076137 0.19706,-0.076137 0.120922,0 0.197059,0.076137 0.08062,0.08061 0.08062,0.201538 0,0.116444 -0.08062,0.19706 -0.08509,0.08509 -0.197059,0.08509 z m -0.192581,0.429948 h 0.38964 v 2.337841 h -0.38964 z"
         id="path271" />
      <path
         d="m 29.386624,10.972656 h 0.367247 v 0.344854 h 0.02239 q 0.09405,-0.174666 0.304546,-0.295589 0.214974,-0.125401 0.452341,-0.125401 0.420991,0 0.640443,0.246324 0.223932,0.250803 0.223932,0.667315 v 1.500338 h -0.389641 v -1.442116 q 0,-0.322461 -0.156751,-0.470256 -0.152274,-0.147794 -0.42547,-0.147794 -0.188102,0 -0.335896,0.107487 -0.156752,0.116444 -0.232889,0.277674 -0.08061,0.174667 -0.08061,0.35829 v 1.316715 h -0.38964 z"
         id="path273" />
      <path
         d="m 32.279814,14.183829 q -0.268718,-0.192581 -0.362769,-0.465777 l 0.35829,-0.152273 q 0.07614,0.206017 0.255282,0.331418 0.179145,0.125402 0.429948,0.125402 0.358289,0 0.559827,-0.210496 0.201539,-0.206016 0.201539,-0.600135 v -0.25976 h -0.01791 q -0.111966,0.174666 -0.322461,0.29111 -0.206017,0.111966 -0.474734,0.111966 -0.304546,0 -0.555349,-0.156752 -0.246324,-0.152273 -0.394119,-0.434427 -0.147795,-0.282153 -0.147795,-0.635964 0,-0.353811 0.147795,-0.635965 0.152273,-0.286631 0.394119,-0.438905 0.250803,-0.156751 0.555349,-0.156751 0.268717,0 0.474734,0.111965 0.206017,0.111966 0.322461,0.300068 h 0.01791 v -0.335897 h 0.371725 v 2.248269 q 0,0.559828 -0.313503,0.859896 -0.309025,0.295589 -0.819588,0.295589 -0.416512,0 -0.680751,-0.192581 z m 1.061434,-1.285365 q 0.174666,-0.107487 0.277674,-0.304546 0.103009,-0.19706 0.103009,-0.465777 0,-0.277675 -0.103009,-0.474734 -0.103008,-0.201538 -0.277674,-0.300068 -0.179145,-0.103008 -0.380683,-0.103008 -0.210496,0 -0.385162,0.107487 -0.179145,0.111965 -0.277675,0.300068 -0.103008,0.197059 -0.103008,0.470255 0,0.264239 0.103008,0.470255 0.09853,0.19706 0.277675,0.300068 0.179145,0.103008 0.385162,0.103008 0.214973,0 0.380683,-0.103008 z"
         id="path275" />
      <path
         d="M 34.380288,13.310497 Z"
         id="path277" />
      <path
         d="m 35.473072,10.972656 h 0.403076 l 0.55535,1.845193 h 0.0045 l 0.591179,-1.845193 h 0.398597 l 0.591178,1.840714 h 0.009 l 0.550871,-1.840714 h 0.394119 l -0.752409,2.337841 h -0.398597 l -0.604614,-1.867585 -0.600136,1.867585 h -0.38964 z"
         id="path279" />
      <path
         d="m 39.521747,10.542708 q -0.111965,0 -0.197059,-0.08509 -0.08509,-0.08509 -0.08509,-0.19706 0,-0.116444 0.08509,-0.201538 0.07614,-0.076137 0.197059,-0.076137 0.120923,0 0.19706,0.076137 0.08062,0.08061 0.08062,0.201538 0,0.116444 -0.08062,0.19706 -0.08509,0.08509 -0.19706,0.08509 z m -0.192581,0.429948 h 0.389641 v 2.337841 h -0.389641 z"
         id="path281" />
      <path
         d="M 40.936992,13.30154 Q 40.811591,13.252275 40.735454,13.176139 40.55183,13.001472 40.55183,12.696926 V 11.326467 H 40.144276 V 10.972656 H 40.55183 V 10.30982 h 0.389641 v 0.662836 h 0.573263 v 0.353811 h -0.573263 v 1.271929 q 0,0.19706 0.07166,0.286632 0.08509,0.09853 0.255281,0.09853 0.147795,0 0.255282,-0.07614 v 0.380683 q -0.0627,0.03135 -0.138838,0.04479 -0.07166,0.01343 -0.183623,0.01343 -0.147795,0 -0.264239,-0.04479 z"
         id="path283" />
      <path
         d="m 42.002905,10.027667 h 0.389641 v 0.967382 l -0.02239,0.322461 h 0.02239 q 0.08957,-0.174666 0.304546,-0.300068 0.206017,-0.120922 0.45682,-0.120922 0.425469,0 0.6494,0.250803 0.223931,0.250802 0.223931,0.662836 v 1.500338 h -0.38964 v -1.442116 q 0,-0.313504 -0.161231,-0.465777 -0.156751,-0.152273 -0.416512,-0.152273 -0.174666,0 -0.335896,0.111965 -0.152274,0.107487 -0.241846,0.282154 -0.08957,0.179145 -0.08957,0.362768 v 1.303279 h -0.389641 z"
         id="path285" />
      <path
         d="m 45.04389,13.220925 q -0.273196,-0.165709 -0.429947,-0.452341 -0.152274,-0.277675 -0.152274,-0.627007 0,-0.349333 0.152274,-0.627007 0.156751,-0.286632 0.429947,-0.452341 0.273197,-0.165709 0.61805,-0.165709 0.344854,0 0.61805,0.165709 0.273196,0.165709 0.429948,0.452341 0.152273,0.277674 0.152273,0.627007 0,0.349332 -0.152273,0.627007 -0.156752,0.286632 -0.429948,0.452341 -0.264238,0.16123 -0.61805,0.16123 -0.353811,0 -0.61805,-0.16123 z m 1.021127,-0.300068 q 0.179145,-0.103008 0.295589,-0.309025 0.111965,-0.197059 0.111965,-0.470255 0,-0.277675 -0.111965,-0.474734 -0.116444,-0.206017 -0.295589,-0.309025 -0.188103,-0.107487 -0.403077,-0.107487 -0.214973,0 -0.403076,0.107487 -0.183623,0.107487 -0.300067,0.309025 -0.111966,0.197059 -0.111966,0.474734 0,0.273196 0.111966,0.470255 0.116444,0.201538 0.300067,0.309025 0.19706,0.111966 0.403076,0.111966 0.206017,0 0.403077,-0.111966 z"
         id="path287" />
      <path
         d="m 47.498175,13.135831 q -0.223931,-0.250803 -0.223931,-0.694186 v -1.468989 h 0.38964 v 1.410766 q 0,0.340376 0.152273,0.492649 0.156752,0.156752 0.407555,0.156752 0.197059,0 0.353811,-0.107487 0.147795,-0.103008 0.237367,-0.273196 0.08509,-0.165709 0.08509,-0.35829 v -1.321194 h 0.38964 v 2.337841 h -0.371725 v -0.340375 h -0.01791 q -0.08957,0.170188 -0.309025,0.295589 -0.201538,0.116444 -0.447862,0.116444 -0.425469,0 -0.644922,-0.246324 z"
         id="path289" />
      <path
         d="m 50.521245,13.30154 q -0.125401,-0.04927 -0.201538,-0.125401 -0.183623,-0.174667 -0.183623,-0.479213 v -1.370459 h -0.407555 v -0.353811 h 0.407555 V 10.30982 h 0.38964 v 0.662836 h 0.573264 v 0.353811 h -0.573264 v 1.271929 q 0,0.19706 0.07166,0.286632 0.08509,0.09853 0.255282,0.09853 0.147794,0 0.255281,-0.07614 v 0.380683 q -0.0627,0.03135 -0.138837,0.04479 -0.07166,0.01343 -0.183624,0.01343 -0.147794,0 -0.264239,-0.04479 z"
         id="path291" />
      <path
         d="M 51.273656,13.310497 Z"
         id="path293" />
      <path
         d="m 52.91283,13.283626 q -0.206017,-0.103009 -0.313503,-0.277675 -0.107487,-0.174666 -0.107487,-0.403076 0,-0.371726 0.277674,-0.577742 0.286632,-0.210496 0.707623,-0.210496 0.219452,0 0.394119,0.04479 0.179144,0.04479 0.273196,0.107487 v -0.143316 q 0,-0.255282 -0.179145,-0.416512 -0.179145,-0.161231 -0.465777,-0.161231 -0.192581,0 -0.35829,0.08509 -0.174666,0.08957 -0.264239,0.237367 l -0.295589,-0.219452 q 0.134359,-0.206017 0.380683,-0.331419 0.241846,-0.120922 0.537435,-0.120922 0.474734,0 0.74793,0.250803 0.268717,0.246324 0.268717,0.68075 v 1.482424 h -0.371725 v -0.335896 h -0.01792 q -0.103008,0.174666 -0.300068,0.29111 -0.192581,0.116444 -0.456819,0.116444 -0.25976,0 -0.45682,-0.09853 z m 0.864374,-0.344854 q 0.170188,-0.103009 0.268718,-0.268718 0.09853,-0.165709 0.09853,-0.371725 -0.107487,-0.07166 -0.268718,-0.120923 -0.152273,-0.04479 -0.340375,-0.04479 -0.322461,0 -0.483692,0.134358 -0.16123,0.134359 -0.16123,0.340376 0,0.19258 0.147795,0.313503 0.147794,0.120923 0.371725,0.120923 0.19706,0 0.367247,-0.103008 z"
         id="path295" />
      <path
         d="m 55.058091,10.972656 h 0.367247 v 0.344854 h 0.02239 q 0.09405,-0.174666 0.304546,-0.295589 0.214974,-0.125401 0.452341,-0.125401 0.420991,0 0.640443,0.246324 0.223931,0.250803 0.223931,0.667315 v 1.500338 h -0.38964 v -1.442116 q 0,-0.322461 -0.156752,-0.470256 -0.152273,-0.147794 -0.425469,-0.147794 -0.188102,0 -0.335896,0.107487 -0.156752,0.116444 -0.232889,0.277674 -0.08062,0.174667 -0.08062,0.35829 v 1.316715 h -0.38964 z"
         id="path297" />
      <path
         d="m 57.628823,10.972656 h 0.367247 v 0.344854 h 0.02239 q 0.09405,-0.174666 0.304546,-0.295589 0.214974,-0.125401 0.452341,-0.125401 0.420991,0 0.640443,0.246324 0.223932,0.250803 0.223932,0.667315 v 1.500338 h -0.389641 v -1.442116 q 0,-0.322461 -0.156751,-0.470256 -0.152274,-0.147794 -0.42547,-0.147794 -0.188102,0 -0.335896,0.107487 -0.156752,0.116444 -0.232889,0.277674 -0.08062,0.174667 -0.08062,0.35829 v 1.316715 h -0.38964 z"
         id="path299" />
      <path
         d="m 60.656371,13.220925 q -0.273196,-0.165709 -0.429948,-0.452341 -0.152273,-0.277675 -0.152273,-0.627007 0,-0.349333 0.152273,-0.627007 0.156752,-0.286632 0.429948,-0.452341 0.273196,-0.165709 0.61805,-0.165709 0.344854,0 0.61805,0.165709 0.273196,0.165709 0.429947,0.452341 0.152274,0.277674 0.152274,0.627007 0,0.349332 -0.152274,0.627007 -0.156751,0.286632 -0.429947,0.452341 -0.264239,0.16123 -0.61805,0.16123 -0.353812,0 -0.61805,-0.16123 z m 1.021126,-0.300068 q 0.179145,-0.103008 0.295589,-0.309025 0.111965,-0.197059 0.111965,-0.470255 0,-0.277675 -0.111965,-0.474734 -0.116444,-0.206017 -0.295589,-0.309025 -0.188102,-0.107487 -0.403076,-0.107487 -0.214974,0 -0.403076,0.107487 -0.183624,0.107487 -0.300068,0.309025 -0.111966,0.197059 -0.111966,0.474734 0,0.273196 0.111966,0.470255 0.116444,0.201538 0.300068,0.309025 0.197059,0.111966 0.403076,0.111966 0.206016,0 0.403076,-0.111966 z"
         id="path301" />
      <path
         d="m 63.55404,13.162703 -0.967383,-2.190047 h 0.420991 l 0.734494,1.737706 h 0.009 l 0.707622,-1.737706 h 0.420991 l -1.442117,3.327617 h -0.403076 z"
         id="path303" />
      <path
         d="m 65.43506,10.542708 q -0.111966,0 -0.197059,-0.08509 -0.08509,-0.08509 -0.08509,-0.19706 0,-0.116444 0.08509,-0.201538 0.07614,-0.076137 0.197059,-0.076137 0.120923,0 0.197059,0.076137 0.08062,0.08061 0.08062,0.201538 0,0.116444 -0.08062,0.19706 -0.08509,0.08509 -0.197059,0.08509 z m -0.192581,0.429948 h 0.38964 v 2.337841 h -0.38964 z"
         id="path305" />
      <path
         d="m 66.241215,10.972656 h 0.367247 v 0.344854 h 0.02239 q 0.09405,-0.174666 0.304547,-0.295589 0.214974,-0.125401 0.452341,-0.125401 0.42099,0 0.640443,0.246324 0.223931,0.250803 0.223931,0.667315 v 1.500338 h -0.38964 v -1.442116 q 0,-0.322461 -0.156752,-0.470256 -0.152273,-0.147794 -0.425469,-0.147794 -0.188102,0 -0.335897,0.107487 -0.156752,0.116444 -0.232888,0.277674 -0.08062,0.174667 -0.08062,0.35829 v 1.316715 h -0.38964 z"
         id="path307" />
      <path
         d="m 69.134405,14.183829 q -0.268717,-0.192581 -0.362768,-0.465777 l 0.35829,-0.152273 q 0.07614,0.206017 0.255281,0.331418 0.179145,0.125402 0.429948,0.125402 0.35829,0 0.559828,-0.210496 0.201538,-0.206016 0.201538,-0.600135 v -0.25976 h -0.01792 q -0.111965,0.174666 -0.32246,0.29111 -0.206017,0.111966 -0.474735,0.111966 -0.304546,0 -0.555349,-0.156752 -0.246324,-0.152273 -0.394119,-0.434427 -0.147794,-0.282153 -0.147794,-0.635964 0,-0.353811 0.147794,-0.635965 0.152274,-0.286631 0.394119,-0.438905 0.250803,-0.156751 0.555349,-0.156751 0.268718,0 0.474735,0.111965 0.206016,0.111966 0.32246,0.300068 h 0.01792 v -0.335897 h 0.371726 v 2.248269 q 0,0.559828 -0.313504,0.859896 -0.309025,0.295589 -0.819588,0.295589 -0.416512,0 -0.680751,-0.192581 z m 1.061434,-1.285365 q 0.174666,-0.107487 0.277675,-0.304546 0.103008,-0.19706 0.103008,-0.465777 0,-0.277675 -0.103008,-0.474734 -0.103009,-0.201538 -0.277675,-0.300068 -0.179145,-0.103008 -0.380683,-0.103008 -0.210495,0 -0.385162,0.107487 -0.179145,0.111965 -0.277674,0.300068 -0.103009,0.197059 -0.103009,0.470255 0,0.264239 0.103009,0.470255 0.09853,0.19706 0.277674,0.300068 0.179145,0.103008 0.385162,0.103008 0.214974,0 0.380683,-0.103008 z"
         id="path309" />
      <path
         d="M 71.234879,13.310497 Z"
         id="path311" />
      <path
         d="m 72.874054,13.283626 q -0.206017,-0.103009 -0.313504,-0.277675 -0.107487,-0.174666 -0.107487,-0.403076 0,-0.371726 0.277675,-0.577742 0.286632,-0.210496 0.707622,-0.210496 0.219453,0 0.394119,0.04479 0.179145,0.04479 0.273196,0.107487 v -0.143316 q 0,-0.255282 -0.179145,-0.416512 -0.179145,-0.161231 -0.465777,-0.161231 -0.19258,0 -0.358289,0.08509 -0.174667,0.08957 -0.264239,0.237367 l -0.295589,-0.219452 q 0.134358,-0.206017 0.380683,-0.331419 0.241845,-0.120922 0.537434,-0.120922 0.474734,0 0.74793,0.250803 0.268718,0.246324 0.268718,0.68075 v 1.482424 h -0.371726 v -0.335896 h -0.01791 q -0.103009,0.174666 -0.300068,0.29111 -0.192581,0.116444 -0.45682,0.116444 -0.25976,0 -0.456819,-0.09853 z m 0.864374,-0.344854 q 0.170188,-0.103009 0.268717,-0.268718 0.09853,-0.165709 0.09853,-0.371725 -0.107487,-0.07166 -0.268717,-0.120923 -0.152273,-0.04479 -0.340376,-0.04479 -0.32246,0 -0.483691,0.134358 -0.16123,0.134359 -0.16123,0.340376 0,0.19258 0.147794,0.313503 0.147795,0.120923 0.371726,0.120923 0.197059,0 0.367247,-0.103008 z"
         id="path313" />
      <path
         d="m 75.417913,13.225404 q -0.250803,-0.156752 -0.398598,-0.443384 -0.147794,-0.282153 -0.147794,-0.640443 0,-0.353811 0.147794,-0.635965 0.152273,-0.29111 0.398598,-0.447862 0.255281,-0.16123 0.573263,-0.16123 0.25976,0 0.474734,0.125401 0.219453,0.12988 0.322461,0.300068 h 0.01792 l -0.01792,-0.32694 v -0.967382 h 0.38964 v 3.28283 h -0.371725 v -0.344853 h -0.01792 q -0.103008,0.170187 -0.322461,0.295589 -0.210495,0.120922 -0.474734,0.120922 -0.326939,0 -0.573263,-0.156751 z m 0.994254,-0.304547 q 0.179145,-0.107487 0.286632,-0.313503 0.107487,-0.201538 0.107487,-0.465777 0,-0.268718 -0.107487,-0.470256 -0.107487,-0.197059 -0.286632,-0.309025 -0.183624,-0.111965 -0.380683,-0.111965 -0.192581,0 -0.380683,0.111965 -0.174666,0.103009 -0.286632,0.313504 -0.107487,0.201538 -0.107487,0.465777 0,0.264239 0.107487,0.465777 0.111966,0.210495 0.286632,0.313503 0.188102,0.111966 0.380683,0.111966 0.197059,0 0.380683,-0.111966 z"
         id="path315" />
      <path
         d="M 77.916984,13.207489 Q 77.675139,13.04178 77.563173,12.755148 l 0.344854,-0.156752 q 0.08957,0.214974 0.25976,0.32694 0.179145,0.116444 0.380683,0.116444 0.219453,0 0.376205,-0.08957 0.156751,-0.08957 0.156751,-0.255282 0,-0.147794 -0.125401,-0.237367 -0.116444,-0.08509 -0.38964,-0.152273 l -0.286632,-0.07614 q -0.277675,-0.06718 -0.45682,-0.232888 -0.179145,-0.165709 -0.179145,-0.425469 0,-0.19706 0.120923,-0.353812 0.125402,-0.156751 0.322461,-0.237367 0.214974,-0.08509 0.438905,-0.08509 0.304546,0 0.546392,0.134358 0.237367,0.12988 0.340375,0.371726 l -0.335896,0.156752 q -0.156752,-0.313504 -0.55535,-0.313504 -0.188102,0 -0.340375,0.08957 -0.143316,0.08509 -0.143316,0.228409 0,0.125402 0.103008,0.206017 0.103009,0.08062 0.300068,0.134359 l 0.340376,0.08509 q 0.349332,0.08957 0.51952,0.25976 0.174666,0.174666 0.174666,0.42099 0,0.210496 -0.125401,0.376205 -0.120923,0.16123 -0.335897,0.250803 -0.201538,0.08509 -0.465777,0.08509 -0.376204,0 -0.631486,-0.174666 z"
         id="path317" />
    </g>
    <path
       d="M 6.0941176,3.0100001 A 0.74572495,0.74572499 0 0 0 5.566725,3.2283232 L 3.0917461,5.70413 A 0.74572495,0.74572499 0 0 0 2.873,6.2311075 V 9.731876 c 0,0.1980272 0.078714,0.387777 0.2187461,0.527807 L 5.566725,12.73466 A 0.74572495,0.74572499 0 0 0 6.0941176,12.953 h 3.5007653 a 0.74572495,0.74572499 0 0 0 0.5273921,-0.21834 l 2.475394,-2.474977 A 0.74572495,0.74572499 0 0 0 12.816,9.731876 V 6.2311075 A 0.74572495,0.74572499 0 0 0 12.597669,5.70413 L 10.122275,3.2283232 A 0.74572495,0.74572499 0 0 0 9.5948829,3.0100001 Z M 7.928187,4.2528748 c 0.4225775,0 0.3968921,0.4590378 0.3968921,0.4590378 v 2.8105521 c 0,0 -0.00378,0.090344 0.066282,0.090344 0.077884,0 0.072497,-0.093637 0.072497,-0.093637 L 8.463031,5.1867184 c 0,0 -0.020719,-0.4084928 0.3973051,-0.4084928 0.4184343,0 0.4018631,0.4072556 0.4018631,0.4072556 v 3.1573191 c 0,0 0.0058,0.065452 0.058421,0.065452 0.052612,0 0.3910928,-0.8791376 0.3910928,-0.8791376 0,0 0.1868451,-0.6201893 1.067214,-0.4557156 0.01574,0.00324 -0.06918,0.2850405 -0.06918,0.2850405 L 9.7639208,10.074524 c 0,0 -0.3906788,1.511335 -2.0379015,1.511335 -2.0896867,0 -1.9919145,-2.2400723 -1.9944001,-2.2392399 V 6.1429046 c 0,0 -0.00657,-0.4101489 0.3716194,-0.4101489 0.3554628,0 0.3517334,0.4101489 0.3517334,0.4101489 l 0.00298,1.4844046 c 0,0 -0.00172,0.071248 0.069178,0.071248 0.066281,0 0.058421,-0.071248 0.058421,-0.071248 L 6.589601,5.172219 c 0,0 -0.022782,-0.4814135 0.4002067,-0.4814135 0.4308645,0 0.407248,0.4731301 0.407248,0.4731301 V 7.488517 c 0,0 -0.00205,0.084554 0.062977,0.084554 0.069601,0 0.063808,-0.085338 0.063808,-0.085338 l 0.00405,-2.7728605 c 0,0 -0.023205,-0.4619348 0.400207,-0.4619348 z"
       id="path10556"
       style="fill:url(#linearGradient10934);fill-opacity:1;stroke-width:0.414292" />
  </g>
</svg>
