<?xml version="1.0" encoding="UTF-8" standalone="no"?>
<!-- Created with Inkscape (http://www.inkscape.org/) -->

<svg
   width="350"
   height="60"
   viewBox="0 0 92.604167 15.875"
   version="1.1"
   id="svg5"
   inkscape:version="1.2.1 (9c6d41e410, 2022-07-14)"
   sodipodi:docname="lightweight-dark.svg"
   xmlns:inkscape="http://www.inkscape.org/namespaces/inkscape"
   xmlns:sodipodi="http://sodipodi.sourceforge.net/DTD/sodipodi-0.dtd"
   xmlns:xlink="http://www.w3.org/1999/xlink"
   xmlns="http://www.w3.org/2000/svg"
   xmlns:svg="http://www.w3.org/2000/svg">
  <sodipodi:namedview
     id="namedview7"
     pagecolor="#ffffff"
     bordercolor="#000000"
     borderopacity="0.25"
     inkscape:showpageshadow="2"
     inkscape:pageopacity="0.0"
     inkscape:pagecheckerboard="0"
     inkscape:deskcolor="#d1d1d1"
     inkscape:document-units="mm"
     showgrid="false"
     inkscape:zoom="2.9006173"
     inkscape:cx="141.00447"
     inkscape:cy="21.37476"
     inkscape:window-width="1366"
     inkscape:window-height="697"
     inkscape:window-x="-8"
     inkscape:window-y="-8"
     inkscape:window-maximized="1"
     inkscape:current-layer="layer1" />
  <defs
     id="defs2">
    <linearGradient
       inkscape:collect="always"
       xlink:href="#linearGradient7989"
       id="linearGradient7991"
       x1="31.799999"
       y1="474.89999"
       x2="918"
       y2="474.89999"
       gradientUnits="userSpaceOnUse" />
    <linearGradient
       inkscape:collect="always"
       id="linearGradient7989">
      <stop
         style="stop-color:#697be2;stop-opacity:1;"
         offset="0"
         id="stop7985" />
      <stop
         style="stop-color:#9255f1;stop-opacity:1;"
         offset="1"
         id="stop7987" />
    </linearGradient>
    <linearGradient
       inkscape:collect="always"
       xlink:href="#linearGradient7989"
       id="linearGradient17891"
       gradientUnits="userSpaceOnUse"
       x1="31.799999"
       y1="474.89999"
       x2="918"
       y2="474.89999" />
    <linearGradient
       inkscape:collect="always"
       xlink:href="#linearGradient7989"
       id="linearGradient17893"
       gradientUnits="userSpaceOnUse"
       x1="31.799999"
       y1="474.89999"
       x2="918"
       y2="474.89999" />
    <linearGradient
       inkscape:collect="always"
       xlink:href="#linearGradient7989"
       id="linearGradient17895"
       gradientUnits="userSpaceOnUse"
       x1="31.799999"
       y1="474.89999"
       x2="918"
       y2="474.89999" />
    <linearGradient
       inkscape:collect="always"
       xlink:href="#linearGradient7989"
       id="linearGradient17897"
       gradientUnits="userSpaceOnUse"
       x1="31.799999"
       y1="474.89999"
       x2="918"
       y2="474.89999" />
    <linearGradient
       inkscape:collect="always"
       xlink:href="#linearGradient7989"
       id="linearGradient17899"
       gradientUnits="userSpaceOnUse"
       x1="31.799999"
       y1="474.89999"
       x2="918"
       y2="474.89999" />
    <linearGradient
       inkscape:collect="always"
       xlink:href="#linearGradient7989"
       id="linearGradient17901"
       gradientUnits="userSpaceOnUse"
       x1="31.799999"
       y1="474.89999"
       x2="918"
       y2="474.89999" />
    <linearGradient
       inkscape:collect="always"
       xlink:href="#linearGradient7989"
       id="linearGradient17903"
       gradientUnits="userSpaceOnUse"
       x1="31.799999"
       y1="474.89999"
       x2="918"
       y2="474.89999" />
    <linearGradient
       inkscape:collect="always"
       xlink:href="#linearGradient7989"
       id="linearGradient17905"
       gradientUnits="userSpaceOnUse"
       x1="31.799999"
       y1="474.89999"
       x2="918"
       y2="474.89999" />
    <linearGradient
       inkscape:collect="always"
       xlink:href="#linearGradient7989"
       id="linearGradient17907"
       gradientUnits="userSpaceOnUse"
       x1="31.799999"
       y1="474.89999"
       x2="918"
       y2="474.89999" />
    <linearGradient
       inkscape:collect="always"
       xlink:href="#linearGradient7989"
       id="linearGradient17909"
       gradientUnits="userSpaceOnUse"
       x1="31.799999"
       y1="474.89999"
       x2="918"
       y2="474.89999" />
    <linearGradient
       inkscape:collect="always"
       xlink:href="#linearGradient7989"
       id="linearGradient17911"
       gradientUnits="userSpaceOnUse"
       x1="31.799999"
       y1="474.89999"
       x2="918"
       y2="474.89999" />
    <linearGradient
       inkscape:collect="always"
       xlink:href="#linearGradient7989"
       id="linearGradient17913"
       gradientUnits="userSpaceOnUse"
       x1="31.799999"
       y1="474.89999"
       x2="918"
       y2="474.89999" />
    <linearGradient
       inkscape:collect="always"
       xlink:href="#linearGradient7989"
       id="linearGradient17915"
       gradientUnits="userSpaceOnUse"
       x1="31.799999"
       y1="474.89999"
       x2="918"
       y2="474.89999" />
    <linearGradient
       inkscape:collect="always"
       xlink:href="#linearGradient7989"
       id="linearGradient17917"
       gradientUnits="userSpaceOnUse"
       x1="31.799999"
       y1="474.89999"
       x2="918"
       y2="474.89999" />
    <linearGradient
       inkscape:collect="always"
       xlink:href="#linearGradient7989"
       id="linearGradient17919"
       gradientUnits="userSpaceOnUse"
       x1="31.799999"
       y1="474.89999"
       x2="918"
       y2="474.89999" />
    <linearGradient
       inkscape:collect="always"
       xlink:href="#linearGradient7989"
       id="linearGradient17921"
       gradientUnits="userSpaceOnUse"
       x1="31.799999"
       y1="474.89999"
       x2="918"
       y2="474.89999" />
    <linearGradient
       inkscape:collect="always"
       xlink:href="#linearGradient7989"
       id="linearGradient17923"
       gradientUnits="userSpaceOnUse"
       x1="31.799999"
       y1="474.89999"
       x2="918"
       y2="474.89999" />
    <linearGradient
       inkscape:collect="always"
       xlink:href="#linearGradient7989"
       id="linearGradient17925"
       gradientUnits="userSpaceOnUse"
       x1="31.799999"
       y1="474.89999"
       x2="918"
       y2="474.89999" />
    <linearGradient
       inkscape:collect="always"
       xlink:href="#linearGradient7989"
       id="linearGradient17927"
       gradientUnits="userSpaceOnUse"
       x1="31.799999"
       y1="474.89999"
       x2="918"
       y2="474.89999" />
    <linearGradient
       inkscape:collect="always"
       xlink:href="#linearGradient7989"
       id="linearGradient17929"
       gradientUnits="userSpaceOnUse"
       x1="31.799999"
       y1="474.89999"
       x2="918"
       y2="474.89999" />
  </defs>
  <g
     inkscape:label="Layer 1"
     inkscape:groupmode="layer"
     id="layer1">
    <g
       aria-label="Lightweight and fast
Less is more"
       id="text1058"
       style="font-size:4.58611px;font-family:'Google Sans';-inkscape-font-specification:'Google Sans';fill:#ffffff;stroke:#000000;stroke-width:0;stroke-linecap:square"
       inkscape:transform-center-x="-3.4662162"
       inkscape:transform-center-y="-2.0067568">
      <path
         d="m 15.875307,1.6533928 h 0.599447 v 4.478627 h 2.204863 v 0.5718863 h -2.80431 z"
         style="font-size:7.05556px"
         id="path281" />
      <path
         d="m 19.699366,2.4457653 q -0.172255,0 -0.303169,-0.1309137 -0.130914,-0.1309137 -0.130914,-0.3031686 0,-0.1791451 0.130914,-0.3100588 0.117133,-0.1171333 0.303169,-0.1171333 0.186035,0 0.303168,0.1171333 0.124024,0.1240235 0.124024,0.3100588 0,0.1791451 -0.124024,0.3031686 -0.130913,0.1309137 -0.303168,0.1309137 z M 19.403087,3.107224 h 0.599447 v 3.5966821 h -0.599447 z"
         style="font-size:7.05556px"
         id="path283" />
      <path
         d="M 21.435695,8.0474942 Q 21.022283,7.7512158 20.877589,7.3309138 l 0.551216,-0.2342666 q 0.117133,0.316949 0.392741,0.5098745 0.275608,0.1929254 0.661459,0.1929254 0.551215,0 0.861274,-0.3238392 0.310059,-0.3169489 0.310059,-0.9232861 V 6.1526904 h -0.02756 Q 23.454522,6.421408 23.130683,6.6005531 22.813734,6.772808 22.400322,6.772808 q -0.468533,0 -0.854384,-0.2411568 -0.378961,-0.2342667 -0.606337,-0.668349 -0.227376,-0.4340823 -0.227376,-0.9784077 0,-0.5443255 0.227376,-0.9784078 0.234267,-0.4409725 0.606337,-0.6752391 0.385851,-0.2411569 0.854384,-0.2411569 0.413412,0 0.730361,0.1722549 0.316949,0.1722549 0.496094,0.4616431 h 0.02756 V 3.107224 h 0.571886 v 3.4588782 q 0,0.8612744 -0.482313,1.3229175 -0.475424,0.4547529 -1.260906,0.4547529 -0.640788,0 -1.04731,-0.2962784 z m 1.632976,-1.9774861 q 0.268718,-0.1653647 0.427192,-0.4685333 0.158475,-0.3031686 0.158475,-0.7165803 0,-0.4271921 -0.158475,-0.7303607 Q 23.337389,3.844475 23.068671,3.6928907 22.793064,3.5344162 22.483005,3.5344162 q -0.323839,0 -0.592557,0.1653647 -0.275608,0.1722548 -0.427192,0.461643 -0.158475,0.3031686 -0.158475,0.7234706 0,0.4065215 0.158475,0.7234705 0.151584,0.3031686 0.427192,0.4616431 0.275608,0.1584745 0.592557,0.1584745 0.330729,0 0.585666,-0.1584745 z"
         style="font-size:7.05556px"
         id="path285" />
      <path
         d="m 25.11506,1.6533928 h 0.599447 V 3.141675 l -0.03445,0.4960941 h 0.03445 q 0.137804,-0.2687176 0.468533,-0.4616431 0.316949,-0.1860353 0.7028,-0.1860353 0.654569,0 0.999078,0.385851 0.34451,0.3858509 0.34451,1.0197489 v 2.3082155 h -0.599447 v -2.218643 q 0,-0.4823136 -0.248047,-0.7165803 -0.241157,-0.2342666 -0.640788,-0.2342666 -0.268718,0 -0.516765,0.1722549 -0.234266,0.1653646 -0.37207,0.4340823 -0.137804,0.2756078 -0.137804,0.5581058 V 6.7039061 H 25.11506 Z"
         style="font-size:7.05556px"
         id="path287" />
      <path
         d="M 29.883075,6.6901257 Q 29.690149,6.6143335 29.573016,6.4972002 29.290518,6.2284826 29.290518,5.7599493 V 3.6515495 H 28.66351 V 3.107224 h 0.627008 V 2.0874751 h 0.599447 V 3.107224 H 30.77191 V 3.6515495 H 29.889965 V 5.608365 q 0,0.3031686 0.110243,0.4409725 0.130914,0.1515843 0.392741,0.1515843 0.227377,0 0.392741,-0.1171333 v 0.5856666 q -0.09646,0.048231 -0.213596,0.068902 -0.110243,0.020671 -0.282498,0.020671 -0.227376,0 -0.406521,-0.068902 z"
         style="font-size:7.05556px"
         id="path289" />
      <path
         d="m 31.192211,3.107224 h 0.620118 l 0.854384,2.8387606 h 0.0069 L 33.583109,3.107224 h 0.613228 l 0.909505,2.8318704 h 0.01378 L 35.967117,3.107224 h 0.606337 L 35.415901,6.7039061 H 34.802674 L 33.872497,3.8306946 32.949211,6.7039061 h -0.599447 z"
         style="font-size:7.05556px"
         id="path291" />
      <path
         d="M 37.675885,6.5729923 Q 37.262473,6.3249453 37.035097,5.890863 36.80772,5.4567807 36.80772,4.9124552 q 0,-0.5236548 0.213596,-0.9577371 0.220487,-0.4478627 0.613228,-0.7027999 0.406521,-0.2618275 0.916396,-0.2618275 0.516764,0 0.916396,0.2411569 0.385851,0.2342666 0.592556,0.6476783 0.213597,0.4271922 0.213597,0.9577372 0,0.041341 -0.01378,0.1791451 h -2.852541 q 0.02067,0.4134117 0.199816,0.6959097 0.172255,0.2687176 0.447863,0.4203019 0.268717,0.1446941 0.564996,0.1446941 0.7028,0 1.06798,-0.6545685 l 0.502984,0.248047 q -0.227376,0.4340823 -0.627008,0.6890196 -0.399631,0.2549372 -0.964627,0.2549372 -0.523655,0 -0.923286,-0.2411569 z M 39.6327,4.5266043 Q 39.62581,4.2992279 39.508677,4.0718514 39.398434,3.8513652 39.157277,3.6928907 38.91612,3.5344162 38.55094,3.5344162 q -0.413412,0 -0.723471,0.2756078 -0.289388,0.2618274 -0.385851,0.7165803 z"
         style="font-size:7.05556px"
         id="path293" />
      <path
         d="m 41.320799,2.4457653 q -0.172254,0 -0.303168,-0.1309137 -0.130914,-0.1309137 -0.130914,-0.3031686 0,-0.1791451 0.130914,-0.3100588 0.117133,-0.1171333 0.303168,-0.1171333 0.186036,0 0.303169,0.1171333 0.124024,0.1240235 0.124024,0.3100588 0,0.1791451 -0.124024,0.3031686 -0.130914,0.1309137 -0.303169,0.1309137 z M 41.024521,3.107224 h 0.599447 v 3.5966821 h -0.599447 z"
         style="font-size:7.05556px"
         id="path295" />
      <path
         d="M 43.057129,8.0474942 Q 42.643717,7.7512158 42.499023,7.3309138 l 0.551216,-0.2342666 q 0.117133,0.316949 0.392741,0.5098745 0.275608,0.1929254 0.661459,0.1929254 0.551215,0 0.861274,-0.3238392 0.310059,-0.3169489 0.310059,-0.9232861 V 6.1526904 h -0.02756 Q 45.075956,6.421408 44.752117,6.6005531 44.435168,6.772808 44.021756,6.772808 q -0.468533,0 -0.854384,-0.2411568 -0.378961,-0.2342667 -0.606337,-0.668349 -0.227377,-0.4340823 -0.227377,-0.9784077 0,-0.5443255 0.227377,-0.9784078 0.234266,-0.4409725 0.606337,-0.6752391 0.385851,-0.2411569 0.854384,-0.2411569 0.413412,0 0.730361,0.1722549 0.316949,0.1722549 0.496094,0.4616431 h 0.02756 V 3.107224 h 0.571886 v 3.4588782 q 0,0.8612744 -0.482314,1.3229175 -0.475423,0.4547529 -1.260905,0.4547529 -0.640789,0 -1.04731,-0.2962784 z m 1.632976,-1.9774861 q 0.268718,-0.1653647 0.427192,-0.4685333 0.158475,-0.3031686 0.158475,-0.7165803 0,-0.4271921 -0.158475,-0.7303607 Q 44.958823,3.844475 44.690105,3.6928907 44.414497,3.5344162 44.104439,3.5344162 q -0.32384,0 -0.592557,0.1653647 -0.275608,0.1722548 -0.427192,0.461643 -0.158475,0.3031686 -0.158475,0.7234706 0,0.4065215 0.158475,0.7234705 0.151584,0.3031686 0.427192,0.4616431 0.275608,0.1584745 0.592557,0.1584745 0.330729,0 0.585666,-0.1584745 z"
         style="font-size:7.05556px"
         id="path297" />
      <path
         d="M 46.736493,1.6533928 H 47.33594 V 3.141675 l -0.03445,0.4960941 h 0.03445 q 0.137804,-0.2687176 0.468533,-0.4616431 0.316949,-0.1860353 0.7028,-0.1860353 0.654569,0 0.999079,0.385851 0.34451,0.3858509 0.34451,1.0197489 v 2.3082155 h -0.599447 v -2.218643 q 0,-0.4823136 -0.248048,-0.7165803 -0.241156,-0.2342666 -0.640788,-0.2342666 -0.268717,0 -0.516764,0.1722549 -0.234267,0.1653646 -0.372071,0.4340823 -0.137804,0.2756078 -0.137804,0.5581058 v 2.0050469 h -0.599447 z"
         style="font-size:7.05556px"
         id="path299" />
      <path
         d="M 51.504506,6.6901257 Q 51.311581,6.6143335 51.194447,6.4972002 50.911949,6.2284826 50.911949,5.7599493 V 3.6515495 H 50.284942 V 3.107224 h 0.627007 V 2.0874751 h 0.599447 V 3.107224 h 0.881945 V 3.6515495 H 51.511396 V 5.608365 q 0,0.3031686 0.110244,0.4409725 0.130913,0.1515843 0.392741,0.1515843 0.227376,0 0.392741,-0.1171333 v 0.5856666 q -0.09646,0.048231 -0.213596,0.068902 -0.110243,0.020671 -0.282498,0.020671 -0.227377,0 -0.406522,-0.068902 z"
         style="font-size:7.05556px"
         id="path301" />
      <path
         d="M 52.662061,6.7039061 Z"
         style="font-size:7.05556px"
         id="path303" />
      <path
         d="M 55.183872,6.6625649 Q 54.866923,6.5040904 54.701559,6.2353728 54.536194,5.9666551 54.536194,5.6152552 q 0,-0.5718862 0.427192,-0.8888352 0.440973,-0.3238392 1.088651,-0.3238392 0.33762,0 0.606337,0.068902 0.275608,0.068902 0.420302,0.1653647 V 4.4163612 q 0,-0.3927412 -0.275608,-0.6407882 -0.275607,-0.248047 -0.71658,-0.248047 -0.296278,0 -0.551216,0.1309137 Q 55.266555,3.7962436 55.128751,4.02362 L 54.673998,3.6860005 q 0.206706,-0.316949 0.585667,-0.5098745 0.37207,-0.1860353 0.826823,-0.1860353 0.730361,0 1.150663,0.385851 0.413411,0.3789607 0.413411,1.0473097 V 6.7039061 H 57.078676 V 6.1871414 h -0.02756 q -0.158474,0.2687176 -0.461643,0.4478627 -0.296278,0.1791451 -0.7028,0.1791451 -0.399631,0 -0.7028,-0.1515843 z M 56.51368,6.1320198 Q 56.775508,5.9735453 56.927092,5.7186081 57.078676,5.4636709 57.078676,5.1467219 56.913312,5.0364788 56.665264,4.9606866 56.430998,4.8917847 56.14161,4.8917847 q -0.496094,0 -0.744141,0.2067058 -0.248047,0.2067059 -0.248047,0.5236549 0,0.2962784 0.227376,0.4823137 0.227376,0.1860352 0.571886,0.1860352 0.303169,0 0.564996,-0.1584745 z"
         style="font-size:7.05556px"
         id="path305" />
      <path
         d="m 58.484275,3.107224 h 0.564996 v 0.5305451 h 0.03445 q 0.144694,-0.2687176 0.468533,-0.4547529 0.33073,-0.1929255 0.69591,-0.1929255 0.647678,0 0.985298,0.3789608 0.34451,0.3858509 0.34451,1.0266391 v 2.3082155 h -0.599447 v -2.218643 q 0,-0.496094 -0.241157,-0.7234705 -0.234267,-0.2273764 -0.654569,-0.2273764 -0.289388,0 -0.516764,0.1653647 -0.241157,0.179145 -0.358291,0.4271921 -0.124023,0.2687176 -0.124023,0.5512156 v 2.0257175 h -0.599447 z"
         style="font-size:7.05556px"
         id="path307" />
      <path
         d="M 63.086928,6.5729923 Q 62.701077,6.3318355 62.473701,5.890863 62.246325,5.4567807 62.246325,4.9055651 q 0,-0.5443255 0.227376,-0.9784078 0.234267,-0.4478627 0.613227,-0.6890195 0.392742,-0.2480471 0.881945,-0.2480471 0.399632,0 0.730361,0.1929255 0.33762,0.1998157 0.496094,0.4616431 h 0.02756 L 65.195328,3.141675 V 1.6533928 h 0.599447 V 6.7039061 H 65.222889 V 6.173361 h -0.02756 q -0.158474,0.2618274 -0.496094,0.4547529 -0.323839,0.1860353 -0.730361,0.1860353 -0.502984,0 -0.881945,-0.2411569 z m 1.529624,-0.4685332 q 0.275608,-0.1653647 0.440972,-0.4823137 0.165365,-0.3100588 0.165365,-0.7165803 0,-0.4134118 -0.165365,-0.7234706 Q 64.89216,3.8789259 64.616552,3.7066711 64.334054,3.5344162 64.030885,3.5344162 q -0.296278,0 -0.585666,0.1722549 -0.268718,0.1584744 -0.440973,0.4823136 -0.165365,0.3100588 -0.165365,0.7165804 0,0.4065215 0.165365,0.7165803 0.172255,0.3238392 0.440973,0.4823137 0.289388,0.1722548 0.585666,0.1722548 0.303169,0 0.585667,-0.1722548 z"
         style="font-size:7.05556px"
         id="path309" />
      <path
         d="M 66.235745,6.7039061 Z"
         style="font-size:7.05556px"
         id="path311" />
      <path
         d="M 68.592194,3.6515495 H 67.930736 V 3.107224 h 0.661458 V 2.7144829 q 0,-0.3376196 0.151585,-0.5925568 0.144694,-0.2411568 0.420301,-0.3858509 0.261828,-0.1378039 0.578777,-0.1378039 0.303168,0 0.530545,0.082682 v 0.5856666 q -0.117133,-0.048231 -0.241157,-0.082682 -0.103353,-0.027561 -0.268718,-0.027561 -0.234266,0 -0.399631,0.1653647 -0.172255,0.1722549 -0.172255,0.4616431 V 3.107224 h 0.923286 v 0.5443255 h -0.923286 v 3.0523566 h -0.599447 z"
         style="font-size:7.05556px"
         id="path313" />
      <path
         d="M 71.155346,6.6625649 Q 70.838397,6.5040904 70.673032,6.2353728 70.507668,5.9666551 70.507668,5.6152552 q 0,-0.5718862 0.427192,-0.8888352 0.440972,-0.3238392 1.088651,-0.3238392 0.337619,0 0.606337,0.068902 0.275608,0.068902 0.420302,0.1653647 V 4.4163612 q 0,-0.3927412 -0.275608,-0.6407882 -0.275608,-0.248047 -0.71658,-0.248047 -0.296279,0 -0.551216,0.1309137 Q 71.238029,3.7962436 71.100225,4.02362 L 70.645472,3.6860005 q 0.206706,-0.316949 0.585666,-0.5098745 0.372071,-0.1860353 0.826824,-0.1860353 0.73036,0 1.150662,0.385851 0.413412,0.3789607 0.413412,1.0473097 V 6.7039061 H 73.05015 V 6.1871414 h -0.02756 q -0.158474,0.2687176 -0.461643,0.4478627 -0.296278,0.1791451 -0.7028,0.1791451 -0.399631,0 -0.7028,-0.1515843 z M 72.485154,6.1320198 Q 72.746981,5.9735453 72.898566,5.7186081 73.05015,5.4636709 73.05015,5.1467219 72.884785,5.0364788 72.636738,4.9606866 q -0.234266,-0.068902 -0.523655,-0.068902 -0.496094,0 -0.744141,0.2067058 -0.248047,0.2067059 -0.248047,0.5236549 0,0.2962784 0.227377,0.4823137 0.227376,0.1860352 0.571886,0.1860352 0.303168,0 0.564996,-0.1584745 z"
         style="font-size:7.05556px"
         id="path315" />
      <path
         d="M 74.703796,6.5454316 Q 74.331726,6.2904943 74.159471,5.8495218 L 74.690016,5.608365 q 0.137804,0.3307294 0.399631,0.5029843 0.275608,0.179145 0.585667,0.179145 0.337619,0 0.578776,-0.1378039 0.241157,-0.1378039 0.241157,-0.3927411 0,-0.2273765 -0.192926,-0.3651804 Q 76.123176,5.2638552 75.702874,5.1605023 L 75.261902,5.043369 Q 74.83471,4.940016 74.559102,4.6850788 74.283494,4.4301416 74.283494,4.0305102 q 0,-0.3031686 0.186035,-0.5443254 0.192926,-0.2411568 0.496095,-0.3651804 0.330729,-0.1309137 0.675239,-0.1309137 0.468533,0 0.840604,0.2067059 0.36518,0.1998157 0.523654,0.5718862 L 76.488357,4.0098396 Q 76.2472,3.527526 75.633972,3.527526 q -0.289388,0 -0.523654,0.1378039 -0.220487,0.1309137 -0.220487,0.3513999 0,0.1929255 0.158475,0.316949 0.158474,0.1240236 0.461643,0.2067059 l 0.523655,0.1309137 q 0.537435,0.1378039 0.799263,0.3996313 0.268717,0.2687177 0.268717,0.6476784 0,0.3238392 -0.192925,0.5787764 -0.186036,0.2480471 -0.516765,0.385851 -0.310059,0.1309137 -0.71658,0.1309137 -0.578777,0 -0.971518,-0.2687176 z"
         style="font-size:7.05556px"
         id="path317" />
      <path
         d="M 78.693219,6.6901257 Q 78.500294,6.6143335 78.38316,6.4972002 78.100662,6.2284826 78.100662,5.7599493 V 3.6515495 H 77.473655 V 3.107224 h 0.627007 V 2.0874751 h 0.599447 V 3.107224 h 0.881945 V 3.6515495 H 78.700109 V 5.608365 q 0,0.3031686 0.110244,0.4409725 0.130913,0.1515843 0.392741,0.1515843 0.227376,0 0.392741,-0.1171333 v 0.5856666 q -0.09646,0.048231 -0.213596,0.068902 -0.110243,0.020671 -0.282498,0.020671 -0.227377,0 -0.406522,-0.068902 z"
         style="font-size:7.05556px"
         id="path319" />
      <path
         d="m 15.677558,10.027667 h 0.389641 v 2.911105 h 1.433159 v 0.371725 h -1.8228 z"
         id="path321" />
      <path
         d="M 18.319946,13.225404 Q 18.051229,13.064173 17.903434,12.78202 17.75564,12.499867 17.75564,12.146055 q 0,-0.340375 0.138837,-0.622528 0.143316,-0.291111 0.398597,-0.45682 0.264239,-0.170187 0.595657,-0.170187 0.335897,0 0.595657,0.156751 0.250803,0.152274 0.385162,0.420991 0.138837,0.277675 0.138837,0.622529 0,0.02687 -0.009,0.116444 h -1.85415 q 0.01344,0.268717 0.12988,0.452341 0.111965,0.174666 0.29111,0.273196 0.174667,0.09405 0.367247,0.09405 0.45682,0 0.694187,-0.425469 l 0.32694,0.16123 q -0.147795,0.282153 -0.407555,0.447862 -0.25976,0.165709 -0.627007,0.165709 -0.340376,0 -0.600136,-0.156751 z m 1.271929,-1.330151 q -0.0045,-0.147795 -0.08062,-0.29559 -0.07166,-0.143315 -0.22841,-0.246324 -0.156752,-0.103008 -0.394119,-0.103008 -0.268717,0 -0.470255,0.179145 -0.188102,0.170187 -0.250803,0.465777 z"
         id="path323" />
      <path
         d="M 20.666745,13.207489 Q 20.424899,13.04178 20.312934,12.755148 l 0.344854,-0.156752 q 0.08957,0.214974 0.25976,0.32694 0.179145,0.116444 0.380683,0.116444 0.219452,0 0.376204,-0.08957 0.156752,-0.08957 0.156752,-0.255282 0,-0.147794 -0.125401,-0.237367 -0.116445,-0.08509 -0.389641,-0.152273 l -0.286632,-0.07614 q -0.277674,-0.06718 -0.456819,-0.232888 -0.179145,-0.165709 -0.179145,-0.425469 0,-0.19706 0.120923,-0.353812 0.125401,-0.156751 0.322461,-0.237367 0.214974,-0.08509 0.438905,-0.08509 0.304546,0 0.546392,0.134358 0.237367,0.12988 0.340375,0.371726 l -0.335897,0.156752 q -0.156751,-0.313504 -0.555349,-0.313504 -0.188102,0 -0.340375,0.08957 -0.143316,0.08509 -0.143316,0.228409 0,0.125402 0.103008,0.206017 0.103008,0.08062 0.300068,0.134359 l 0.340375,0.08509 q 0.349333,0.08957 0.51952,0.25976 0.174667,0.174666 0.174667,0.42099 0,0.210496 -0.125402,0.376205 -0.120922,0.16123 -0.335896,0.250803 -0.201538,0.08509 -0.465777,0.08509 -0.376205,0 -0.631486,-0.174666 z"
         id="path325" />
      <path
         d="M 22.834398,13.207489 Q 22.592552,13.04178 22.480587,12.755148 l 0.344854,-0.156752 q 0.08957,0.214974 0.25976,0.32694 0.179145,0.116444 0.380683,0.116444 0.219452,0 0.376204,-0.08957 0.156752,-0.08957 0.156752,-0.255282 0,-0.147794 -0.125401,-0.237367 -0.116445,-0.08509 -0.389641,-0.152273 l -0.286632,-0.07614 q -0.277674,-0.06718 -0.456819,-0.232888 -0.179145,-0.165709 -0.179145,-0.425469 0,-0.19706 0.120923,-0.353812 0.125401,-0.156751 0.322461,-0.237367 0.214974,-0.08509 0.438905,-0.08509 0.304546,0 0.546392,0.134358 0.237367,0.12988 0.340375,0.371726 l -0.335897,0.156752 q -0.156751,-0.313504 -0.555349,-0.313504 -0.188102,0 -0.340375,0.08957 -0.143316,0.08509 -0.143316,0.228409 0,0.125402 0.103008,0.206017 0.103009,0.08062 0.300068,0.134359 l 0.340375,0.08509 q 0.349333,0.08957 0.519521,0.25976 0.174666,0.174666 0.174666,0.42099 0,0.210496 -0.125402,0.376205 -0.120922,0.16123 -0.335896,0.250803 -0.201538,0.08509 -0.465777,0.08509 -0.376204,0 -0.631486,-0.174666 z"
         id="path327" />
      <path
         d="M 24.527318,13.310497 Z"
         id="path329" />
      <path
         d="m 26.108272,10.542708 q -0.111965,0 -0.197059,-0.08509 -0.08509,-0.08509 -0.08509,-0.19706 0,-0.116444 0.08509,-0.201538 0.07614,-0.076137 0.197059,-0.076137 0.120923,0 0.197059,0.076137 0.08062,0.08061 0.08062,0.201538 0,0.116444 -0.08062,0.19706 -0.08509,0.08509 -0.197059,0.08509 z m -0.192581,0.429948 h 0.38964 v 2.337841 h -0.38964 z"
         id="path331" />
      <path
         d="M 27.098047,13.207489 Q 26.856201,13.04178 26.744236,12.755148 l 0.344854,-0.156752 q 0.08957,0.214974 0.25976,0.32694 0.179145,0.116444 0.380683,0.116444 0.219452,0 0.376204,-0.08957 0.156752,-0.08957 0.156752,-0.255282 0,-0.147794 -0.125401,-0.237367 -0.116445,-0.08509 -0.389641,-0.152273 l -0.286632,-0.07614 q -0.277674,-0.06718 -0.456819,-0.232888 -0.179145,-0.165709 -0.179145,-0.425469 0,-0.19706 0.120923,-0.353812 0.125401,-0.156751 0.322461,-0.237367 0.214974,-0.08509 0.438905,-0.08509 0.304546,0 0.546392,0.134358 0.237367,0.12988 0.340375,0.371726 l -0.335897,0.156752 q -0.156751,-0.313504 -0.555349,-0.313504 -0.188102,0 -0.340375,0.08957 -0.143316,0.08509 -0.143316,0.228409 0,0.125402 0.103008,0.206017 0.103008,0.08062 0.300068,0.134359 l 0.340375,0.08509 q 0.349333,0.08957 0.519521,0.25976 0.174666,0.174666 0.174666,0.42099 0,0.210496 -0.125402,0.376205 -0.120922,0.16123 -0.335896,0.250803 -0.201538,0.08509 -0.465777,0.08509 -0.376204,0 -0.631486,-0.174666 z"
         id="path333" />
      <path
         d="M 28.790967,13.310497 Z"
         id="path335" />
      <path
         d="m 30.143511,10.972656 h 0.367247 v 0.344854 h 0.02239 q 0.09853,-0.179145 0.300068,-0.300068 0.201538,-0.120922 0.425469,-0.120922 0.250803,0 0.447863,0.125401 0.192581,0.125402 0.273196,0.331418 0.120923,-0.206016 0.326939,-0.331418 0.210496,-0.125401 0.474734,-0.125401 0.407555,0 0.609093,0.246324 0.206017,0.255281 0.206017,0.667315 v 1.500338 h -0.385162 v -1.442116 q 0,-0.322461 -0.134359,-0.470256 -0.134358,-0.147794 -0.394118,-0.147794 -0.174667,0 -0.317983,0.103008 -0.143316,0.103009 -0.223931,0.268718 -0.07614,0.156751 -0.07614,0.367247 v 1.321193 H 31.6752 v -1.437638 q 0,-0.326939 -0.134358,-0.474734 -0.134359,-0.147794 -0.389641,-0.147794 -0.174666,0 -0.317982,0.103008 -0.143316,0.103009 -0.223931,0.277675 -0.07614,0.165709 -0.07614,0.367247 v 1.312236 h -0.38964 z"
         id="path337" />
      <path
         d="m 34.617655,13.220925 q -0.273196,-0.165709 -0.429948,-0.452341 -0.152273,-0.277675 -0.152273,-0.627007 0,-0.349333 0.152273,-0.627007 0.156752,-0.286632 0.429948,-0.452341 0.273196,-0.165709 0.61805,-0.165709 0.344854,0 0.61805,0.165709 0.273196,0.165709 0.429948,0.452341 0.152273,0.277674 0.152273,0.627007 0,0.349332 -0.152273,0.627007 -0.156752,0.286632 -0.429948,0.452341 -0.264238,0.16123 -0.61805,0.16123 -0.353811,0 -0.61805,-0.16123 z m 1.021126,-0.300068 q 0.179145,-0.103008 0.29559,-0.309025 0.111965,-0.197059 0.111965,-0.470255 0,-0.277675 -0.111965,-0.474734 -0.116445,-0.206017 -0.29559,-0.309025 -0.188102,-0.107487 -0.403076,-0.107487 -0.214974,0 -0.403076,0.107487 -0.183623,0.107487 -0.300068,0.309025 -0.111965,0.197059 -0.111965,0.474734 0,0.273196 0.111965,0.470255 0.116445,0.201538 0.300068,0.309025 0.19706,0.111966 0.403076,0.111966 0.206017,0 0.403076,-0.111966 z"
         id="path339" />
      <path
         d="m 36.84801,10.972656 h 0.367247 v 0.376205 h 0.02239 q 0.0627,-0.188103 0.264239,-0.317983 0.197059,-0.12988 0.412033,-0.12988 0.156752,0 0.277675,0.04927 v 0.420991 q -0.152274,-0.07614 -0.331419,-0.07614 -0.165709,0 -0.313503,0.09853 -0.138838,0.08957 -0.22841,0.25976 -0.08061,0.147794 -0.08061,0.349333 v 1.307757 h -0.38964 z"
         id="path341" />
      <path
         d="m 38.867868,13.225404 q -0.268717,-0.161231 -0.416512,-0.443384 -0.147794,-0.282153 -0.147794,-0.635965 0,-0.340375 0.138837,-0.622528 0.143316,-0.291111 0.398598,-0.45682 0.264238,-0.170187 0.595656,-0.170187 0.335897,0 0.595657,0.156751 0.250803,0.152274 0.385162,0.420991 0.138837,0.277675 0.138837,0.622529 0,0.02687 -0.009,0.116444 h -1.85415 q 0.01344,0.268717 0.12988,0.452341 0.111966,0.174666 0.291111,0.273196 0.174666,0.09405 0.367247,0.09405 0.456819,0 0.694186,-0.425469 l 0.32694,0.16123 q -0.147795,0.282153 -0.407555,0.447862 -0.25976,0.165709 -0.627007,0.165709 -0.340376,0 -0.600136,-0.156751 z m 1.271929,-1.330151 q -0.0045,-0.147795 -0.08062,-0.29559 -0.07166,-0.143315 -0.22841,-0.246324 -0.156752,-0.103008 -0.394119,-0.103008 -0.268717,0 -0.470255,0.179145 -0.188102,0.170187 -0.250803,0.465777 z"
         id="path343" />
    </g>
    <g
       id="g25904"
       transform="matrix(0.01121981,0,0,0.01046852,2.5162099,3.01)"
       style="fill:url(#linearGradient7991);fill-opacity:1">
      <g
         id="g25847"
         style="fill:url(#linearGradient17899);fill-opacity:1">
        <g
           id="g25845"
           style="fill:url(#linearGradient17897);fill-opacity:1">
          <path
             d="M 81.8,949.8 H 868 c 27.602,0 50,-22.4 50,-50 v -180 c 0,-27.6 -22.398,-50 -50,-50 H 81.8 c -27.6,0 -50,22.4 -50,50 v 180 c 0,27.599 22.4,50 50,50 z m 80.5,-179.901 c 22.1,0 40,17.9 40,40 0,22.101 -17.9,40 -40,40 -22.1,0 -40,-17.899 -40,-40 0,-22.099 17.9,-40 40,-40 z"
             id="path25839"
             style="fill:url(#linearGradient17891);fill-opacity:1" />
          <path
             d="M 81.8,614.899 H 868 c 27.602,0 50,-22.399 50,-50 v -180 c 0,-27.6 -22.398,-50 -50,-50 H 81.8 c -27.6,0 -50,22.4 -50,50 v 180 c 0,27.601 22.4,50 50,50 z M 162.3,435 c 22.1,0 40,17.899 40,40 0,22.1 -17.9,40 -40,40 -22.1,0 -40,-17.9 -40,-40 0,-22.101 17.9,-40 40,-40 z"
             id="path25841"
             style="fill:url(#linearGradient17893);fill-opacity:1" />
          <path
             d="M 81.8,280 H 868 c 27.602,0 50,-22.4 50,-50 V 50 C 918,22.4 895.602,0 868,0 H 81.8 c -27.6,0 -50,22.4 -50,50 v 180 c 0,27.6 22.4,50 50,50 z m 80.5,-179.9 c 22.1,0 40,17.9 40,40 0,22.1 -17.9,40 -40,40 -22.1,0 -40,-17.9 -40,-40 0,-22.1 17.9,-40 40,-40 z"
             id="path25843"
             style="fill:url(#linearGradient17895);fill-opacity:1" />
        </g>
      </g>
      <g
         id="g25849"
         style="fill:url(#linearGradient17901);fill-opacity:1" />
      <g
         id="g25851"
         style="fill:url(#linearGradient17903);fill-opacity:1" />
      <g
         id="g25853"
         style="fill:url(#linearGradient17905);fill-opacity:1" />
      <g
         id="g25855"
         style="fill:url(#linearGradient17907);fill-opacity:1" />
      <g
         id="g25857"
         style="fill:url(#linearGradient17909);fill-opacity:1" />
      <g
         id="g25859"
         style="fill:url(#linearGradient17911);fill-opacity:1" />
      <g
         id="g25861"
         style="fill:url(#linearGradient17913);fill-opacity:1" />
      <g
         id="g25863"
         style="fill:url(#linearGradient17915);fill-opacity:1" />
      <g
         id="g25865"
         style="fill:url(#linearGradient17917);fill-opacity:1" />
      <g
         id="g25867"
         style="fill:url(#linearGradient17919);fill-opacity:1" />
      <g
         id="g25869"
         style="fill:url(#linearGradient17921);fill-opacity:1" />
      <g
         id="g25871"
         style="fill:url(#linearGradient17923);fill-opacity:1" />
      <g
         id="g25873"
         style="fill:url(#linearGradient17925);fill-opacity:1" />
      <g
         id="g25875"
         style="fill:url(#linearGradient17927);fill-opacity:1" />
      <g
         id="g25877"
         style="fill:url(#linearGradient17929);fill-opacity:1" />
    </g>
  </g>
</svg>
