<?xml version="1.0" encoding="UTF-8" standalone="no"?>
<!-- Created with Inkscape (http://www.inkscape.org/) -->

<svg
   width="468"
   height="60"
   viewBox="0 0 123.825 15.875"
   version="1.1"
   id="svg9296"
   inkscape:version="1.2.1 (9c6d41e410, 2022-07-14)"
   sodipodi:docname="lightweight-light.svg"
   xmlns:inkscape="http://www.inkscape.org/namespaces/inkscape"
   xmlns:sodipodi="http://sodipodi.sourceforge.net/DTD/sodipodi-0.dtd"
   xmlns:xlink="http://www.w3.org/1999/xlink"
   xmlns="http://www.w3.org/2000/svg"
   xmlns:svg="http://www.w3.org/2000/svg">
  <sodipodi:namedview
     id="namedview9298"
     pagecolor="#ffffff"
     bordercolor="#000000"
     borderopacity="0.25"
     inkscape:showpageshadow="2"
     inkscape:pageopacity="0.0"
     inkscape:pagecheckerboard="0"
     inkscape:deskcolor="#d1d1d1"
     inkscape:document-units="mm"
     showgrid="false"
     inkscape:zoom="2.0510461"
     inkscape:cx="173.81374"
     inkscape:cy="-26.571806"
     inkscape:window-width="1920"
     inkscape:window-height="1001"
     inkscape:window-x="-9"
     inkscape:window-y="-9"
     inkscape:window-maximized="1"
     inkscape:current-layer="layer1" />
  <defs
     id="defs9293">
    <linearGradient
       inkscape:collect="always"
       xlink:href="#linearGradient7989"
       id="linearGradient7991"
       x1="31.799999"
       y1="474.89999"
       x2="918"
       y2="474.89999"
       gradientUnits="userSpaceOnUse" />
    <linearGradient
       inkscape:collect="always"
       id="linearGradient7989">
      <stop
         style="stop-color:#697be2;stop-opacity:1;"
         offset="0"
         id="stop7985" />
      <stop
         style="stop-color:#9255f1;stop-opacity:1;"
         offset="1"
         id="stop7987" />
    </linearGradient>
    <linearGradient
       inkscape:collect="always"
       xlink:href="#linearGradient7989"
       id="linearGradient22689"
       gradientUnits="userSpaceOnUse"
       x1="31.799999"
       y1="474.89999"
       x2="918"
       y2="474.89999" />
    <linearGradient
       inkscape:collect="always"
       xlink:href="#linearGradient7989"
       id="linearGradient22691"
       gradientUnits="userSpaceOnUse"
       x1="31.799999"
       y1="474.89999"
       x2="918"
       y2="474.89999" />
    <linearGradient
       inkscape:collect="always"
       xlink:href="#linearGradient7989"
       id="linearGradient22693"
       gradientUnits="userSpaceOnUse"
       x1="31.799999"
       y1="474.89999"
       x2="918"
       y2="474.89999" />
    <linearGradient
       inkscape:collect="always"
       xlink:href="#linearGradient7989"
       id="linearGradient22695"
       gradientUnits="userSpaceOnUse"
       x1="31.799999"
       y1="474.89999"
       x2="918"
       y2="474.89999" />
    <linearGradient
       inkscape:collect="always"
       xlink:href="#linearGradient7989"
       id="linearGradient22697"
       gradientUnits="userSpaceOnUse"
       x1="31.799999"
       y1="474.89999"
       x2="918"
       y2="474.89999" />
    <linearGradient
       inkscape:collect="always"
       xlink:href="#linearGradient7989"
       id="linearGradient22699"
       gradientUnits="userSpaceOnUse"
       x1="31.799999"
       y1="474.89999"
       x2="918"
       y2="474.89999" />
    <linearGradient
       inkscape:collect="always"
       xlink:href="#linearGradient7989"
       id="linearGradient22701"
       gradientUnits="userSpaceOnUse"
       x1="31.799999"
       y1="474.89999"
       x2="918"
       y2="474.89999" />
    <linearGradient
       inkscape:collect="always"
       xlink:href="#linearGradient7989"
       id="linearGradient22703"
       gradientUnits="userSpaceOnUse"
       x1="31.799999"
       y1="474.89999"
       x2="918"
       y2="474.89999" />
    <linearGradient
       inkscape:collect="always"
       xlink:href="#linearGradient7989"
       id="linearGradient22705"
       gradientUnits="userSpaceOnUse"
       x1="31.799999"
       y1="474.89999"
       x2="918"
       y2="474.89999" />
    <linearGradient
       inkscape:collect="always"
       xlink:href="#linearGradient7989"
       id="linearGradient22707"
       gradientUnits="userSpaceOnUse"
       x1="31.799999"
       y1="474.89999"
       x2="918"
       y2="474.89999" />
    <linearGradient
       inkscape:collect="always"
       xlink:href="#linearGradient7989"
       id="linearGradient22709"
       gradientUnits="userSpaceOnUse"
       x1="31.799999"
       y1="474.89999"
       x2="918"
       y2="474.89999" />
    <linearGradient
       inkscape:collect="always"
       xlink:href="#linearGradient7989"
       id="linearGradient22711"
       gradientUnits="userSpaceOnUse"
       x1="31.799999"
       y1="474.89999"
       x2="918"
       y2="474.89999" />
    <linearGradient
       inkscape:collect="always"
       xlink:href="#linearGradient7989"
       id="linearGradient22713"
       gradientUnits="userSpaceOnUse"
       x1="31.799999"
       y1="474.89999"
       x2="918"
       y2="474.89999" />
    <linearGradient
       inkscape:collect="always"
       xlink:href="#linearGradient7989"
       id="linearGradient22715"
       gradientUnits="userSpaceOnUse"
       x1="31.799999"
       y1="474.89999"
       x2="918"
       y2="474.89999" />
    <linearGradient
       inkscape:collect="always"
       xlink:href="#linearGradient7989"
       id="linearGradient22717"
       gradientUnits="userSpaceOnUse"
       x1="31.799999"
       y1="474.89999"
       x2="918"
       y2="474.89999" />
    <linearGradient
       inkscape:collect="always"
       xlink:href="#linearGradient7989"
       id="linearGradient22719"
       gradientUnits="userSpaceOnUse"
       x1="31.799999"
       y1="474.89999"
       x2="918"
       y2="474.89999" />
    <linearGradient
       inkscape:collect="always"
       xlink:href="#linearGradient7989"
       id="linearGradient22721"
       gradientUnits="userSpaceOnUse"
       x1="31.799999"
       y1="474.89999"
       x2="918"
       y2="474.89999" />
    <linearGradient
       inkscape:collect="always"
       xlink:href="#linearGradient7989"
       id="linearGradient22723"
       gradientUnits="userSpaceOnUse"
       x1="31.799999"
       y1="474.89999"
       x2="918"
       y2="474.89999" />
    <linearGradient
       inkscape:collect="always"
       xlink:href="#linearGradient7989"
       id="linearGradient22725"
       gradientUnits="userSpaceOnUse"
       x1="31.799999"
       y1="474.89999"
       x2="918"
       y2="474.89999" />
    <linearGradient
       inkscape:collect="always"
       xlink:href="#linearGradient7989"
       id="linearGradient22727"
       gradientUnits="userSpaceOnUse"
       x1="31.799999"
       y1="474.89999"
       x2="918"
       y2="474.89999" />
  </defs>
  <g
     inkscape:label="Layer 1"
     inkscape:groupmode="layer"
     id="layer1">
    <g
       id="g25904"
       transform="matrix(0.01178418,0,0,0.01178418,2.5422373,2.7429629)"
       style="fill:url(#linearGradient7991);fill-opacity:1">
      <g
         id="g25847"
         style="fill:url(#linearGradient22697);fill-opacity:1">
        <g
           id="g25845"
           style="fill:url(#linearGradient22695);fill-opacity:1">
          <path
             d="M 81.8,949.8 H 868 c 27.602,0 50,-22.4 50,-50 v -180 c 0,-27.6 -22.398,-50 -50,-50 H 81.8 c -27.6,0 -50,22.4 -50,50 v 180 c 0,27.599 22.4,50 50,50 z m 80.5,-179.901 c 22.1,0 40,17.9 40,40 0,22.101 -17.9,40 -40,40 -22.1,0 -40,-17.899 -40,-40 0,-22.099 17.9,-40 40,-40 z"
             id="path25839"
             style="fill:url(#linearGradient22689);fill-opacity:1" />
          <path
             d="M 81.8,614.899 H 868 c 27.602,0 50,-22.399 50,-50 v -180 c 0,-27.6 -22.398,-50 -50,-50 H 81.8 c -27.6,0 -50,22.4 -50,50 v 180 c 0,27.601 22.4,50 50,50 z M 162.3,435 c 22.1,0 40,17.899 40,40 0,22.1 -17.9,40 -40,40 -22.1,0 -40,-17.9 -40,-40 0,-22.101 17.9,-40 40,-40 z"
             id="path25841"
             style="fill:url(#linearGradient22691);fill-opacity:1" />
          <path
             d="M 81.8,280 H 868 c 27.602,0 50,-22.4 50,-50 V 50 C 918,22.4 895.602,0 868,0 H 81.8 c -27.6,0 -50,22.4 -50,50 v 180 c 0,27.6 22.4,50 50,50 z m 80.5,-179.9 c 22.1,0 40,17.9 40,40 0,22.1 -17.9,40 -40,40 -22.1,0 -40,-17.9 -40,-40 0,-22.1 17.9,-40 40,-40 z"
             id="path25843"
             style="fill:url(#linearGradient22693);fill-opacity:1" />
        </g>
      </g>
      <g
         id="g25849"
         style="fill:url(#linearGradient22699);fill-opacity:1" />
      <g
         id="g25851"
         style="fill:url(#linearGradient22701);fill-opacity:1" />
      <g
         id="g25853"
         style="fill:url(#linearGradient22703);fill-opacity:1" />
      <g
         id="g25855"
         style="fill:url(#linearGradient22705);fill-opacity:1" />
      <g
         id="g25857"
         style="fill:url(#linearGradient22707);fill-opacity:1" />
      <g
         id="g25859"
         style="fill:url(#linearGradient22709);fill-opacity:1" />
      <g
         id="g25861"
         style="fill:url(#linearGradient22711);fill-opacity:1" />
      <g
         id="g25863"
         style="fill:url(#linearGradient22713);fill-opacity:1" />
      <g
         id="g25865"
         style="fill:url(#linearGradient22715);fill-opacity:1" />
      <g
         id="g25867"
         style="fill:url(#linearGradient22717);fill-opacity:1" />
      <g
         id="g25869"
         style="fill:url(#linearGradient22719);fill-opacity:1" />
      <g
         id="g25871"
         style="fill:url(#linearGradient22721);fill-opacity:1" />
      <g
         id="g25873"
         style="fill:url(#linearGradient22723);fill-opacity:1" />
      <g
         id="g25875"
         style="fill:url(#linearGradient22725);fill-opacity:1" />
      <g
         id="g25877"
         style="fill:url(#linearGradient22727);fill-opacity:1" />
    </g>
    <g
       aria-label="Lightweight and Fast  "
       transform="matrix(0.11988907,0,0,0.11988907,-10.413518,-38.201515)"
       id="text29271"
       style="font-size:46.6667px;font-family:'Google Sans';-inkscape-font-specification:'Google Sans';white-space:pre;shape-inside:url(#rect29273);fill:#000000;stroke:#000000;stroke-width:0;stroke-linecap:square">
      <path
         d="m 234.24935,333.32389 h 5.6 v 42.33335 h 20.93335 v 5.40001 h -26.53335 z"
         style="font-size:66.6667px;fill:#000000"
         id="path31573" />
      <path
         d="m 270.38276,340.79056 q -1.66667,0 -2.86667,-1.2 -1.2,-1.2 -1.2,-2.86667 0,-1.66667 1.2,-2.8 1.2,-1.2 2.86667,-1.2 1.66666,0 2.86666,1.2 1.2,1.13333 1.2,2.8 0,1.66667 -1.2,2.86667 -1.13333,1.2 -2.86666,1.2 z m -2.80001,6.26667 h 5.60001 v 34.00002 h -5.60001 z"
         style="font-size:66.6667px;fill:#000000"
         id="path31575" />
      <path
         d="m 296.71615,396.52392 q -6,0 -9.93334,-2.8 -3.86667,-2.8 -5.2,-6.73334 l 5.13333,-2.2 q 1.13334,2.93334 3.73334,4.73334 2.66667,1.86666 6.26667,1.86666 5.26667,0 8.13334,-3.06666 2.93333,-3.06667 2.93333,-8.66668 v -3.8 h -0.26667 q -1.66666,2.6 -4.73333,4.26667 -3,1.6 -6.86667,1.6 -4.4,0 -8.06667,-2.26667 -3.6,-2.26666 -5.73334,-6.33333 -2.13333,-4.06667 -2.13333,-9.26667 0,-5.13334 2.13333,-9.20001 2.13334,-4.13333 5.73334,-6.4 3.66667,-2.26667 8.06667,-2.26667 3.86667,0 6.86667,1.66667 3.06667,1.6 4.73333,4.26667 h 0.26667 v -4.86667 h 5.4 v 32.66668 q 0,8.20001 -4.53333,12.46667 -4.53334,4.33334 -11.93334,4.33334 z m 0,-19.93334 q 3.06667,0 5.53334,-1.53334 2.53333,-1.53333 4,-4.4 1.53333,-2.86667 1.53333,-6.8 0,-4.00001 -1.53333,-6.86667 -1.46667,-2.86667 -4,-4.33334 -2.46667,-1.53333 -5.53334,-1.53333 -3.06667,0 -5.6,1.53333 -2.53334,1.53333 -4.06667,4.4 -1.46667,2.86667 -1.46667,6.80001 0,3.93333 1.46667,6.86667 1.53333,2.86666 4.06667,4.4 2.53333,1.46667 5.6,1.46667 z"
         style="font-size:66.6667px;fill:#000000"
         id="path31577" />
      <path
         d="m 321.58284,333.32389 h 5.66667 v 14.06667 l -0.26667,4.66667 h 0.26667 q 1.4,-2.6 4.4,-4.33334 3.06667,-1.73333 6.66667,-1.73333 6.2,0 9.46667,3.66667 3.26667,3.6 3.26667,9.6 v 21.80002 h -5.66667 V 360.1239 q 0,-4.6 -2.33333,-6.8 -2.33334,-2.2 -6.06667,-2.2 -2.66667,0 -4.93334,1.6 -2.2,1.6 -3.53334,4.13333 -1.26666,2.53334 -1.26666,5.26667 v 18.93335 h -5.66667 z"
         style="font-size:66.6667px;fill:#000000"
         id="path31579" />
      <path
         d="m 370.58283,381.59058 q -2.06667,0 -3.86667,-0.66667 -1.73333,-0.66666 -2.93333,-1.8 -1.33334,-1.26667 -2,-2.93333 -0.66667,-1.66667 -0.66667,-4.06667 v -19.93335 h -5.93334 v -5.13333 h 5.93334 v -9.60001 h 5.66667 v 9.60001 h 8.26667 v 5.13333 h -8.26667 v 18.53335 q 0,2.8 1.06667,4.13333 1.26666,1.46667 3.66666,1.46667 1.93334,0 3.73334,-1.13333 v 5.53333 q -1,0.46667 -2.06667,0.66667 -1,0.2 -2.6,0.2 z"
         style="font-size:66.6667px;fill:#000000"
         id="path31581" />
      <path
         d="m 379.18275,347.05723 h 5.8 l 8.13334,26.86668 h 0.0667 l 8.53334,-26.86668 h 5.86667 l 8.60001,26.80001 h 0.0667 l 8.06667,-26.80001 h 5.73334 l -11.00001,34.00002 h -5.73333 l -8.80001,-27.13335 -8.73333,27.13335 h -5.66667 z"
         style="font-size:66.6667px;fill:#000000"
         id="path31583" />
      <path
         d="m 449.1828,382.12391 q -4.86667,0 -8.73334,-2.33333 -3.86667,-2.33334 -6.06667,-6.40001 -2.13333,-4.13333 -2.13333,-9.26667 0,-4.93333 2,-9.06667 2.06667,-4.13333 5.8,-6.6 3.73334,-2.46667 8.66667,-2.46667 5.00001,0 8.66667,2.26667 3.66667,2.2 5.60001,6.13333 2,3.93334 2,9.00001 0,1 -0.2,1.73333 h -26.86668 q 0.2,3.86667 1.86667,6.53334 1.66666,2.66667 4.2,4 2.6,1.33334 5.4,1.33334 6.53334,0 10.06667,-6.13334 l 4.80001,2.33333 q -2.20001,4.13334 -6.00001,6.53334 -3.73333,2.4 -9.06667,2.4 z m 9.80001,-21.66668 q -0.13334,-2.13333 -1.2,-4.26666 -1.06667,-2.13334 -3.40001,-3.60001 -2.26666,-1.46666 -5.73333,-1.46666 -4.00001,0 -6.80001,2.6 -2.73333,2.53333 -3.6,6.73333 z"
         style="font-size:66.6667px;fill:#000000"
         id="path31585" />
      <path
         d="m 474.91612,340.79056 q -1.66667,0 -2.86667,-1.2 -1.2,-1.2 -1.2,-2.86667 0,-1.66667 1.2,-2.8 1.2,-1.2 2.86667,-1.2 1.66667,0 2.86667,1.2 1.2,1.13333 1.2,2.8 0,1.66667 -1.2,2.86667 -1.13334,1.2 -2.86667,1.2 z m -2.8,6.26667 h 5.6 v 34.00002 h -5.6 z"
         style="font-size:66.6667px;fill:#000000"
         id="path31587" />
      <path
         d="m 501.24952,396.52392 q -6,0 -9.93333,-2.8 -3.86667,-2.8 -5.20001,-6.73334 l 5.13334,-2.2 q 1.13333,2.93334 3.73333,4.73334 2.66667,1.86666 6.26667,1.86666 5.26667,0 8.13334,-3.06666 2.93334,-3.06667 2.93334,-8.66668 v -3.8 h -0.26667 q -1.66667,2.6 -4.73334,4.26667 -3,1.6 -6.86667,1.6 -4.4,0 -8.06667,-2.26667 -3.6,-2.26666 -5.73333,-6.33333 -2.13334,-4.06667 -2.13334,-9.26667 0,-5.13334 2.13334,-9.20001 2.13333,-4.13333 5.73333,-6.4 3.66667,-2.26667 8.06667,-2.26667 3.86667,0 6.86667,1.66667 3.06667,1.6 4.73334,4.26667 h 0.26667 v -4.86667 h 5.4 v 32.66668 q 0,8.20001 -4.53334,12.46667 -4.53333,4.33334 -11.93334,4.33334 z m 0,-19.93334 q 3.06667,0 5.53334,-1.53334 2.53333,-1.53333 4,-4.4 1.53334,-2.86667 1.53334,-6.8 0,-4.00001 -1.53334,-6.86667 -1.46667,-2.86667 -4,-4.33334 -2.46667,-1.53333 -5.53334,-1.53333 -3.06666,0 -5.6,1.53333 -2.53333,1.53333 -4.06667,4.4 -1.46667,2.86667 -1.46667,6.80001 0,3.93333 1.46667,6.86667 1.53334,2.86666 4.06667,4.4 2.53334,1.46667 5.6,1.46667 z"
         style="font-size:66.6667px;fill:#000000"
         id="path31589" />
      <path
         d="m 526.1162,333.32389 h 5.66667 v 14.06667 l -0.26667,4.66667 h 0.26667 q 1.4,-2.6 4.4,-4.33334 3.06667,-1.73333 6.66667,-1.73333 6.20001,0 9.46667,3.66667 3.26667,3.6 3.26667,9.6 v 21.80002 h -5.66667 V 360.1239 q 0,-4.6 -2.33333,-6.8 -2.33334,-2.2 -6.06667,-2.2 -2.66667,0 -4.93334,1.6 -2.2,1.6 -3.53333,4.13333 -1.26667,2.53334 -1.26667,5.26667 v 18.93335 h -5.66667 z"
         style="font-size:66.6667px;fill:#000000"
         id="path31591" />
      <path
         d="m 575.11619,381.59058 q -2.06666,0 -3.86667,-0.66667 -1.73333,-0.66666 -2.93333,-1.8 -1.33333,-1.26667 -2,-2.93333 -0.66667,-1.66667 -0.66667,-4.06667 v -19.93335 h -5.93333 v -5.13333 h 5.93333 v -9.60001 h 5.66667 v 9.60001 h 8.26667 v 5.13333 h -8.26667 v 18.53335 q 0,2.8 1.06667,4.13333 1.26667,1.46667 3.66667,1.46667 1.93333,0 3.73333,-1.13333 v 5.53333 q -1,0.46667 -2.06666,0.66667 -1.00001,0.2 -2.60001,0.2 z"
         style="font-size:66.6667px;fill:#000000"
         id="path31593" />
      <path
         d="m 612.78286,382.12391 q -3.73333,0 -6.66667,-1.46666 -2.93333,-1.46667 -4.53333,-4.00001 -1.60001,-2.6 -1.60001,-5.86667 0,-5.4 4.06667,-8.4 4.06667,-3.06667 10.26668,-3.06667 3.06666,0 5.66667,0.66667 2.66666,0.66666 4.06666,1.53333 v -2.06667 q 0,-3.8 -2.66666,-6.06667 -2.66667,-2.33333 -6.73334,-2.33333 -2.86667,0 -5.26667,1.26667 -2.4,1.2 -3.8,3.4 l -4.26667,-3.2 q 2,-3.06667 5.46667,-4.80001 3.53333,-1.73333 7.8,-1.73333 6.93334,0 10.86667,3.66667 4.00001,3.6 4.00001,9.86667 v 21.53335 h -5.40001 v -4.86667 h -0.26666 q -1.46667,2.46666 -4.40001,4.2 -2.93333,1.73333 -6.6,1.73333 z m 0.53333,-5 q 2.86667,0 5.33334,-1.46667 2.46667,-1.46666 3.93334,-3.93333 1.46666,-2.46667 1.46666,-5.40001 -1.6,-1.06666 -3.93333,-1.73333 -2.33334,-0.66667 -4.93334,-0.66667 -4.66667,0 -7.06667,1.93334 -2.33333,1.93333 -2.33333,5 0,2.8 2.13333,4.53334 2.13334,1.73333 5.4,1.73333 z"
         style="font-size:66.6667px;fill:#000000"
         id="path31595" />
      <path
         d="m 637.31621,347.05723 h 5.40001 v 5 h 0.26666 q 1.4,-2.53333 4.46667,-4.26667 3.06667,-1.8 6.53334,-1.8 6.13334,0 9.33334,3.6 3.26667,3.53334 3.26667,9.66667 v 21.80002 h -5.66667 V 360.1239 q 0,-4.73333 -2.26667,-6.86667 -2.26667,-2.13333 -6.20001,-2.13333 -2.73333,0 -4.93333,1.53333 -2.13334,1.53333 -3.33334,4.06667 -1.2,2.46667 -1.2,5.2 v 19.13335 h -5.66667 z"
         style="font-size:66.6667px;fill:#000000"
         id="path31597" />
      <path
         d="m 689.11631,382.12391 q -4.53334,0 -8.26667,-2.33333 -3.66667,-2.33334 -5.80001,-6.40001 -2.13333,-4.13333 -2.13333,-9.33333 0,-5.13334 2.13333,-9.26668 2.13334,-4.13333 5.80001,-6.46667 3.73333,-2.33333 8.26667,-2.33333 3.93333,0 7,1.8 3.06667,1.73334 4.66667,4.33334 h 0.26667 l -0.26667,-4.73334 v -14.06667 h 5.66667 v 47.73336 h -5.4 v -5.00001 h -0.26667 q -1.6,2.53334 -4.66667,4.33334 -3.06667,1.73333 -7,1.73333 z m 0.66666,-5.13333 q 3,0 5.53334,-1.6 2.6,-1.60001 4.13334,-4.53334 1.6,-2.93333 1.6,-6.8 0,-3.86667 -1.6,-6.80001 -1.53334,-2.93333 -4.13334,-4.53333 -2.53334,-1.6 -5.53334,-1.6 -2.93333,0 -5.53333,1.6 -2.6,1.6 -4.20001,4.6 -1.53333,2.93333 -1.53333,6.73334 0,3.8 1.53333,6.8 1.60001,2.93333 4.20001,4.53334 2.6,1.6 5.53333,1.6 z"
         style="font-size:66.6667px;fill:#000000"
         id="path31599" />
      <path
         d="m 731.44964,333.32389 h 27.60001 v 5.4 h -22.00001 v 16.33334 h 19.86668 v 5.33334 h -19.86668 v 20.66668 h -5.6 z"
         style="font-size:66.6667px;fill:#000000"
         id="path31601" />
      <path
         d="m 775.24966,382.12391 q -3.73334,0 -6.66667,-1.46666 -2.93334,-1.46667 -4.53334,-4.00001 -1.6,-2.6 -1.6,-5.86667 0,-5.4 4.06667,-8.4 4.06667,-3.06667 10.26667,-3.06667 3.06667,0 5.66667,0.66667 2.66667,0.66666 4.06667,1.53333 v -2.06667 q 0,-3.8 -2.66667,-6.06667 -2.66667,-2.33333 -6.73333,-2.33333 -2.86667,0 -5.26667,1.26667 -2.4,1.2 -3.80001,3.4 l -4.26666,-3.2 q 2,-3.06667 5.46666,-4.80001 3.53334,-1.73333 7.80001,-1.73333 6.93334,0 10.86667,3.66667 4,3.6 4,9.86667 v 21.53335 h -5.4 v -4.86667 h -0.26667 q -1.46666,2.46666 -4.4,4.2 -2.93333,1.73333 -6.6,1.73333 z m 0.53333,-5 q 2.86667,0 5.33334,-1.46667 2.46667,-1.46666 3.93333,-3.93333 1.46667,-2.46667 1.46667,-5.40001 -1.6,-1.06666 -3.93333,-1.73333 -2.33334,-0.66667 -4.93334,-0.66667 -4.66667,0 -7.06667,1.93334 -2.33334,1.93333 -2.33334,5 0,2.8 2.13334,4.53334 2.13333,1.73333 5.4,1.73333 z"
         style="font-size:66.6667px;fill:#000000"
         id="path31603" />
      <path
         d="m 811.31637,382.12391 q -5.46667,0 -9.13334,-2.53333 -3.66667,-2.6 -5.2,-6.60001 l 5.06667,-2.26666 q 1.26667,3.06666 3.73333,4.73333 2.53334,1.66667 5.53334,1.66667 3.2,0 5.46667,-1.26667 2.26667,-1.33333 2.26667,-3.73333 0,-2.13334 -1.8,-3.4 -1.8,-1.33334 -5.66667,-2.26667 l -4.13334,-1.06667 q -4.06667,-1 -6.66667,-3.4 -2.6,-2.4 -2.6,-6.2 0,-2.93334 1.73333,-5.13334 1.8,-2.26667 4.73334,-3.46667 2.93333,-1.2 6.33334,-1.2 4.46667,0 7.93333,1.93333 3.53334,1.93334 5.00001,5.40001 l -4.93334,2.26667 q -2.26667,-4.53334 -8.06667,-4.53334 -2.8,0 -4.93334,1.33333 -2.06666,1.26667 -2.06666,3.26667 0,1.86667 1.46666,3.06667 1.46667,1.13333 4.40001,1.86667 l 4.93333,1.26667 q 5,1.26666 7.53334,3.8 2.53333,2.46667 2.53333,6.06667 0,3.13333 -1.8,5.53333 -1.8,2.33334 -4.86667,3.60001 -3.06666,1.26666 -6.8,1.26666 z"
         style="font-size:66.6667px;fill:#000000"
         id="path31605" />
      <path
         d="m 843.71644,381.59058 q -2.06666,0 -3.86666,-0.66667 -1.73334,-0.66666 -2.93334,-1.8 -1.33333,-1.26667 -2,-2.93333 -0.66667,-1.66667 -0.66667,-4.06667 v -19.93335 h -5.93333 v -5.13333 h 5.93333 v -9.60001 h 5.66667 v 9.60001 h 8.26667 v 5.13333 h -8.26667 v 18.53335 q 0,2.8 1.06667,4.13333 1.26667,1.46667 3.66667,1.46667 1.93333,0 3.73333,-1.13333 v 5.53333 q -1,0.46667 -2.06666,0.66667 -1.00001,0.2 -2.60001,0.2 z"
         style="font-size:66.6667px;fill:#000000"
         id="path31607" />
    </g>
    <g
       aria-label="Just 5MB APK size"
       id="text31461"
       style="font-size:10.5833px;font-family:'Google Sans';-inkscape-font-specification:'Google Sans';fill:#000000;stroke:#000000;stroke-width:0;stroke-linecap:square"
       transform="matrix(0.45312407,0,0,0.45312407,-6.4456208,-70.44068)">
      <path
         d="m 55.154621,186.98014 q -0.83608,0 -1.460495,-0.45508 -0.624415,-0.46567 -0.878414,-1.30175 l 0.846664,-0.34925 q 0.380999,1.24883 1.492245,1.24883 0.624415,0 0.994831,-0.43391 0.380998,-0.43392 0.380998,-1.143 v -5.31282 h 0.899581 v 5.23874 q 0,0.79374 -0.296333,1.36524 -0.285749,0.56092 -0.80433,0.85725 -0.507999,0.28575 -1.174747,0.28575 z"
         id="path31463"
         style="fill:#000000" />
      <path
         d="m 60.668525,186.98014 q -0.973663,0 -1.492245,-0.5715 -0.507998,-0.5715 -0.507998,-1.59808 v -3.39724 h 0.89958 v 3.25966 q 0,0.77258 0.349249,1.13241 0.349249,0.35983 0.941914,0.35983 0.455082,0 0.804331,-0.24341 0.359832,-0.24342 0.550331,-0.635 0.201083,-0.39158 0.201083,-0.8255 v -3.04799 h 0.89958 v 5.39749 h -0.857247 v -0.78317 h -0.04233 q -0.222249,0.40217 -0.709081,0.67733 -0.486832,0.27517 -1.037164,0.27517 z"
         id="path31465"
         style="fill:#000000" />
      <path
         d="m 66.478775,186.98014 q -0.867831,0 -1.449912,-0.40217 -0.582082,-0.41275 -0.825497,-1.04774 l 0.80433,-0.35984 q 0.201083,0.48684 0.592665,0.75142 0.402165,0.26458 0.878414,0.26458 0.507998,0 0.867831,-0.20108 0.359832,-0.21167 0.359832,-0.59267 0,-0.33866 -0.285749,-0.53974 -0.285749,-0.21167 -0.899581,-0.35984 l -0.656164,-0.16933 q -0.645582,-0.15875 -1.05833,-0.53975 -0.412749,-0.381 -0.412749,-0.98424 0,-0.46567 0.275166,-0.81492 0.285749,-0.35983 0.751414,-0.55033 0.465665,-0.1905 1.005413,-0.1905 0.709082,0 1.259413,0.30692 0.560915,0.30691 0.793748,0.85724 l -0.783165,0.35984 q -0.359832,-0.71967 -1.280579,-0.71967 -0.444498,0 -0.783164,0.21167 -0.328082,0.20108 -0.328082,0.51858 0,0.29633 0.232832,0.48683 0.232833,0.17992 0.698498,0.29633 l 0.783164,0.20109 q 0.793748,0.20108 1.195913,0.60324 0.402166,0.39159 0.402166,0.96308 0,0.49742 -0.28575,0.87842 -0.285749,0.37041 -0.77258,0.5715 -0.486832,0.20108 -1.079497,0.20108 z"
         id="path31467"
         style="fill:#000000" />
      <path
         d="m 71.622262,186.89547 q -0.328082,0 -0.613831,-0.10583 -0.275166,-0.10583 -0.465666,-0.28575 -0.211666,-0.20108 -0.317499,-0.46566 -0.105833,-0.26459 -0.105833,-0.64559 v -3.1644 H 69.17752 v -0.81492 h 0.941913 v -1.52399 h 0.899581 v 1.52399 h 1.312329 v 0.81492 h -1.312329 v 2.94215 q 0,0.4445 0.169333,0.65617 0.201082,0.23283 0.582081,0.23283 0.306916,0 0.592665,-0.17991 v 0.87841 q -0.158749,0.0741 -0.328082,0.10583 -0.15875,0.0317 -0.412749,0.0317 z"
         id="path31469"
         style="fill:#000000" />
      <path
         d="m 78.109821,186.98014 q -0.507998,0 -1.005413,-0.21167 -0.497415,-0.22225 -0.878414,-0.65616 -0.380999,-0.4445 -0.539748,-1.09008 l 0.793747,-0.3175 q 0.15875,0.64558 0.582082,1.03716 0.433915,0.381 1.02658,0.381 0.709081,0 1.153579,-0.43391 0.444499,-0.43392 0.444499,-1.13242 0,-0.68791 -0.444499,-1.13241 -0.433915,-0.45508 -1.132413,-0.45508 -0.380999,0 -0.719664,0.17991 -0.338666,0.16934 -0.550332,0.47625 l -0.920747,-0.40216 0.476249,-3.65124 h 3.746488 v 0.85725 h -3.005657 l -0.285749,2.19074 0.04233,0.0106 q 0.560915,-0.47625 1.375829,-0.47625 0.624414,0 1.153579,0.30692 0.539749,0.30692 0.857248,0.85725 0.317499,0.55033 0.317499,1.22766 0,0.67733 -0.328083,1.23825 -0.317499,0.55033 -0.888997,0.87841 -0.571498,0.3175 -1.269996,0.3175 z"
         id="path31471"
         style="fill:#000000" />
      <path
         d="m 82.015056,179.23316 h 1.301746 l 2.412992,6.2124 h 0.04233 l 2.412992,-6.2124 h 1.301746 v 7.57765 h -0.888997 v -4.81541 l 0.04233,-1.43932 h -0.04233 l -2.476493,6.25473 h -0.740831 l -2.476492,-6.25473 h -0.04233 l 0.04233,1.43932 v 4.81541 h -0.888997 z"
         id="path31473"
         style="fill:#000000" />
      <path
         d="m 91.180187,179.23316 h 2.719908 q 0.571498,0 1.068913,0.26459 0.507998,0.26458 0.804331,0.73024 0.296332,0.46567 0.296332,1.04775 0,0.55033 -0.285749,0.96308 -0.275166,0.41275 -0.751414,0.635 v 0.0423 q 0.571498,0.1905 0.93133,0.65617 0.359832,0.46566 0.359832,1.09008 0,0.61383 -0.317499,1.11124 -0.306915,0.48683 -0.83608,0.762 -0.518582,0.27517 -1.12183,0.27517 h -2.868074 z m 2.719908,3.28083 q 0.380999,0 0.666748,-0.17992 0.296332,-0.17992 0.455082,-0.45508 0.158749,-0.28575 0.158749,-0.58208 0,-0.28575 -0.158749,-0.56092 -0.148167,-0.28575 -0.433916,-0.46566 -0.275166,-0.17992 -0.645581,-0.17992 h -1.873244 v 2.42358 z m 0.201082,3.43957 q 0.380999,0 0.677332,-0.1905 0.306915,-0.1905 0.465665,-0.48683 0.169333,-0.30692 0.169333,-0.62442 0,-0.3175 -0.169333,-0.61383 -0.169333,-0.30691 -0.476249,-0.48683 -0.306915,-0.1905 -0.709081,-0.1905 h -1.98966 v 2.59291 z"
         id="path31475"
         style="fill:#000000" />
      <path
         d="m 101.91166,179.23316 h 1.01599 l 2.87866,7.57765 h -0.98424 l -0.762,-2.08491 h -3.27024 l -0.762,2.08491 h -0.984246 z m 1.84149,4.64607 -1.00541,-2.73049 -0.30692,-0.81491 h -0.0423 l -0.29633,0.81491 -1.00542,2.73049 z"
         id="path31477"
         style="fill:#000000" />
      <path
         d="m 106.81173,179.23316 h 2.55058 q 0.635,0 1.17474,0.28575 0.53975,0.28575 0.85725,0.80433 0.32808,0.508 0.32808,1.15358 0,0.64558 -0.32808,1.16417 -0.3175,0.50799 -0.85725,0.79374 -0.53974,0.28575 -1.17474,0.28575 h -1.66158 v 3.09033 h -0.889 z m 2.57174,3.63008 q 0.42334,0 0.74084,-0.20109 0.32808,-0.20108 0.50799,-0.51858 0.17992,-0.3175 0.17992,-0.66675 0,-0.34925 -0.17992,-0.66674 -0.17991,-0.3175 -0.50799,-0.51859 -0.3175,-0.20108 -0.74084,-0.20108 h -1.68274 v 2.77283 z"
         id="path31479"
         style="fill:#000000" />
      <path
         d="m 112.90771,179.23316 h 0.889 v 3.98991 h 0.0423 l 3.41841,-3.98991 h 1.15358 v 0.0423 l -2.80457,3.23849 3.00565,4.25448 v 0.0423 H 117.522 l -2.51882,-3.60891 -1.2065,1.38641 v 2.2225 h -0.889 z"
         id="path31481"
         style="fill:#000000" />
      <path
         d="m 123.68151,186.98014 q -0.86783,0 -1.44991,-0.40217 -0.58208,-0.41275 -0.82549,-1.04774 l 0.80433,-0.35984 q 0.20108,0.48684 0.59266,0.75142 0.40217,0.26458 0.87841,0.26458 0.508,0 0.86784,-0.20108 0.35983,-0.21167 0.35983,-0.59267 0,-0.33866 -0.28575,-0.53974 -0.28575,-0.21167 -0.89958,-0.35984 l -0.65617,-0.16933 q -0.64558,-0.15875 -1.05833,-0.53975 -0.41275,-0.381 -0.41275,-0.98424 0,-0.46567 0.27517,-0.81492 0.28575,-0.35983 0.75141,-0.55033 0.46567,-0.1905 1.00542,-0.1905 0.70908,0 1.25941,0.30692 0.56092,0.30691 0.79375,0.85724 l -0.78317,0.35984 q -0.35983,-0.71967 -1.28058,-0.71967 -0.44449,0 -0.78316,0.21167 -0.32808,0.20108 -0.32808,0.51858 0,0.29633 0.23283,0.48683 0.23283,0.17992 0.6985,0.29633 l 0.78316,0.20109 q 0.79375,0.20108 1.19592,0.60324 0.40216,0.39159 0.40216,0.96308 0,0.49742 -0.28575,0.87842 -0.28575,0.37041 -0.77258,0.5715 -0.48683,0.20108 -1.0795,0.20108 z"
         id="path31483"
         style="fill:#000000" />
      <path
         d="m 127.27984,180.41849 q -0.26458,0 -0.45508,-0.1905 -0.1905,-0.1905 -0.1905,-0.45508 0,-0.26458 0.1905,-0.4445 0.1905,-0.1905 0.45508,-0.1905 0.26458,0 0.45508,0.1905 0.1905,0.17992 0.1905,0.4445 0,0.26458 -0.1905,0.45508 -0.17991,0.1905 -0.45508,0.1905 z m -0.4445,0.99483 h 0.889 v 5.39749 h -0.889 z"
         id="path31485"
         style="fill:#000000" />
      <path
         d="m 128.86734,186.03823 3.18557,-3.80999 h -3.09032 v -0.81492 h 4.19099 v 0.77258 l -3.19616,3.80999 h 3.28082 v 0.81492 h -4.3709 z"
         id="path31487"
         style="fill:#000000" />
      <path
         d="m 136.59314,186.98014 q -0.77258,0 -1.38641,-0.37042 -0.61383,-0.37041 -0.96308,-1.01599 -0.33867,-0.65617 -0.33867,-1.47108 0,-0.78317 0.3175,-1.43933 0.32808,-0.65617 0.92075,-1.04775 0.59266,-0.39158 1.37583,-0.39158 0.79374,0 1.37583,0.35983 0.58208,0.34925 0.88899,0.97367 0.3175,0.62441 0.3175,1.42874 0,0.15875 -0.0318,0.27517 h -4.26507 q 0.0317,0.61383 0.29633,1.03716 0.26459,0.42333 0.66675,0.635 0.41275,0.21166 0.85725,0.21166 1.03716,0 1.59808,-0.97366 l 0.762,0.37042 q -0.34925,0.65616 -0.9525,1.03716 -0.59267,0.381 -1.43933,0.381 z m 1.55574,-3.43957 q -0.0212,-0.33867 -0.19049,-0.67733 -0.16934,-0.33867 -0.53975,-0.5715 -0.35983,-0.23284 -0.91017,-0.23284 -0.63499,0 -1.07949,0.41275 -0.43392,0.40217 -0.5715,1.06892 z"
         id="path31489"
         style="fill:#000000" />
    </g>
  </g>
</svg>
