<?xml version="1.0" encoding="UTF-8" standalone="no"?>
<!-- Created with Inkscape (http://www.inkscape.org/) -->

<svg
   width="350"
   height="60"
   viewBox="0 0 92.604167 15.875"
   version="1.1"
   id="svg5"
   inkscape:version="1.2.1 (9c6d41e410, 2022-07-14)"
   sodipodi:docname="lightweight-dark.svg"
   xmlns:inkscape="http://www.inkscape.org/namespaces/inkscape"
   xmlns:sodipodi="http://sodipodi.sourceforge.net/DTD/sodipodi-0.dtd"
   xmlns:xlink="http://www.w3.org/1999/xlink"
   xmlns="http://www.w3.org/2000/svg"
   xmlns:svg="http://www.w3.org/2000/svg">
  <sodipodi:namedview
     id="namedview7"
     pagecolor="#ffffff"
     bordercolor="#000000"
     borderopacity="0.25"
     inkscape:showpageshadow="2"
     inkscape:pageopacity="0.0"
     inkscape:pagecheckerboard="0"
     inkscape:deskcolor="#d1d1d1"
     inkscape:document-units="mm"
     showgrid="false"
     inkscape:zoom="2.9006173"
     inkscape:cx="218.05703"
     inkscape:cy="21.202383"
     inkscape:window-width="1920"
     inkscape:window-height="1001"
     inkscape:window-x="-9"
     inkscape:window-y="-9"
     inkscape:window-maximized="1"
     inkscape:current-layer="layer1" />
  <defs
     id="defs2">
    <linearGradient
       inkscape:collect="always"
       xlink:href="#linearGradient7989"
       id="linearGradient7991"
       x1="31.799999"
       y1="474.89999"
       x2="918"
       y2="474.89999"
       gradientUnits="userSpaceOnUse" />
    <linearGradient
       inkscape:collect="always"
       id="linearGradient7989">
      <stop
         style="stop-color:#697be2;stop-opacity:1;"
         offset="0"
         id="stop7985" />
      <stop
         style="stop-color:#9255f1;stop-opacity:1;"
         offset="1"
         id="stop7987" />
    </linearGradient>
    <linearGradient
       inkscape:collect="always"
       xlink:href="#linearGradient7989"
       id="linearGradient17891"
       gradientUnits="userSpaceOnUse"
       x1="31.799999"
       y1="474.89999"
       x2="918"
       y2="474.89999" />
    <linearGradient
       inkscape:collect="always"
       xlink:href="#linearGradient7989"
       id="linearGradient17893"
       gradientUnits="userSpaceOnUse"
       x1="31.799999"
       y1="474.89999"
       x2="918"
       y2="474.89999" />
    <linearGradient
       inkscape:collect="always"
       xlink:href="#linearGradient7989"
       id="linearGradient17895"
       gradientUnits="userSpaceOnUse"
       x1="31.799999"
       y1="474.89999"
       x2="918"
       y2="474.89999" />
    <linearGradient
       inkscape:collect="always"
       xlink:href="#linearGradient7989"
       id="linearGradient17897"
       gradientUnits="userSpaceOnUse"
       x1="31.799999"
       y1="474.89999"
       x2="918"
       y2="474.89999" />
    <linearGradient
       inkscape:collect="always"
       xlink:href="#linearGradient7989"
       id="linearGradient17899"
       gradientUnits="userSpaceOnUse"
       x1="31.799999"
       y1="474.89999"
       x2="918"
       y2="474.89999" />
    <linearGradient
       inkscape:collect="always"
       xlink:href="#linearGradient7989"
       id="linearGradient17901"
       gradientUnits="userSpaceOnUse"
       x1="31.799999"
       y1="474.89999"
       x2="918"
       y2="474.89999" />
    <linearGradient
       inkscape:collect="always"
       xlink:href="#linearGradient7989"
       id="linearGradient17903"
       gradientUnits="userSpaceOnUse"
       x1="31.799999"
       y1="474.89999"
       x2="918"
       y2="474.89999" />
    <linearGradient
       inkscape:collect="always"
       xlink:href="#linearGradient7989"
       id="linearGradient17905"
       gradientUnits="userSpaceOnUse"
       x1="31.799999"
       y1="474.89999"
       x2="918"
       y2="474.89999" />
    <linearGradient
       inkscape:collect="always"
       xlink:href="#linearGradient7989"
       id="linearGradient17907"
       gradientUnits="userSpaceOnUse"
       x1="31.799999"
       y1="474.89999"
       x2="918"
       y2="474.89999" />
    <linearGradient
       inkscape:collect="always"
       xlink:href="#linearGradient7989"
       id="linearGradient17909"
       gradientUnits="userSpaceOnUse"
       x1="31.799999"
       y1="474.89999"
       x2="918"
       y2="474.89999" />
    <linearGradient
       inkscape:collect="always"
       xlink:href="#linearGradient7989"
       id="linearGradient17911"
       gradientUnits="userSpaceOnUse"
       x1="31.799999"
       y1="474.89999"
       x2="918"
       y2="474.89999" />
    <linearGradient
       inkscape:collect="always"
       xlink:href="#linearGradient7989"
       id="linearGradient17913"
       gradientUnits="userSpaceOnUse"
       x1="31.799999"
       y1="474.89999"
       x2="918"
       y2="474.89999" />
    <linearGradient
       inkscape:collect="always"
       xlink:href="#linearGradient7989"
       id="linearGradient17915"
       gradientUnits="userSpaceOnUse"
       x1="31.799999"
       y1="474.89999"
       x2="918"
       y2="474.89999" />
    <linearGradient
       inkscape:collect="always"
       xlink:href="#linearGradient7989"
       id="linearGradient17917"
       gradientUnits="userSpaceOnUse"
       x1="31.799999"
       y1="474.89999"
       x2="918"
       y2="474.89999" />
    <linearGradient
       inkscape:collect="always"
       xlink:href="#linearGradient7989"
       id="linearGradient17919"
       gradientUnits="userSpaceOnUse"
       x1="31.799999"
       y1="474.89999"
       x2="918"
       y2="474.89999" />
    <linearGradient
       inkscape:collect="always"
       xlink:href="#linearGradient7989"
       id="linearGradient17921"
       gradientUnits="userSpaceOnUse"
       x1="31.799999"
       y1="474.89999"
       x2="918"
       y2="474.89999" />
    <linearGradient
       inkscape:collect="always"
       xlink:href="#linearGradient7989"
       id="linearGradient17923"
       gradientUnits="userSpaceOnUse"
       x1="31.799999"
       y1="474.89999"
       x2="918"
       y2="474.89999" />
    <linearGradient
       inkscape:collect="always"
       xlink:href="#linearGradient7989"
       id="linearGradient17925"
       gradientUnits="userSpaceOnUse"
       x1="31.799999"
       y1="474.89999"
       x2="918"
       y2="474.89999" />
    <linearGradient
       inkscape:collect="always"
       xlink:href="#linearGradient7989"
       id="linearGradient17927"
       gradientUnits="userSpaceOnUse"
       x1="31.799999"
       y1="474.89999"
       x2="918"
       y2="474.89999" />
    <linearGradient
       inkscape:collect="always"
       xlink:href="#linearGradient7989"
       id="linearGradient17929"
       gradientUnits="userSpaceOnUse"
       x1="31.799999"
       y1="474.89999"
       x2="918"
       y2="474.89999" />
  </defs>
  <g
     inkscape:label="Layer 1"
     inkscape:groupmode="layer"
     id="layer1">
    <text
       xml:space="preserve"
       style="font-size:4.58611px;font-family:'Google Sans';-inkscape-font-specification:'Google Sans';fill:#ffffff;stroke:#000000;stroke-width:0;stroke-linecap:square"
       x="15.310311"
       y="6.7039061"
       id="text1058"
       inkscape:transform-center-x="-3.4662162"
       inkscape:transform-center-y="-2.0067568"><tspan
         sodipodi:role="line"
         style="font-size:7.05556px;fill:#ffffff;stroke-width:0"
         x="15.310311"
         y="6.7039061"
         id="tspan1060">Lightweight and fast</tspan><tspan
         sodipodi:role="line"
         style="font-size:4.58611px;fill:#ffffff;stroke-width:0"
         x="15.310311"
         y="13.310235"
         id="tspan1114">Less is more</tspan></text>
    <g
       id="g25904"
       transform="matrix(0.01121981,0,0,0.01046852,2.5162099,3.01)"
       style="fill:url(#linearGradient7991);fill-opacity:1">
      <g
         id="g25847"
         style="fill:url(#linearGradient17899);fill-opacity:1">
        <g
           id="g25845"
           style="fill:url(#linearGradient17897);fill-opacity:1">
          <path
             d="M 81.8,949.8 H 868 c 27.602,0 50,-22.4 50,-50 v -180 c 0,-27.6 -22.398,-50 -50,-50 H 81.8 c -27.6,0 -50,22.4 -50,50 v 180 c 0,27.599 22.4,50 50,50 z m 80.5,-179.901 c 22.1,0 40,17.9 40,40 0,22.101 -17.9,40 -40,40 -22.1,0 -40,-17.899 -40,-40 0,-22.099 17.9,-40 40,-40 z"
             id="path25839"
             style="fill:url(#linearGradient17891);fill-opacity:1" />
          <path
             d="M 81.8,614.899 H 868 c 27.602,0 50,-22.399 50,-50 v -180 c 0,-27.6 -22.398,-50 -50,-50 H 81.8 c -27.6,0 -50,22.4 -50,50 v 180 c 0,27.601 22.4,50 50,50 z M 162.3,435 c 22.1,0 40,17.899 40,40 0,22.1 -17.9,40 -40,40 -22.1,0 -40,-17.9 -40,-40 0,-22.101 17.9,-40 40,-40 z"
             id="path25841"
             style="fill:url(#linearGradient17893);fill-opacity:1" />
          <path
             d="M 81.8,280 H 868 c 27.602,0 50,-22.4 50,-50 V 50 C 918,22.4 895.602,0 868,0 H 81.8 c -27.6,0 -50,22.4 -50,50 v 180 c 0,27.6 22.4,50 50,50 z m 80.5,-179.9 c 22.1,0 40,17.9 40,40 0,22.1 -17.9,40 -40,40 -22.1,0 -40,-17.9 -40,-40 0,-22.1 17.9,-40 40,-40 z"
             id="path25843"
             style="fill:url(#linearGradient17895);fill-opacity:1" />
        </g>
      </g>
      <g
         id="g25849"
         style="fill:url(#linearGradient17901);fill-opacity:1" />
      <g
         id="g25851"
         style="fill:url(#linearGradient17903);fill-opacity:1" />
      <g
         id="g25853"
         style="fill:url(#linearGradient17905);fill-opacity:1" />
      <g
         id="g25855"
         style="fill:url(#linearGradient17907);fill-opacity:1" />
      <g
         id="g25857"
         style="fill:url(#linearGradient17909);fill-opacity:1" />
      <g
         id="g25859"
         style="fill:url(#linearGradient17911);fill-opacity:1" />
      <g
         id="g25861"
         style="fill:url(#linearGradient17913);fill-opacity:1" />
      <g
         id="g25863"
         style="fill:url(#linearGradient17915);fill-opacity:1" />
      <g
         id="g25865"
         style="fill:url(#linearGradient17917);fill-opacity:1" />
      <g
         id="g25867"
         style="fill:url(#linearGradient17919);fill-opacity:1" />
      <g
         id="g25869"
         style="fill:url(#linearGradient17921);fill-opacity:1" />
      <g
         id="g25871"
         style="fill:url(#linearGradient17923);fill-opacity:1" />
      <g
         id="g25873"
         style="fill:url(#linearGradient17925);fill-opacity:1" />
      <g
         id="g25875"
         style="fill:url(#linearGradient17927);fill-opacity:1" />
      <g
         id="g25877"
         style="fill:url(#linearGradient17929);fill-opacity:1" />
    </g>
  </g>
</svg>
