<?xml version="1.0" encoding="UTF-8" standalone="no"?>
<!-- Created with Inkscape (http://www.inkscape.org/) -->

<svg
   width="350"
   height="60"
   viewBox="0 0 92.604167 15.875"
   version="1.1"
   id="svg5"
   inkscape:version="1.2.1 (9c6d41e410, 2022-07-14)"
   sodipodi:docname="plugin-light.svg"
   xmlns:inkscape="http://www.inkscape.org/namespaces/inkscape"
   xmlns:sodipodi="http://sodipodi.sourceforge.net/DTD/sodipodi-0.dtd"
   xmlns:xlink="http://www.w3.org/1999/xlink"
   xmlns="http://www.w3.org/2000/svg"
   xmlns:svg="http://www.w3.org/2000/svg">
  <sodipodi:namedview
     id="namedview7"
     pagecolor="#ffffff"
     bordercolor="#000000"
     borderopacity="0.25"
     inkscape:showpageshadow="2"
     inkscape:pageopacity="0.0"
     inkscape:pagecheckerboard="0"
     inkscape:deskcolor="#d1d1d1"
     inkscape:document-units="mm"
     showgrid="false"
     inkscape:zoom="2.9006173"
     inkscape:cx="216.16088"
     inkscape:cy="21.547138"
     inkscape:window-width="1920"
     inkscape:window-height="1001"
     inkscape:window-x="-9"
     inkscape:window-y="-9"
     inkscape:window-maximized="1"
     inkscape:current-layer="layer1" />
  <defs
     id="defs2">
    <linearGradient
       inkscape:collect="always"
       xlink:href="#linearGradient19812"
       id="linearGradient19814"
       x1="10.124437"
       y1="93.222977"
       x2="40.591778"
       y2="93.222977"
       gradientUnits="userSpaceOnUse"
       gradientTransform="matrix(0.36227628,0,0,0.36227673,-1.8894378,-26.338315)" />
    <linearGradient
       inkscape:collect="always"
       id="linearGradient19812">
      <stop
         style="stop-color:#677ce1;stop-opacity:1;"
         offset="0"
         id="stop19808" />
      <stop
         style="stop-color:#9056f1;stop-opacity:1;"
         offset="1"
         id="stop19810" />
    </linearGradient>
  </defs>
  <g
     inkscape:label="Layer 1"
     inkscape:groupmode="layer"
     id="layer1">
    <path
       d="M 12.816,9.6417203 V 11.849252 A 1.1037596,1.1037611 0 0 1 11.712242,12.953 H 9.504721 V 11.849252 A 1.1037596,1.1037611 0 0 0 8.4009628,10.745486 1.1037596,1.1037611 0 0 0 7.2972027,11.849252 V 12.953 H 5.0896841 A 1.1037596,1.1037611 0 0 1 3.9859236,11.849252 V 9.6417203 h -1.10376 A 1.1037596,1.1037611 0 0 1 1.7784054,8.5379747 1.1037596,1.1037611 0 0 1 2.8821636,7.4342027 h 1.10376 v -2.207511 c 0,-0.607067 0.4966919,-1.1037687 1.1037605,-1.1037687 H 7.2972027 V 3.019153 A 1.1037596,1.1037611 0 0 1 8.4009628,1.9154054 1.1037596,1.1037611 0 0 1 9.504721,3.019153 v 1.10377 h 2.207521 A 1.1037596,1.1037611 0 0 1 12.816,5.2266917 v 2.207511 h -1.103758 a 1.1037596,1.1037611 0 0 0 -1.103761,1.103772 1.1037596,1.1037611 0 0 0 1.103761,1.1037456 z"
       id="path17411"
       style="fill:url(#linearGradient19814);fill-opacity:1;stroke-width:0.551877" />
    <text
       xml:space="preserve"
       style="font-size:4.58611px;font-family:'Google Sans';-inkscape-font-specification:'Google Sans';fill:#000000;stroke:#000000;stroke-width:0;stroke-linecap:square"
       x="15.310311"
       y="6.7039061"
       id="text1058"
       inkscape:transform-center-x="-3.4662162"
       inkscape:transform-center-y="-2.0067568"><tspan
         sodipodi:role="line"
         style="font-size:7.05556px;fill:#000000;stroke-width:0"
         x="15.310311"
         y="6.7039061"
         id="tspan1060">Plug-in manager</tspan><tspan
         sodipodi:role="line"
         style="font-size:4.58611px;fill:#000000;stroke-width:0"
         x="15.310311"
         y="13.310235"
         id="tspan1114">Enhance your experience</tspan></text>
  </g>
</svg>
