<?xml version="1.0" encoding="UTF-8" standalone="no"?>
<!-- Created with Inkscape (http://www.inkscape.org/) -->

<svg
   width="350"
   height="60"
   viewBox="0 0 92.604167 15.875"
   version="1.1"
   id="svg5"
   inkscape:version="1.2.1 (9c6d41e410, 2022-07-14)"
   sodipodi:docname="plugin-dark.svg"
   xmlns:inkscape="http://www.inkscape.org/namespaces/inkscape"
   xmlns:sodipodi="http://sodipodi.sourceforge.net/DTD/sodipodi-0.dtd"
   xmlns:xlink="http://www.w3.org/1999/xlink"
   xmlns="http://www.w3.org/2000/svg"
   xmlns:svg="http://www.w3.org/2000/svg">
  <sodipodi:namedview
     id="namedview7"
     pagecolor="#ffffff"
     bordercolor="#000000"
     borderopacity="0.25"
     inkscape:showpageshadow="2"
     inkscape:pageopacity="0.0"
     inkscape:pagecheckerboard="0"
     inkscape:deskcolor="#d1d1d1"
     inkscape:document-units="mm"
     showgrid="false"
     inkscape:zoom="2.9006173"
     inkscape:cx="214.78187"
     inkscape:cy="21.547138"
     inkscape:window-width="1920"
     inkscape:window-height="1001"
     inkscape:window-x="-9"
     inkscape:window-y="-9"
     inkscape:window-maximized="1"
     inkscape:current-layer="layer1" />
  <defs
     id="defs2">
    <linearGradient
       inkscape:collect="always"
       xlink:href="#linearGradient19812"
       id="linearGradient19814"
       x1="10.124437"
       y1="93.222977"
       x2="40.591778"
       y2="93.222977"
       gradientUnits="userSpaceOnUse"
       gradientTransform="matrix(0.35928235,0,0,0.36527063,-1.7679099,-26.663023)" />
    <linearGradient
       inkscape:collect="always"
       id="linearGradient19812">
      <stop
         style="stop-color:#677ce1;stop-opacity:1;"
         offset="0"
         id="stop19808" />
      <stop
         style="stop-color:#9056f1;stop-opacity:1;"
         offset="1"
         id="stop19810" />
    </linearGradient>
  </defs>
  <g
     inkscape:label="Layer 1"
     inkscape:groupmode="layer"
     id="layer1">
    <path
       d="M 12.816,9.6143554 V 11.84013 A 1.094638,1.1128827 0 0 1 11.721363,12.953 H 9.5320858 V 11.84013 A 1.094638,1.1128827 0 0 0 8.4374493,10.727242 1.094638,1.1128827 0 0 0 7.3428108,11.84013 V 12.953 H 5.1535355 A 1.094638,1.1128827 0 0 1 4.0588965,11.84013 V 9.6143554 H 2.9642583 A 1.094638,1.1128827 0 0 1 1.8696216,8.5014883 1.094638,1.1128827 0 0 1 2.9642583,7.3885946 H 4.0588965 V 5.1628404 c 0,-0.6120838 0.4925873,-1.1128904 1.094639,-1.1128904 H 7.3428108 V 2.9370583 A 1.094638,1.1128827 0 0 1 8.4374493,1.8241892 1.094638,1.1128827 0 0 1 9.5320858,2.9370583 V 4.04995 H 11.721363 A 1.094638,1.1128827 0 0 1 12.816,5.1628404 v 2.2257542 h -1.094637 a 1.094638,1.1128827 0 0 0 -1.094639,1.1128937 1.094638,1.1128827 0 0 0 1.094639,1.1128671 z"
       id="path17411"
       style="fill:url(#linearGradient19814);fill-opacity:1;stroke-width:0.551859" />
    <text
       xml:space="preserve"
       style="font-size:4.58611px;font-family:'Google Sans';-inkscape-font-specification:'Google Sans';fill:#ffffff;stroke:#000000;stroke-width:0;stroke-linecap:square"
       x="15.310311"
       y="6.7039061"
       id="text1058"
       inkscape:transform-center-x="-3.4662162"
       inkscape:transform-center-y="-2.0067568"><tspan
         sodipodi:role="line"
         style="font-size:7.05556px;fill:#ffffff;stroke-width:0"
         x="15.310311"
         y="6.7039061"
         id="tspan1060">Plug-in manager</tspan><tspan
         sodipodi:role="line"
         style="font-size:4.58611px;fill:#ffffff;stroke-width:0"
         x="15.310311"
         y="13.310235"
         id="tspan1114">Enhance your experience</tspan></text>
  </g>
</svg>
