<?xml version="1.0" encoding="UTF-8" standalone="no"?>
<!-- Created with Inkscape (http://www.inkscape.org/) -->

<svg
   width="350"
   height="60"
   viewBox="0 0 92.604167 15.875"
   version="1.1"
   id="svg5"
   inkscape:version="1.2.1 (9c6d41e410, 2022-07-14)"
   sodipodi:docname="plugin-light.svg"
   xmlns:inkscape="http://www.inkscape.org/namespaces/inkscape"
   xmlns:sodipodi="http://sodipodi.sourceforge.net/DTD/sodipodi-0.dtd"
   xmlns:xlink="http://www.w3.org/1999/xlink"
   xmlns="http://www.w3.org/2000/svg"
   xmlns:svg="http://www.w3.org/2000/svg">
  <sodipodi:namedview
     id="namedview7"
     pagecolor="#ffffff"
     bordercolor="#000000"
     borderopacity="0.25"
     inkscape:showpageshadow="2"
     inkscape:pageopacity="0.0"
     inkscape:pagecheckerboard="0"
     inkscape:deskcolor="#d1d1d1"
     inkscape:document-units="mm"
     showgrid="false"
     inkscape:zoom="2.9006173"
     inkscape:cx="332.6878"
     inkscape:cy="21.719515"
     inkscape:window-width="1366"
     inkscape:window-height="697"
     inkscape:window-x="-8"
     inkscape:window-y="-8"
     inkscape:window-maximized="1"
     inkscape:current-layer="layer1" />
  <defs
     id="defs2">
    <linearGradient
       inkscape:collect="always"
       xlink:href="#linearGradient19812"
       id="linearGradient19814"
       x1="10.124437"
       y1="93.222977"
       x2="40.591778"
       y2="93.222977"
       gradientUnits="userSpaceOnUse"
       gradientTransform="matrix(0.36227628,0,0,0.36227673,-1.8894378,-26.338315)" />
    <linearGradient
       inkscape:collect="always"
       id="linearGradient19812">
      <stop
         style="stop-color:#677ce1;stop-opacity:1;"
         offset="0"
         id="stop19808" />
      <stop
         style="stop-color:#9056f1;stop-opacity:1;"
         offset="1"
         id="stop19810" />
    </linearGradient>
  </defs>
  <g
     inkscape:label="Layer 1"
     inkscape:groupmode="layer"
     id="layer1">
    <path
       d="M 12.816,9.6417203 V 11.849252 A 1.1037596,1.1037611 0 0 1 11.712242,12.953 H 9.504721 V 11.849252 A 1.1037596,1.1037611 0 0 0 8.4009628,10.745486 1.1037596,1.1037611 0 0 0 7.2972027,11.849252 V 12.953 H 5.0896841 A 1.1037596,1.1037611 0 0 1 3.9859236,11.849252 V 9.6417203 h -1.10376 A 1.1037596,1.1037611 0 0 1 1.7784054,8.5379747 1.1037596,1.1037611 0 0 1 2.8821636,7.4342027 h 1.10376 v -2.207511 c 0,-0.607067 0.4966919,-1.1037687 1.1037605,-1.1037687 H 7.2972027 V 3.019153 A 1.1037596,1.1037611 0 0 1 8.4009628,1.9154054 1.1037596,1.1037611 0 0 1 9.504721,3.019153 v 1.10377 h 2.207521 A 1.1037596,1.1037611 0 0 1 12.816,5.2266917 v 2.207511 h -1.103758 a 1.1037596,1.1037611 0 0 0 -1.103761,1.103772 1.1037596,1.1037611 0 0 0 1.103761,1.1037456 z"
       id="path17411"
       style="fill:url(#linearGradient19814);fill-opacity:1;stroke-width:0.551877" />
    <g
       aria-label="Plug-in manager
Enhance your experience"
       id="text1058"
       style="font-size:4.58611px;font-family:'Google Sans';-inkscape-font-specification:'Google Sans';stroke:#000000;stroke-width:0;stroke-linecap:square"
       inkscape:transform-center-x="-3.4662162"
       inkscape:transform-center-y="-2.0067568">
      <path
         d="m 15.875307,1.6533928 h 1.701879 q 0.420302,0 0.778592,0.1860353 0.3514,0.1791451 0.578776,0.5374352 0.213596,0.3376196 0.213596,0.7717019 0,0.4340823 -0.213596,0.7717019 -0.220486,0.3445098 -0.578776,0.5305451 -0.372071,0.1929254 -0.778592,0.1929254 h -1.102432 v 2.0601685 h -0.599447 z m 1.715659,2.4184586 q 0.282498,0 0.496094,-0.1309137 0.199816,-0.1240235 0.33762,-0.3514 0.117133,-0.1929254 0.117133,-0.4409725 0,-0.2549372 -0.117133,-0.4478627 Q 18.293766,2.4871065 18.08706,2.3561927 17.873464,2.225279 17.590966,2.225279 h -1.116212 v 1.8465724 z"
         style="font-size:7.05556px"
         id="path241" />
      <path
         d="m 19.85095,1.6533928 h 0.599447 V 6.7039061 H 19.85095 Z"
         style="font-size:7.05556px"
         id="path243" />
      <path
         d="M 21.649291,6.4351884 Q 21.304782,6.0493375 21.304782,5.3672081 V 3.107224 h 0.599447 v 2.1704116 q 0,0.5236549 0.234266,0.7579215 0.241157,0.2411568 0.627008,0.2411568 0.303169,0 0.544325,-0.1653646 0.227377,-0.1584745 0.365181,-0.420302 0.130913,-0.2549372 0.130913,-0.5512156 V 3.107224 h 0.599447 V 6.7039061 H 23.833483 V 6.1802512 h -0.02756 q -0.137803,0.2618274 -0.475423,0.4547529 -0.310059,0.1791451 -0.68902,0.1791451 -0.654568,0 -0.992188,-0.3789608 z"
         style="font-size:7.05556px"
         id="path245" />
      <path
         d="M 25.790298,8.0474942 Q 25.376887,7.7512158 25.232193,7.3309138 l 0.551215,-0.2342666 q 0.117133,0.316949 0.392741,0.5098745 0.275608,0.1929254 0.661459,0.1929254 0.551216,0 0.861274,-0.3238392 0.310059,-0.3169489 0.310059,-0.9232861 V 6.1526904 h -0.02756 q -0.172254,0.2687176 -0.496094,0.4478627 -0.316949,0.1722549 -0.73036,0.1722549 -0.468534,0 -0.854385,-0.2411568 -0.37896,-0.2342667 -0.606337,-0.668349 -0.227376,-0.4340823 -0.227376,-0.9784077 0,-0.5443255 0.227376,-0.9784078 0.234267,-0.4409725 0.606337,-0.6752391 0.385851,-0.2411569 0.854385,-0.2411569 0.413411,0 0.73036,0.1722549 0.316949,0.1722549 0.496094,0.4616431 h 0.02756 V 3.107224 h 0.571886 v 3.4588782 q 0,0.8612744 -0.482313,1.3229175 -0.475424,0.4547529 -1.260906,0.4547529 -0.640788,0 -1.04731,-0.2962784 z m 1.632977,-1.9774861 q 0.268717,-0.1653647 0.427192,-0.4685333 0.158474,-0.3031686 0.158474,-0.7165803 0,-0.4271921 -0.158474,-0.7303607 Q 27.691992,3.844475 27.423275,3.6928907 27.147667,3.5344162 26.837608,3.5344162 q -0.323839,0 -0.592557,0.1653647 -0.275608,0.1722548 -0.427192,0.461643 -0.158474,0.3031686 -0.158474,0.7234706 0,0.4065215 0.158474,0.7234705 0.151584,0.3031686 0.427192,0.4616431 0.275608,0.1584745 0.592557,0.1584745 0.330729,0 0.585667,-0.1584745 z"
         style="font-size:7.05556px"
         id="path247" />
      <path
         d="m 29.455882,4.2716671 h 2.239314 V 4.760871 h -2.239314 z"
         style="font-size:7.05556px"
         id="path249" />
      <path
         d="m 32.928542,2.4457653 q -0.172255,0 -0.303169,-0.1309137 -0.130914,-0.1309137 -0.130914,-0.3031686 0,-0.1791451 0.130914,-0.3100588 0.117134,-0.1171333 0.303169,-0.1171333 0.186035,0 0.303168,0.1171333 0.124024,0.1240235 0.124024,0.3100588 0,0.1791451 -0.124024,0.3031686 -0.130913,0.1309137 -0.303168,0.1309137 z M 32.632263,3.107224 h 0.599447 v 3.5966821 h -0.599447 z"
         style="font-size:7.05556px"
         id="path251" />
      <path
         d="m 34.168777,3.107224 h 0.564996 v 0.5305451 h 0.03445 q 0.144694,-0.2687176 0.468533,-0.4547529 0.330729,-0.1929255 0.69591,-0.1929255 0.647678,0 0.985298,0.3789608 0.344509,0.3858509 0.344509,1.0266391 v 2.3082155 h -0.599447 v -2.218643 q 0,-0.496094 -0.241157,-0.7234705 -0.234266,-0.2273764 -0.654568,-0.2273764 -0.289388,0 -0.516765,0.1653647 -0.241157,0.179145 -0.35829,0.4271921 -0.124023,0.2687176 -0.124023,0.5512156 v 2.0257175 h -0.599447 z"
         style="font-size:7.05556px"
         id="path253" />
      <path
         d="M 37.675885,6.7039061 Z"
         style="font-size:7.05556px"
         id="path255" />
      <path
         d="m 39.756724,3.107224 h 0.564996 v 0.5305451 h 0.03445 q 0.151585,-0.2756078 0.461644,-0.4616431 0.310058,-0.1860353 0.654568,-0.1860353 0.385851,0 0.68902,0.1929255 0.296278,0.1929255 0.420302,0.5098745 0.186035,-0.316949 0.502984,-0.5098745 0.323839,-0.1929255 0.730361,-0.1929255 0.627007,0 0.937066,0.3789608 0.316949,0.3927411 0.316949,1.0266391 v 2.3082155 h -0.592557 v -2.218643 q 0,-0.496094 -0.206706,-0.7234705 -0.206705,-0.2273764 -0.606337,-0.2273764 -0.268717,0 -0.489204,0.1584745 -0.220486,0.1584745 -0.344509,0.4134117 -0.117134,0.2411568 -0.117134,0.564996 V 6.7039061 H 42.113171 V 4.4921533 q 0,-0.5029842 -0.206706,-0.7303607 -0.206705,-0.2273764 -0.599447,-0.2273764 -0.268717,0 -0.489203,0.1584745 -0.220487,0.1584745 -0.34451,0.4271921 -0.117134,0.2549372 -0.117134,0.564996 v 2.0188273 h -0.599447 z"
         style="font-size:7.05556px"
         id="path257" />
      <path
         d="M 46.343752,6.6625649 Q 46.026803,6.5040904 45.861438,6.2353728 45.696074,5.9666551 45.696074,5.6152552 q 0,-0.5718862 0.427192,-0.8888352 0.440972,-0.3238392 1.088651,-0.3238392 0.337619,0 0.606337,0.068902 0.275608,0.068902 0.420302,0.1653647 V 4.4163612 q 0,-0.3927412 -0.275608,-0.6407882 -0.275608,-0.248047 -0.71658,-0.248047 -0.296279,0 -0.551216,0.1309137 Q 46.426435,3.7962436 46.288631,4.02362 L 45.833878,3.6860005 q 0.206706,-0.316949 0.585666,-0.5098745 0.372071,-0.1860353 0.826824,-0.1860353 0.73036,0 1.150662,0.385851 0.413412,0.3789607 0.413412,1.0473097 V 6.7039061 H 48.238556 V 6.1871414 h -0.02756 q -0.158474,0.2687176 -0.461643,0.4478627 -0.296278,0.1791451 -0.7028,0.1791451 -0.399631,0 -0.7028,-0.1515843 z M 47.67356,6.1320198 q 0.261827,-0.1584745 0.413412,-0.4134117 0.151584,-0.2549372 0.151584,-0.5718862 -0.165365,-0.1102431 -0.413412,-0.1860353 -0.234266,-0.068902 -0.523655,-0.068902 -0.496094,0 -0.744141,0.2067058 -0.248047,0.2067059 -0.248047,0.5236549 0,0.2962784 0.227377,0.4823137 0.227376,0.1860352 0.571886,0.1860352 0.303168,0 0.564996,-0.1584745 z"
         style="font-size:7.05556px"
         id="path259" />
      <path
         d="m 49.644157,3.107224 h 0.564996 v 0.5305451 h 0.03445 q 0.144694,-0.2687176 0.468533,-0.4547529 0.330729,-0.1929255 0.69591,-0.1929255 0.647678,0 0.985298,0.3789608 0.344509,0.3858509 0.344509,1.0266391 v 2.3082155 h -0.599447 v -2.218643 q 0,-0.496094 -0.241157,-0.7234705 -0.234266,-0.2273764 -0.654568,-0.2273764 -0.289388,0 -0.516765,0.1653647 -0.241157,0.179145 -0.35829,0.4271921 -0.124023,0.2687176 -0.124023,0.5512156 v 2.0257175 h -0.599447 z"
         style="font-size:7.05556px"
         id="path261" />
      <path
         d="M 54.00565,6.6625649 Q 53.688701,6.5040904 53.523336,6.2353728 53.357971,5.9666551 53.357971,5.6152552 q 0,-0.5718862 0.427193,-0.8888352 0.440972,-0.3238392 1.08865,-0.3238392 0.33762,0 0.606338,0.068902 0.275607,0.068902 0.420302,0.1653647 V 4.4163612 q 0,-0.3927412 -0.275608,-0.6407882 -0.275608,-0.248047 -0.716581,-0.248047 -0.296278,0 -0.551215,0.1309137 Q 54.088332,3.7962436 53.950528,4.02362 L 53.495775,3.6860005 q 0.206706,-0.316949 0.585667,-0.5098745 0.372071,-0.1860353 0.826823,-0.1860353 0.730361,0 1.150663,0.385851 0.413412,0.3789607 0.413412,1.0473097 V 6.7039061 H 55.900454 V 6.1871414 h -0.02756 q -0.158475,0.2687176 -0.461643,0.4478627 -0.296279,0.1791451 -0.7028,0.1791451 -0.399632,0 -0.7028,-0.1515843 z m 1.329808,-0.5305451 q 0.261827,-0.1584745 0.413411,-0.4134117 0.151585,-0.2549372 0.151585,-0.5718862 -0.165365,-0.1102431 -0.413412,-0.1860353 -0.234267,-0.068902 -0.523655,-0.068902 -0.496094,0 -0.744141,0.2067058 -0.248047,0.2067059 -0.248047,0.5236549 0,0.2962784 0.227376,0.4823137 0.227377,0.1860352 0.571887,0.1860352 0.303168,0 0.564996,-0.1584745 z"
         style="font-size:7.05556px"
         id="path263" />
      <path
         d="M 57.802147,8.0474942 Q 57.388735,7.7512158 57.244041,7.3309138 l 0.551216,-0.2342666 q 0.117133,0.316949 0.392741,0.5098745 0.275608,0.1929254 0.661459,0.1929254 0.551215,0 0.861274,-0.3238392 Q 60.02079,7.158659 60.02079,6.5523218 V 6.1526904 h -0.02756 Q 59.820974,6.421408 59.497135,6.6005531 59.180186,6.772808 58.766774,6.772808 q -0.468533,0 -0.854384,-0.2411568 -0.378961,-0.2342667 -0.606337,-0.668349 -0.227377,-0.4340823 -0.227377,-0.9784077 0,-0.5443255 0.227377,-0.9784078 0.234266,-0.4409725 0.606337,-0.6752391 0.385851,-0.2411569 0.854384,-0.2411569 0.413412,0 0.730361,0.1722549 0.316949,0.1722549 0.496094,0.4616431 h 0.02756 V 3.107224 h 0.571886 v 3.4588782 q 0,0.8612744 -0.482314,1.3229175 -0.475423,0.4547529 -1.260905,0.4547529 -0.640789,0 -1.04731,-0.2962784 z m 1.632976,-1.9774861 q 0.268718,-0.1653647 0.427192,-0.4685333 0.158475,-0.3031686 0.158475,-0.7165803 0,-0.4271921 -0.158475,-0.7303607 Q 59.703841,3.844475 59.435123,3.6928907 59.159515,3.5344162 58.849457,3.5344162 q -0.32384,0 -0.592557,0.1653647 -0.275608,0.1722548 -0.427192,0.461643 -0.158475,0.3031686 -0.158475,0.7234706 0,0.4065215 0.158475,0.7234705 0.151584,0.3031686 0.427192,0.4616431 0.275608,0.1584745 0.592557,0.1584745 0.330729,0 0.585666,-0.1584745 z"
         style="font-size:7.05556px"
         id="path265" />
      <path
         d="M 62.122298,6.5729923 Q 61.708886,6.3249453 61.48151,5.890863 61.254133,5.4567807 61.254133,4.9124552 q 0,-0.5236548 0.213596,-0.9577371 0.220487,-0.4478627 0.613228,-0.7027999 0.406521,-0.2618275 0.916396,-0.2618275 0.516764,0 0.916396,0.2411569 0.385851,0.2342666 0.592557,0.6476783 0.213596,0.4271922 0.213596,0.9577372 0,0.041341 -0.01378,0.1791451 H 61.85358 q 0.02067,0.4134117 0.199816,0.6959097 0.172255,0.2687176 0.447863,0.4203019 0.268717,0.1446941 0.564996,0.1446941 0.7028,0 1.06798,-0.6545685 l 0.502984,0.248047 q -0.227376,0.4340823 -0.627008,0.6890196 -0.399631,0.2549372 -0.964627,0.2549372 -0.523655,0 -0.923286,-0.2411569 z m 1.956815,-2.046388 Q 64.072223,4.2992279 63.95509,4.0718514 63.844847,3.8513652 63.60369,3.6928907 63.362533,3.5344162 62.997353,3.5344162 q -0.413412,0 -0.723471,0.2756078 -0.289388,0.2618274 -0.385851,0.7165803 z"
         style="font-size:7.05556px"
         id="path267" />
      <path
         d="m 65.415813,3.107224 h 0.564996 v 0.5787765 h 0.03445 q 0.09646,-0.2893882 0.406521,-0.4892039 0.303169,-0.1998157 0.633898,-0.1998157 0.241157,0 0.427192,0.075792 v 0.6476783 q -0.234266,-0.1171333 -0.509874,-0.1171333 -0.254937,0 -0.482314,0.1515843 -0.213596,0.1378039 -0.3514,0.3996314 Q 66.01526,4.3819102 66.01526,4.691969 v 2.0119371 h -0.599447 z"
         style="font-size:7.05556px"
         id="path269" />
      <path
         d="m 15.677558,10.027667 h 1.898937 v 0.371725 h -1.509296 v 1.083827 H 17.4287 v 0.367247 h -1.361501 v 1.088306 h 1.509296 v 0.371725 h -1.898937 z"
         id="path271" />
      <path
         d="m 18.082579,10.972656 h 0.367247 v 0.344854 h 0.02239 q 0.09405,-0.174666 0.304547,-0.295589 0.214974,-0.125401 0.452341,-0.125401 0.42099,0 0.640443,0.246324 0.223931,0.250803 0.223931,0.667315 v 1.500338 h -0.38964 v -1.442116 q 0,-0.322461 -0.156752,-0.470256 -0.152273,-0.147794 -0.425469,-0.147794 -0.188102,0 -0.335897,0.107487 -0.156752,0.116444 -0.232888,0.277674 -0.08062,0.174667 -0.08062,0.35829 v 1.316715 h -0.38964 z"
         id="path273" />
      <path
         d="m 20.653309,10.027667 h 0.38964 v 0.967382 l -0.02239,0.322461 h 0.02239 q 0.08957,-0.174666 0.304546,-0.300068 0.206017,-0.120922 0.45682,-0.120922 0.425469,0 0.6494,0.250803 0.223932,0.250802 0.223932,0.662836 v 1.500338 h -0.389641 v -1.442116 q 0,-0.313504 -0.16123,-0.465777 -0.156752,-0.152273 -0.416512,-0.152273 -0.174666,0 -0.335897,0.111965 -0.152273,0.107487 -0.241845,0.282154 -0.08957,0.179145 -0.08957,0.362768 v 1.303279 h -0.38964 z"
         id="path275" />
      <path
         d="m 23.501713,13.283626 q -0.206017,-0.103009 -0.313504,-0.277675 -0.107486,-0.174666 -0.107486,-0.403076 0,-0.371726 0.277674,-0.577742 0.286632,-0.210496 0.707623,-0.210496 0.219452,0 0.394118,0.04479 0.179145,0.04479 0.273196,0.107487 v -0.143316 q 0,-0.255282 -0.179144,-0.416512 -0.179145,-0.161231 -0.465777,-0.161231 -0.192581,0 -0.35829,0.08509 -0.174666,0.08957 -0.264239,0.237367 l -0.295589,-0.219452 q 0.134359,-0.206017 0.380683,-0.331419 0.241846,-0.120922 0.537435,-0.120922 0.474734,0 0.74793,0.250803 0.268717,0.246324 0.268717,0.68075 v 1.482424 h -0.371726 v -0.335896 h -0.01791 q -0.103008,0.174666 -0.300068,0.29111 -0.192581,0.116444 -0.456819,0.116444 -0.25976,0 -0.45682,-0.09853 z m 0.864374,-0.344854 q 0.170188,-0.103009 0.268718,-0.268718 0.09853,-0.165709 0.09853,-0.371725 -0.107487,-0.07166 -0.268717,-0.120923 -0.152273,-0.04479 -0.340375,-0.04479 -0.322461,0 -0.483692,0.134358 -0.16123,0.134359 -0.16123,0.340376 0,0.19258 0.147795,0.313503 0.147794,0.120923 0.371725,0.120923 0.19706,0 0.367247,-0.103008 z"
         id="path277" />
      <path
         d="m 25.646973,10.972656 h 0.367247 v 0.344854 h 0.02239 q 0.09405,-0.174666 0.304547,-0.295589 0.214974,-0.125401 0.452341,-0.125401 0.42099,0 0.640443,0.246324 0.223931,0.250803 0.223931,0.667315 v 1.500338 h -0.38964 v -1.442116 q 0,-0.322461 -0.156752,-0.470256 -0.152273,-0.147794 -0.425469,-0.147794 -0.188102,0 -0.335897,0.107487 -0.156752,0.116444 -0.232888,0.277674 -0.08062,0.174667 -0.08062,0.35829 v 1.316715 h -0.38964 z"
         id="path279" />
      <path
         d="m 28.665566,13.220925 q -0.264239,-0.16123 -0.420991,-0.443384 -0.152273,-0.277674 -0.152273,-0.635964 0,-0.35829 0.152273,-0.635965 0.161231,-0.29111 0.420991,-0.447862 0.268717,-0.16123 0.609092,-0.16123 0.371726,0 0.640444,0.179145 0.25976,0.174666 0.367247,0.470255 l -0.353812,0.147795 q -0.08957,-0.223932 -0.255281,-0.331419 -0.170188,-0.111965 -0.416512,-0.111965 -0.206017,0 -0.385162,0.111965 -0.179145,0.111966 -0.286632,0.313504 -0.107487,0.201538 -0.107487,0.465777 0,0.25976 0.107487,0.461298 0.107487,0.201538 0.286632,0.313504 0.183624,0.116444 0.385162,0.116444 0.241846,0 0.425469,-0.116444 0.179145,-0.111966 0.268717,-0.32694 l 0.344854,0.147795 q -0.120922,0.286632 -0.380682,0.465777 -0.259761,0.179144 -0.640444,0.179144 -0.340375,0 -0.609092,-0.16123 z"
         id="path281" />
      <path
         d="m 31.137766,13.225404 q -0.268718,-0.161231 -0.416512,-0.443384 -0.147795,-0.282153 -0.147795,-0.635965 0,-0.340375 0.138838,-0.622528 0.143315,-0.291111 0.398597,-0.45682 0.264239,-0.170187 0.595657,-0.170187 0.335897,0 0.595657,0.156751 0.250803,0.152274 0.385161,0.420991 0.138838,0.277675 0.138838,0.622529 0,0.02687 -0.009,0.116444 h -1.85415 q 0.01344,0.268717 0.12988,0.452341 0.111966,0.174666 0.291111,0.273196 0.174666,0.09405 0.367247,0.09405 0.45682,0 0.694187,-0.425469 l 0.326939,0.16123 q -0.147794,0.282153 -0.407555,0.447862 -0.25976,0.165709 -0.627007,0.165709 -0.340375,0 -0.600135,-0.156751 z m 1.271929,-1.330151 q -0.0045,-0.147795 -0.08062,-0.29559 -0.07166,-0.143315 -0.228409,-0.246324 -0.156752,-0.103008 -0.394119,-0.103008 -0.268718,0 -0.470256,0.179145 -0.188102,0.170187 -0.250802,0.465777 z"
         id="path283" />
      <path
         d="M 32.987437,13.310497 Z"
         id="path285" />
      <path
         d="M 35.052083,13.162703 34.0847,10.972656 h 0.420991 l 0.734494,1.737706 h 0.009 l 0.707623,-1.737706 h 0.42099 l -1.442117,3.327617 h -0.403076 z"
         id="path287" />
      <path
         d="m 37.071942,13.220925 q -0.273196,-0.165709 -0.429948,-0.452341 -0.152273,-0.277675 -0.152273,-0.627007 0,-0.349333 0.152273,-0.627007 0.156752,-0.286632 0.429948,-0.452341 0.273196,-0.165709 0.61805,-0.165709 0.344854,0 0.61805,0.165709 0.273196,0.165709 0.429948,0.452341 0.152273,0.277674 0.152273,0.627007 0,0.349332 -0.152273,0.627007 -0.156752,0.286632 -0.429948,0.452341 -0.264239,0.16123 -0.61805,0.16123 -0.353811,0 -0.61805,-0.16123 z m 1.021126,-0.300068 q 0.179145,-0.103008 0.295589,-0.309025 0.111966,-0.197059 0.111966,-0.470255 0,-0.277675 -0.111966,-0.474734 -0.116444,-0.206017 -0.295589,-0.309025 -0.188102,-0.107487 -0.403076,-0.107487 -0.214974,0 -0.403076,0.107487 -0.183624,0.107487 -0.300068,0.309025 -0.111966,0.197059 -0.111966,0.474734 0,0.273196 0.111966,0.470255 0.116444,0.201538 0.300068,0.309025 0.197059,0.111966 0.403076,0.111966 0.206017,0 0.403076,-0.111966 z"
         id="path289" />
      <path
         d="m 39.526226,13.135831 q -0.223931,-0.250803 -0.223931,-0.694186 v -1.468989 h 0.389641 v 1.410766 q 0,0.340376 0.152273,0.492649 0.156752,0.156752 0.407554,0.156752 0.19706,0 0.353812,-0.107487 0.147794,-0.103008 0.237367,-0.273196 0.08509,-0.165709 0.08509,-0.35829 v -1.321194 h 0.38964 v 2.337841 H 40.94595 v -0.340375 h -0.01791 q -0.08957,0.170188 -0.309025,0.295589 -0.201539,0.116444 -0.447863,0.116444 -0.425469,0 -0.644922,-0.246324 z"
         id="path291" />
      <path
         d="m 41.895419,10.972656 h 0.367247 v 0.376205 h 0.02239 q 0.0627,-0.188103 0.264239,-0.317983 0.197059,-0.12988 0.412033,-0.12988 0.156752,0 0.277675,0.04927 v 0.420991 q -0.152274,-0.07614 -0.331419,-0.07614 -0.165709,0 -0.313503,0.09853 -0.138837,0.08957 -0.22841,0.25976 -0.08062,0.147794 -0.08062,0.349333 v 1.307757 h -0.38964 z"
         id="path293" />
      <path
         d="M 43.3241,13.310497 Z"
         id="path295" />
      <path
         d="m 45.115549,13.225404 q -0.268717,-0.161231 -0.416512,-0.443384 -0.147795,-0.282153 -0.147795,-0.635965 0,-0.340375 0.138838,-0.622528 0.143316,-0.291111 0.398597,-0.45682 0.264239,-0.170187 0.595657,-0.170187 0.335897,0 0.595657,0.156751 0.250803,0.152274 0.385162,0.420991 0.138837,0.277675 0.138837,0.622529 0,0.02687 -0.009,0.116444 h -1.85415 q 0.01344,0.268717 0.12988,0.452341 0.111965,0.174666 0.29111,0.273196 0.174666,0.09405 0.367247,0.09405 0.45682,0 0.694187,-0.425469 l 0.326939,0.16123 q -0.147794,0.282153 -0.407554,0.447862 -0.25976,0.165709 -0.627008,0.165709 -0.340375,0 -0.600135,-0.156751 z m 1.271929,-1.330151 q -0.0045,-0.147795 -0.08062,-0.29559 -0.07166,-0.143315 -0.22841,-0.246324 -0.156752,-0.103008 -0.394119,-0.103008 -0.268717,0 -0.470255,0.179145 -0.188103,0.170187 -0.250803,0.465777 z"
         id="path297" />
      <path
         d="m 47.807201,12.123662 -0.81063,-1.151006 h 0.443383 l 0.600136,0.864374 0.582221,-0.864374 h 0.456819 l -0.819588,1.151006 0.833024,1.186835 h -0.452341 l -0.604614,-0.900203 -0.600135,0.900203 h -0.45682 z"
         id="path299" />
      <path
         d="m 49.419506,10.972656 h 0.371725 v 0.349333 h 0.01791 q 0.107487,-0.179145 0.322461,-0.300068 0.223931,-0.125401 0.479212,-0.125401 0.313504,0 0.568786,0.16123 0.250802,0.16123 0.403076,0.447862 0.143316,0.273196 0.143316,0.635965 0,0.367247 -0.143316,0.640443 -0.147795,0.282153 -0.403076,0.443384 -0.246325,0.156751 -0.568786,0.156751 -0.264238,0 -0.479212,-0.120922 -0.214974,-0.120923 -0.322461,-0.295589 h -0.01791 l 0.01791,0.32246 v 1.012169 h -0.38964 z m 1.52721,1.948201 q 0.174666,-0.103008 0.286632,-0.313503 0.103008,-0.192581 0.103008,-0.465777 0,-0.277675 -0.103008,-0.470256 -0.107487,-0.201538 -0.286632,-0.309025 -0.188102,-0.111965 -0.380683,-0.111965 -0.197059,0 -0.380683,0.111965 -0.179145,0.111966 -0.286632,0.309025 -0.107487,0.201538 -0.107487,0.470256 0,0.264239 0.107487,0.465777 0.107487,0.206016 0.286632,0.313503 0.183624,0.111966 0.380683,0.111966 0.192581,0 0.380683,-0.111966 z"
         id="path301" />
      <path
         d="m 52.621721,13.225404 q -0.268717,-0.161231 -0.416512,-0.443384 -0.147794,-0.282153 -0.147794,-0.635965 0,-0.340375 0.138837,-0.622528 0.143316,-0.291111 0.398597,-0.45682 0.264239,-0.170187 0.595657,-0.170187 0.335897,0 0.595657,0.156751 0.250803,0.152274 0.385162,0.420991 0.138837,0.277675 0.138837,0.622529 0,0.02687 -0.009,0.116444 h -1.85415 q 0.01344,0.268717 0.12988,0.452341 0.111965,0.174666 0.29111,0.273196 0.174667,0.09405 0.367247,0.09405 0.45682,0 0.694187,-0.425469 l 0.32694,0.16123 q -0.147795,0.282153 -0.407555,0.447862 -0.25976,0.165709 -0.627007,0.165709 -0.340376,0 -0.600136,-0.156751 z m 1.271929,-1.330151 q -0.0045,-0.147795 -0.08062,-0.29559 -0.07166,-0.143315 -0.22841,-0.246324 -0.156752,-0.103008 -0.394119,-0.103008 -0.268717,0 -0.470255,0.179145 -0.188102,0.170187 -0.250803,0.465777 z"
         id="path303" />
      <path
         d="m 54.762501,10.972656 h 0.367247 v 0.376205 h 0.02239 q 0.0627,-0.188103 0.264239,-0.317983 0.19706,-0.12988 0.412034,-0.12988 0.156751,0 0.277674,0.04927 v 0.420991 q -0.152273,-0.07614 -0.331418,-0.07614 -0.165709,0 -0.313504,0.09853 -0.138837,0.08957 -0.228409,0.25976 -0.08062,0.147794 -0.08062,0.349333 v 1.307757 h -0.38964 z"
         id="path305" />
      <path
         d="m 56.710702,10.542708 q -0.111965,0 -0.197059,-0.08509 -0.08509,-0.08509 -0.08509,-0.19706 0,-0.116444 0.08509,-0.201538 0.07614,-0.076137 0.197059,-0.076137 0.120923,0 0.19706,0.076137 0.08062,0.08061 0.08062,0.201538 0,0.116444 -0.08062,0.19706 -0.08509,0.08509 -0.19706,0.08509 z m -0.19258,0.429948 h 0.38964 v 2.337841 h -0.38964 z"
         id="path307" />
      <path
         d="M 57.933367,13.225404 Q 57.664649,13.064173 57.516855,12.78202 57.36906,12.499867 57.36906,12.146055 q 0,-0.340375 0.138837,-0.622528 0.143316,-0.291111 0.398598,-0.45682 0.264239,-0.170187 0.595657,-0.170187 0.335896,0 0.595657,0.156751 0.250803,0.152274 0.385161,0.420991 0.138838,0.277675 0.138838,0.622529 0,0.02687 -0.009,0.116444 H 57.7587 q 0.01344,0.268717 0.12988,0.452341 0.111966,0.174666 0.291111,0.273196 0.174666,0.09405 0.367247,0.09405 0.45682,0 0.694187,-0.425469 l 0.326939,0.16123 q -0.147795,0.282153 -0.407555,0.447862 -0.25976,0.165709 -0.627007,0.165709 -0.340375,0 -0.600135,-0.156751 z m 1.271929,-1.330151 q -0.0045,-0.147795 -0.08062,-0.29559 -0.07166,-0.143315 -0.228409,-0.246324 -0.156752,-0.103008 -0.394119,-0.103008 -0.268718,0 -0.470256,0.179145 -0.188102,0.170187 -0.250803,0.465777 z"
         id="path309" />
      <path
         d="m 60.074151,10.972656 h 0.367247 v 0.344854 h 0.02239 q 0.09405,-0.174666 0.304546,-0.295589 0.214974,-0.125401 0.452341,-0.125401 0.420991,0 0.640443,0.246324 0.223931,0.250803 0.223931,0.667315 v 1.500338 h -0.38964 v -1.442116 q 0,-0.322461 -0.156752,-0.470256 -0.152273,-0.147794 -0.425469,-0.147794 -0.188102,0 -0.335897,0.107487 -0.156751,0.116444 -0.232888,0.277674 -0.08062,0.174667 -0.08062,0.35829 v 1.316715 h -0.38964 z"
         id="path311" />
      <path
         d="m 63.092741,13.220925 q -0.264239,-0.16123 -0.42099,-0.443384 -0.152274,-0.277674 -0.152274,-0.635964 0,-0.35829 0.152274,-0.635965 0.16123,-0.29111 0.42099,-0.447862 0.268718,-0.16123 0.609093,-0.16123 0.371726,0 0.640443,0.179145 0.25976,0.174666 0.367247,0.470255 l -0.353811,0.147795 q -0.08957,-0.223932 -0.255282,-0.331419 -0.170187,-0.111965 -0.416512,-0.111965 -0.206016,0 -0.385161,0.111965 -0.179145,0.111966 -0.286632,0.313504 -0.107487,0.201538 -0.107487,0.465777 0,0.25976 0.107487,0.461298 0.107487,0.201538 0.286632,0.313504 0.183623,0.116444 0.385161,0.116444 0.241846,0 0.42547,-0.116444 0.179145,-0.111966 0.268717,-0.32694 l 0.344854,0.147795 q -0.120923,0.286632 -0.380683,0.465777 -0.25976,0.179144 -0.640443,0.179144 -0.340375,0 -0.609093,-0.16123 z"
         id="path313" />
      <path
         d="m 65.564943,13.225404 q -0.268717,-0.161231 -0.416512,-0.443384 -0.147794,-0.282153 -0.147794,-0.635965 0,-0.340375 0.138837,-0.622528 0.143316,-0.291111 0.398597,-0.45682 0.264239,-0.170187 0.595657,-0.170187 0.335897,0 0.595657,0.156751 0.250803,0.152274 0.385162,0.420991 0.138837,0.277675 0.138837,0.622529 0,0.02687 -0.009,0.116444 h -1.85415 q 0.01344,0.268717 0.12988,0.452341 0.111965,0.174666 0.29111,0.273196 0.174667,0.09405 0.367248,0.09405 0.456819,0 0.694186,-0.425469 l 0.32694,0.16123 q -0.147795,0.282153 -0.407555,0.447862 -0.25976,0.165709 -0.627007,0.165709 -0.340376,0 -0.600136,-0.156751 z m 1.271929,-1.330151 q -0.0045,-0.147795 -0.08061,-0.29559 -0.07166,-0.143315 -0.22841,-0.246324 -0.156752,-0.103008 -0.394119,-0.103008 -0.268717,0 -0.470255,0.179145 -0.188102,0.170187 -0.250803,0.465777 z"
         id="path315" />
    </g>
  </g>
</svg>
