<?xml version="1.0" encoding="UTF-8" standalone="no"?>
<!-- Created with Inkscape (http://www.inkscape.org/) -->

<svg
   width="468"
   height="60"
   viewBox="0 0 123.825 15.875"
   version="1.1"
   id="svg5"
   inkscape:version="1.2.1 (9c6d41e410, 2022-07-14)"
   sodipodi:docname="plugin-dark.svg"
   xmlns:inkscape="http://www.inkscape.org/namespaces/inkscape"
   xmlns:sodipodi="http://sodipodi.sourceforge.net/DTD/sodipodi-0.dtd"
   xmlns:xlink="http://www.w3.org/1999/xlink"
   xmlns="http://www.w3.org/2000/svg"
   xmlns:svg="http://www.w3.org/2000/svg">
  <sodipodi:namedview
     id="namedview7"
     pagecolor="#ffffff"
     bordercolor="#000000"
     borderopacity="0.25"
     inkscape:showpageshadow="2"
     inkscape:pageopacity="0.0"
     inkscape:pagecheckerboard="0"
     inkscape:deskcolor="#d1d1d1"
     inkscape:document-units="mm"
     showgrid="false"
     inkscape:zoom="2.9006173"
     inkscape:cx="221.15982"
     inkscape:cy="21.202383"
     inkscape:window-width="1920"
     inkscape:window-height="1001"
     inkscape:window-x="-9"
     inkscape:window-y="-9"
     inkscape:window-maximized="1"
     inkscape:current-layer="layer1" />
  <defs
     id="defs2">
    <linearGradient
       inkscape:collect="always"
       xlink:href="#linearGradient19812"
       id="linearGradient19814"
       x1="10.124437"
       y1="93.222977"
       x2="40.591778"
       y2="93.222977"
       gradientUnits="userSpaceOnUse"
       gradientTransform="matrix(0.32634945,0,0,0.32634985,-0.43110438,-22.441807)" />
    <linearGradient
       inkscape:collect="always"
       id="linearGradient19812">
      <stop
         style="stop-color:#677ce1;stop-opacity:1;"
         offset="0"
         id="stop19808" />
      <stop
         style="stop-color:#9056f1;stop-opacity:1;"
         offset="1"
         id="stop19810" />
    </linearGradient>
  </defs>
  <g
     inkscape:label="Layer 1"
     inkscape:groupmode="layer"
     id="layer1">
    <path
       d="M 12.816,9.9700988 V 11.95871 A 0.99430012,0.99430149 0 0 1 11.821701,12.953 H 9.8330994 V 11.95871 A 0.99430012,0.99430149 0 0 0 8.8388006,10.964404 0.99430012,0.99430149 0 0 0 7.8445,11.95871 V 12.953 H 5.8559003 A 0.99430012,0.99430149 0 0 1 4.8615993,11.95871 V 9.9700988 H 3.8672989 A 0.99430012,0.99430149 0 0 1 2.873,8.9758113 0.99430012,0.99430149 0 0 1 3.8672989,7.9815 H 4.8615993 V 5.9929071 c 0,-0.5468643 0.4474352,-0.9943083 0.994301,-0.9943083 H 7.8445 V 4.0042893 A 0.99430012,0.99430149 0 0 1 8.8388006,3.01 0.99430012,0.99430149 0 0 1 9.8330994,4.0042893 V 4.9985988 H 11.821701 A 0.99430012,0.99430149 0 0 1 12.816,5.9929071 V 7.9815 H 11.821701 A 0.99430012,0.99430149 0 0 0 10.8274,8.9758113 0.99430012,0.99430149 0 0 0 11.821701,9.9700988 Z"
       id="path17411"
       style="fill:url(#linearGradient19814);fill-opacity:1;stroke-width:0.497148" />
    <text
       xml:space="preserve"
       style="font-size:4.58611px;font-family:'Google Sans';-inkscape-font-specification:'Google Sans';fill:#ffffff;stroke:#000000;stroke-width:0;stroke-linecap:square"
       x="15.310311"
       y="6.7039061"
       id="text1058"
       inkscape:transform-center-x="-3.4662162"
       inkscape:transform-center-y="-2.0067568"><tspan
         sodipodi:role="line"
         style="font-size:7.05556px;fill:#ffffff;stroke-width:0"
         x="15.310311"
         y="6.7039061"
         id="tspan1060">Plug-in manager</tspan><tspan
         sodipodi:role="line"
         style="font-size:4.58611px;fill:#ffffff;stroke-width:0"
         x="15.310311"
         y="13.310235"
         id="tspan1114">Enhance your experience</tspan></text>
  </g>
</svg>
