<?xml version="1.0" encoding="UTF-8" standalone="no"?>
<!-- Created with Inkscape (http://www.inkscape.org/) -->

<svg
   width="468"
   height="60"
   viewBox="0 0 123.825 15.875"
   version="1.1"
   id="svg9296"
   inkscape:version="1.2.1 (9c6d41e410, 2022-07-14)"
   sodipodi:docname="plugin-light.svg"
   xmlns:inkscape="http://www.inkscape.org/namespaces/inkscape"
   xmlns:sodipodi="http://sodipodi.sourceforge.net/DTD/sodipodi-0.dtd"
   xmlns:xlink="http://www.w3.org/1999/xlink"
   xmlns="http://www.w3.org/2000/svg"
   xmlns:svg="http://www.w3.org/2000/svg">
  <sodipodi:namedview
     id="namedview9298"
     pagecolor="#ffffff"
     bordercolor="#000000"
     borderopacity="0.25"
     inkscape:showpageshadow="2"
     inkscape:pageopacity="0.0"
     inkscape:pagecheckerboard="0"
     inkscape:deskcolor="#d1d1d1"
     inkscape:document-units="mm"
     showgrid="false"
     inkscape:zoom="2.0510461"
     inkscape:cx="173.81374"
     inkscape:cy="-26.571806"
     inkscape:window-width="1920"
     inkscape:window-height="1001"
     inkscape:window-x="-9"
     inkscape:window-y="-9"
     inkscape:window-maximized="1"
     inkscape:current-layer="layer1" />
  <defs
     id="defs9293">
    <linearGradient
       inkscape:collect="always"
       xlink:href="#linearGradient19812"
       id="linearGradient19814"
       x1="10.124437"
       y1="93.222977"
       x2="40.591778"
       y2="93.222977"
       gradientUnits="userSpaceOnUse"
       gradientTransform="matrix(0.38965506,0,0,0.40877849,-1.7648992,-30.60861)" />
    <linearGradient
       inkscape:collect="always"
       id="linearGradient19812">
      <stop
         style="stop-color:#677ce1;stop-opacity:1;"
         offset="0"
         id="stop19808" />
      <stop
         style="stop-color:#9056f1;stop-opacity:1;"
         offset="1"
         id="stop19810" />
    </linearGradient>
  </defs>
  <g
     inkscape:label="Layer 1"
     inkscape:groupmode="layer"
     id="layer1">
    <path
       d="m 14.051893,9.9898128 v 2.4908912 a 1.1871756,1.2454398 0 0 1 -1.187174,1.245425 H 10.490367 V 12.480704 A 1.1871756,1.2454398 0 0 0 9.3031918,11.235259 1.1871756,1.2454398 0 0 0 8.1160156,12.480704 v 1.245425 H 5.7416654 A 1.1871756,1.2454398 0 0 1 4.5544885,12.480704 V 9.9898128 H 3.3673131 A 1.1871756,1.2454398 0 0 1 2.1801391,8.7443909 1.1871756,1.2454398 0 0 1 3.3673131,7.4989388 H 4.5544885 V 5.0080721 c 0,-0.6849903 0.5342294,-1.2454486 1.1871769,-1.2454486 H 8.1160156 V 2.5171734 A 1.1871756,1.2454398 0 0 1 9.3031918,1.2717492 1.1871756,1.2454398 0 0 1 10.490367,2.5171734 v 1.2454501 h 2.374352 a 1.1871756,1.2454398 0 0 1 1.187174,1.2454486 v 2.4908667 h -1.187174 a 1.1871756,1.2454398 0 0 0 -1.187178,1.2454521 1.1871756,1.2454398 0 0 0 1.187178,1.2454219 z"
       id="path17411"
       style="fill:url(#linearGradient19814);fill-opacity:1;stroke-width:0.607976" />
    <g
       aria-label="Plug-in Manager "
       transform="matrix(0.1060634,0,0,0.1060634,-7.8695093,-33.376825)"
       id="text19064"
       style="font-size:46.6667px;font-family:'Google Sans';-inkscape-font-specification:'Google Sans';white-space:pre;shape-inside:url(#rect19066);fill:#000000;stroke:#000000;stroke-width:0;stroke-linecap:square">
      <path
         d="m 234.24935,333.32389 h 16.06668 q 4,0 7.4,1.8 3.4,1.8 5.4,5.06667 2.06667,3.2 2.06667,7.26667 0,4.06667 -2.06667,7.33333 -2,3.20001 -5.4,5.00001 -3.4,1.8 -7.4,1.8 h -10.46668 v 19.46668 h -5.6 z m 16.20001,22.86668 q 2.66667,0 4.66667,-1.26667 2.06667,-1.26667 3.2,-3.26667 1.13334,-2 1.13334,-4.2 0,-2.2 -1.13334,-4.2 -1.13333,-2.00001 -3.2,-3.26667 -2,-1.26667 -4.66667,-1.26667 h -10.60001 v 17.46668 z"
         style="font-size:66.6667px;fill:#000000"
         id="path31610" />
      <path
         d="m 271.84933,333.32389 h 5.66667 v 47.73336 h -5.66667 z"
         style="font-size:66.6667px;fill:#000000"
         id="path31612" />
      <path
         d="m 298.24937,382.12391 q -6.13333,0 -9.4,-3.6 -3.2,-3.6 -3.2,-10.06667 v -21.40001 h 5.66667 v 20.53334 q 0,4.86667 2.2,7.13334 2.2,2.26667 5.93333,2.26667 2.86667,0 5.06667,-1.53334 2.26667,-1.53333 3.46667,-4 1.26667,-2.46667 1.26667,-5.2 v -19.20001 h 5.66667 v 34.00002 h -5.40001 v -4.93334 h -0.26666 q -1.4,2.53333 -4.46667,4.26667 -3.06667,1.73333 -6.53334,1.73333 z"
         style="font-size:66.6667px;fill:#000000"
         id="path31614" />
      <path
         d="m 337.91617,396.52392 q -6,0 -9.93334,-2.8 -3.86666,-2.8 -5.2,-6.73334 l 5.13334,-2.2 q 1.13333,2.93334 3.73333,4.73334 2.66667,1.86666 6.26667,1.86666 5.26667,0 8.13334,-3.06666 2.93334,-3.06667 2.93334,-8.66668 v -3.8 h -0.26667 q -1.66667,2.6 -4.73334,4.26667 -3,1.6 -6.86667,1.6 -4.4,0 -8.06667,-2.26667 -3.6,-2.26666 -5.73333,-6.33333 -2.13334,-4.06667 -2.13334,-9.26667 0,-5.13334 2.13334,-9.20001 2.13333,-4.13333 5.73333,-6.4 3.66667,-2.26667 8.06667,-2.26667 3.86667,0 6.86667,1.66667 3.06667,1.6 4.73334,4.26667 h 0.26667 v -4.86667 h 5.4 v 32.66668 q 0,8.20001 -4.53334,12.46667 -4.53333,4.33334 -11.93334,4.33334 z m 0,-19.93334 q 3.06667,0 5.53334,-1.53334 2.53333,-1.53333 4,-4.4 1.53334,-2.86667 1.53334,-6.8 0,-4.00001 -1.53334,-6.86667 -1.46667,-2.86667 -4,-4.33334 -2.46667,-1.53333 -5.53334,-1.53333 -3.06667,0 -5.6,1.53333 -2.53333,1.53333 -4.06667,4.4 -1.46667,2.86667 -1.46667,6.80001 0,3.93333 1.46667,6.86667 1.53334,2.86666 4.06667,4.4 2.53333,1.46667 5.6,1.46667 z"
         style="font-size:66.6667px;fill:#000000"
         id="path31616" />
      <path
         d="m 362.71619,358.05723 h 21.13335 v 4.66667 h -21.13335 z"
         style="font-size:66.6667px;fill:#000000"
         id="path31618" />
      <path
         d="m 395.51622,340.79056 q -1.66667,0 -2.86667,-1.2 -1.2,-1.2 -1.2,-2.86667 0,-1.66667 1.2,-2.8 1.2,-1.2 2.86667,-1.2 1.66666,0 2.86667,1.2 1.2,1.13333 1.2,2.8 0,1.66667 -1.2,2.86667 -1.13334,1.2 -2.86667,1.2 z m -2.8,6.26667 h 5.6 v 34.00002 h -5.6 z"
         style="font-size:66.6667px;fill:#000000"
         id="path31620" />
      <path
         d="m 407.24953,347.05723 h 5.40001 v 5 h 0.26666 q 1.4,-2.53333 4.46667,-4.26667 3.06667,-1.8 6.53334,-1.8 6.13333,0 9.33334,3.6 3.26666,3.53334 3.26666,9.66667 v 21.80002 h -5.66667 V 360.1239 q 0,-4.73333 -2.26666,-6.86667 -2.26667,-2.13333 -6.20001,-2.13333 -2.73333,0 -4.93333,1.53333 -2.13334,1.53333 -3.33334,4.06667 -1.2,2.46667 -1.2,5.2 v 19.13335 h -5.66667 z"
         style="font-size:66.6667px;fill:#000000"
         id="path31622" />
      <path
         d="m 461.24964,333.32389 h 8.20001 l 15.2,39.13335 h 0.26667 l 15.20001,-39.13335 h 8.2 v 47.73336 h -5.6 V 350.7239 l 0.26667,-9.06668 h -0.26667 l -15.60001,39.40003 h -4.66667 l -15.60001,-39.40003 h -0.26666 l 0.26666,9.06668 v 30.33335 h -5.6 z"
         style="font-size:66.6667px;fill:#000000"
         id="path31624" />
      <path
         d="m 527.71633,382.12391 q -3.73333,0 -6.66667,-1.46666 -2.93333,-1.46667 -4.53333,-4.00001 -1.6,-2.6 -1.6,-5.86667 0,-5.4 4.06666,-8.4 4.06667,-3.06667 10.26668,-3.06667 3.06667,0 5.66667,0.66667 2.66666,0.66666 4.06667,1.53333 v -2.06667 q 0,-3.8 -2.66667,-6.06667 -2.66667,-2.33333 -6.73334,-2.33333 -2.86667,0 -5.26667,1.26667 -2.4,1.2 -3.8,3.4 l -4.26667,-3.2 q 2,-3.06667 5.46667,-4.80001 3.53333,-1.73333 7.8,-1.73333 6.93334,0 10.86668,3.66667 4,3.6 4,9.86667 v 21.53335 h -5.4 v -4.86667 h -0.26667 q -1.46667,2.46666 -4.4,4.2 -2.93334,1.73333 -6.60001,1.73333 z m 0.53334,-5 q 2.86666,0 5.33333,-1.46667 2.46667,-1.46666 3.93334,-3.93333 1.46667,-2.46667 1.46667,-5.40001 -1.60001,-1.06666 -3.93334,-1.73333 -2.33333,-0.66667 -4.93334,-0.66667 -4.66666,0 -7.06667,1.93334 -2.33333,1.93333 -2.33333,5 0,2.8 2.13333,4.53334 2.13334,1.73333 5.40001,1.73333 z"
         style="font-size:66.6667px;fill:#000000"
         id="path31626" />
      <path
         d="m 552.24968,347.05723 h 5.40001 v 5 h 0.26666 q 1.40001,-2.53333 4.46667,-4.26667 3.06667,-1.8 6.53334,-1.8 6.13334,0 9.33334,3.6 3.26667,3.53334 3.26667,9.66667 v 21.80002 H 575.8497 V 360.1239 q 0,-4.73333 -2.26667,-6.86667 -2.26667,-2.13333 -6.2,-2.13333 -2.73334,0 -4.93334,1.53333 -2.13333,1.53333 -3.33333,4.06667 -1.20001,2.46667 -1.20001,5.2 v 19.13335 h -5.66667 z"
         style="font-size:66.6667px;fill:#000000"
         id="path31628" />
      <path
         d="m 600.18316,382.12391 q -3.73334,0 -6.66667,-1.46666 -2.93333,-1.46667 -4.53334,-4.00001 -1.6,-2.6 -1.6,-5.86667 0,-5.4 4.06667,-8.4 4.06667,-3.06667 10.26667,-3.06667 3.06667,0 5.66667,0.66667 2.66667,0.66666 4.06667,1.53333 v -2.06667 q 0,-3.8 -2.66667,-6.06667 -2.66666,-2.33333 -6.73333,-2.33333 -2.86667,0 -5.26667,1.26667 -2.4,1.2 -3.8,3.4 l -4.26667,-3.2 q 2,-3.06667 5.46667,-4.80001 3.53333,-1.73333 7.8,-1.73333 6.93334,0 10.86667,3.66667 4.00001,3.6 4.00001,9.86667 v 21.53335 h -5.40001 v -4.86667 h -0.26666 q -1.46667,2.46666 -4.40001,4.2 -2.93333,1.73333 -6.6,1.73333 z m 0.53333,-5 q 2.86667,0 5.33334,-1.46667 2.46667,-1.46666 3.93334,-3.93333 1.46666,-2.46667 1.46666,-5.40001 -1.6,-1.06666 -3.93333,-1.73333 -2.33334,-0.66667 -4.93334,-0.66667 -4.66667,0 -7.06667,1.93334 -2.33333,1.93333 -2.33333,5 0,2.8 2.13333,4.53334 2.13334,1.73333 5.4,1.73333 z"
         style="font-size:66.6667px;fill:#000000"
         id="path31630" />
      <path
         d="m 639.31657,396.52392 q -6,0 -9.93334,-2.8 -3.86667,-2.8 -5.2,-6.73334 l 5.13334,-2.2 q 1.13333,2.93334 3.73333,4.73334 2.66667,1.86666 6.26667,1.86666 5.26667,0 8.13334,-3.06666 2.93333,-3.06667 2.93333,-8.66668 v -3.8 h -0.26666 q -1.66667,2.6 -4.73334,4.26667 -3,1.6 -6.86667,1.6 -4.4,0 -8.06667,-2.26667 -3.6,-2.26666 -5.73334,-6.33333 -2.13333,-4.06667 -2.13333,-9.26667 0,-5.13334 2.13333,-9.20001 2.13334,-4.13333 5.73334,-6.4 3.66667,-2.26667 8.06667,-2.26667 3.86667,0 6.86667,1.66667 3.06667,1.6 4.73334,4.26667 h 0.26666 v -4.86667 h 5.40001 v 32.66668 q 0,8.20001 -4.53334,12.46667 -4.53333,4.33334 -11.93334,4.33334 z m 0,-19.93334 q 3.06667,0 5.53334,-1.53334 2.53333,-1.53333 4,-4.4 1.53333,-2.86667 1.53333,-6.8 0,-4.00001 -1.53333,-6.86667 -1.46667,-2.86667 -4,-4.33334 -2.46667,-1.53333 -5.53334,-1.53333 -3.06667,0 -5.6,1.53333 -2.53334,1.53333 -4.06667,4.4 -1.46667,2.86667 -1.46667,6.80001 0,3.93333 1.46667,6.86667 1.53333,2.86666 4.06667,4.4 2.53333,1.46667 5.6,1.46667 z"
         style="font-size:66.6667px;fill:#000000"
         id="path31632" />
      <path
         d="m 678.98334,382.12391 q -4.86667,0 -8.73334,-2.33333 -3.86667,-2.33334 -6.06667,-6.40001 -2.13333,-4.13333 -2.13333,-9.26667 0,-4.93333 2,-9.06667 2.06666,-4.13333 5.8,-6.6 3.73333,-2.46667 8.66667,-2.46667 5,0 8.66667,2.26667 3.66667,2.2 5.6,6.13333 2.00001,3.93334 2.00001,9.00001 0,1 -0.2,1.73333 h -26.86669 q 0.2,3.86667 1.86667,6.53334 1.66667,2.66667 4.2,4 2.60001,1.33334 5.40001,1.33334 6.53333,0 10.06667,-6.13334 l 4.8,2.33333 q -2.2,4.13334 -6,6.53334 -3.73334,2.4 -9.06667,2.4 z m 9.8,-21.66668 q -0.13333,-2.13333 -1.2,-4.26666 -1.06667,-2.13334 -3.4,-3.60001 -2.26667,-1.46666 -5.73334,-1.46666 -4,0 -6.8,2.6 -2.73333,2.53333 -3.6,6.73333 z"
         style="font-size:66.6667px;fill:#000000"
         id="path31634" />
      <path
         d="m 701.38332,347.05723 h 5.4 v 5.46667 h 0.26667 q 1,-2.8 3.86667,-4.60001 2.86667,-1.86666 6,-1.86666 2.33334,0 4.00001,0.66666 v 6.13334 q -2.13334,-1.06667 -4.80001,-1.06667 -2.46667,0 -4.53333,1.4 -2.06667,1.4 -3.33334,3.80001 -1.2,2.33333 -1.2,5.06667 v 19.00001 h -5.66667 z"
         style="font-size:66.6667px;fill:#000000"
         id="path31636" />
    </g>
    <g
       aria-label="SponsorBlock, RYD, Clickbait Blocker and more"
       id="text31457"
       style="font-size:10.5833px;font-family:'Google Sans';-inkscape-font-specification:'Google Sans';fill:#000000;stroke:#000000;stroke-width:0;stroke-linecap:square"
       transform="matrix(0.40086955,0,0,0.40086955,-4.2129295,-38.203512)">
      <path
         d="m 55.138998,128.96662 q -0.888997,0 -1.629828,-0.53975 -0.740831,-0.53975 -1.015997,-1.51341 l 0.857248,-0.34925 q 0.179916,0.67733 0.666748,1.11125 0.486831,0.43391 1.142996,0.43391 0.656165,0 1.111246,-0.34925 0.455082,-0.35983 0.455082,-0.97366 0,-0.52916 -0.391582,-0.86783 -0.380999,-0.34925 -1.259412,-0.64558 l -0.476249,-0.16933 q -0.804331,-0.28575 -1.312329,-0.75142 -0.507998,-0.46566 -0.507998,-1.29116 0,-0.53975 0.296332,-0.99483 0.296332,-0.46567 0.825497,-0.74083 0.529165,-0.27517 1.18533,-0.27517 0.656164,0 1.142996,0.24342 0.486832,0.24341 0.772581,0.59266 0.296332,0.34925 0.412749,0.68792 l -0.846664,0.35983 q -0.105833,-0.39158 -0.486832,-0.70908 -0.370415,-0.3175 -0.984247,-0.3175 -0.582081,0 -0.99483,0.32808 -0.412749,0.32808 -0.412749,0.8255 0,0.4445 0.349249,0.73025 0.349249,0.27516 1.05833,0.51858 l 0.497415,0.16933 q 0.96308,0.34925 1.502829,0.87841 0.539748,0.51859 0.539748,1.41817 0,0.73024 -0.380999,1.22766 -0.370415,0.49741 -0.941913,0.73025 -0.571499,0.23283 -1.174747,0.23283 z"
         id="path31492"
         style="fill:#000000" />
      <path
         d="m 58.737329,123.3998 h 0.857247 v 0.80433 h 0.04233 q 0.243416,-0.41274 0.730248,-0.68791 0.497415,-0.28575 1.111246,-0.28575 0.719665,0 1.31233,0.37042 0.592664,0.37041 0.93133,1.02658 0.338665,0.65616 0.338665,1.47108 0,0.82549 -0.338665,1.48166 -0.338666,0.64558 -0.93133,1.01599 -0.592665,0.37042 -1.31233,0.37042 -0.613831,0 -1.111246,-0.27517 -0.486832,-0.28575 -0.730248,-0.68791 h -0.04233 l 0.04233,0.74083 v 2.33891 h -0.89958 z m 2.635241,4.75191 q 0.465666,0 0.878414,-0.254 0.412749,-0.254 0.656165,-0.71967 0.253999,-0.47625 0.253999,-1.07949 0,-0.60325 -0.253999,-1.06892 -0.243416,-0.47625 -0.656165,-0.73025 -0.412748,-0.25399 -0.878414,-0.25399 -0.465665,0 -0.878413,0.25399 -0.412749,0.254 -0.656165,0.71967 -0.243416,0.46566 -0.243416,1.0795 0,0.61383 0.243416,1.07949 0.243416,0.46567 0.656165,0.71967 0.412748,0.254 0.878413,0.254 z"
         id="path31494"
         style="fill:#000000" />
      <path
         d="m 67.595546,128.96662 q -0.793747,0 -1.428745,-0.381 -0.634998,-0.381 -0.99483,-1.03716 -0.349249,-0.65617 -0.349249,-1.44991 0,-0.79375 0.349249,-1.44992 0.359832,-0.65616 0.99483,-1.03716 0.634998,-0.381 1.428745,-0.381 0.793748,0 1.428746,0.381 0.634998,0.381 0.984246,1.03716 0.359833,0.65617 0.359833,1.44992 0,0.79374 -0.359833,1.44991 -0.349248,0.65616 -0.984246,1.03716 -0.634998,0.381 -1.428746,0.381 z m 0,-0.81491 q 0.497415,0 0.920747,-0.24342 0.433916,-0.254 0.687915,-0.71966 0.264582,-0.46567 0.264582,-1.09008 0,-0.62442 -0.264582,-1.09008 -0.253999,-0.46567 -0.687915,-0.70909 -0.423332,-0.25399 -0.920747,-0.25399 -0.497415,0 -0.93133,0.25399 -0.433915,0.24342 -0.698498,0.70909 -0.253999,0.46566 -0.253999,1.09008 0,0.62441 0.253999,1.09008 0.264583,0.46566 0.698498,0.71966 0.433915,0.24342 0.93133,0.24342 z"
         id="path31496"
         style="fill:#000000" />
      <path
         d="m 71.310289,123.3998 h 0.857247 v 0.79375 h 0.04233 q 0.222249,-0.40216 0.709081,-0.67733 0.486832,-0.28575 1.037163,-0.28575 0.973664,0 1.481662,0.5715 0.518582,0.56091 0.518582,1.53458 v 3.46074 h -0.899581 v -3.32316 q 0,-0.75141 -0.359832,-1.09008 -0.359832,-0.33866 -0.984247,-0.33866 -0.433915,0 -0.783164,0.24341 -0.338666,0.24342 -0.529165,0.64558 -0.190499,0.39158 -0.190499,0.8255 v 3.03741 h -0.899581 z"
         id="path31498"
         style="fill:#000000" />
      <path
         d="m 79.078449,128.96662 q -0.86783,0 -1.449912,-0.40217 -0.582081,-0.41274 -0.825497,-1.04774 l 0.804331,-0.35983 q 0.201082,0.48683 0.592664,0.75141 0.402166,0.26458 0.878414,0.26458 0.507999,0 0.867831,-0.20108 0.359832,-0.21167 0.359832,-0.59267 0,-0.33866 -0.285749,-0.53974 -0.285749,-0.21167 -0.899581,-0.35984 l -0.656164,-0.16933 q -0.645581,-0.15875 -1.05833,-0.53975 -0.412749,-0.381 -0.412749,-0.98424 0,-0.46567 0.275166,-0.81492 0.285749,-0.35983 0.751414,-0.55033 0.465665,-0.1905 1.005414,-0.1905 0.709081,0 1.259412,0.30692 0.560915,0.30691 0.793748,0.85724 l -0.783164,0.35984 q -0.359833,-0.71967 -1.28058,-0.71967 -0.444498,0 -0.783164,0.21167 -0.328082,0.20108 -0.328082,0.51858 0,0.29633 0.232833,0.48683 0.232832,0.17992 0.698497,0.29633 l 0.783164,0.20109 q 0.793748,0.20108 1.195913,0.60324 0.402166,0.39159 0.402166,0.96309 0,0.49741 -0.285749,0.87841 -0.285749,0.37041 -0.772581,0.5715 -0.486832,0.20108 -1.079497,0.20108 z"
         id="path31500"
         style="fill:#000000" />
      <path
         d="m 84.740501,128.96662 q -0.793748,0 -1.428746,-0.381 -0.634998,-0.381 -0.99483,-1.03716 -0.349249,-0.65617 -0.349249,-1.44991 0,-0.79375 0.349249,-1.44992 0.359832,-0.65616 0.99483,-1.03716 0.634998,-0.381 1.428746,-0.381 0.793747,0 1.428745,0.381 0.634998,0.381 0.984247,1.03716 0.359832,0.65617 0.359832,1.44992 0,0.79374 -0.359832,1.44991 -0.349249,0.65616 -0.984247,1.03716 -0.634998,0.381 -1.428745,0.381 z m 0,-0.81491 q 0.497415,0 0.920747,-0.24342 0.433915,-0.254 0.687914,-0.71966 0.264583,-0.46567 0.264583,-1.09008 0,-0.62442 -0.264583,-1.09008 -0.253999,-0.46567 -0.687914,-0.70909 -0.423332,-0.25399 -0.920747,-0.25399 -0.497415,0 -0.931331,0.25399 -0.433915,0.24342 -0.698497,0.70909 -0.253999,0.46566 -0.253999,1.09008 0,0.62441 0.253999,1.09008 0.264582,0.46566 0.698497,0.71966 0.433916,0.24342 0.931331,0.24342 z"
         id="path31502"
         style="fill:#000000" />
      <path
         d="m 88.455246,123.3998 h 0.857247 v 0.86783 h 0.04233 q 0.15875,-0.44449 0.613832,-0.73024 0.455082,-0.29634 0.952497,-0.29634 0.370415,0 0.634998,0.10584 v 0.97366 q -0.338666,-0.16933 -0.761998,-0.16933 -0.391582,0 -0.719664,0.22225 -0.328083,0.22225 -0.529165,0.60325 -0.1905,0.37041 -0.1905,0.80433 v 3.01624 h -0.89958 z"
         id="path31504"
         style="fill:#000000" />
      <path
         d="m 92.603897,121.21964 h 2.719908 q 0.571498,0 1.068913,0.26459 0.507998,0.26458 0.804331,0.73024 0.296332,0.46567 0.296332,1.04775 0,0.55033 -0.285749,0.96308 -0.275166,0.41275 -0.751414,0.635 v 0.0423 q 0.571498,0.1905 0.93133,0.65617 0.359832,0.46566 0.359832,1.09008 0,0.61383 -0.317499,1.11124 -0.306915,0.48684 -0.83608,0.762 -0.518582,0.27517 -1.12183,0.27517 h -2.868074 z m 2.719908,3.28083 q 0.380998,0 0.666748,-0.17992 0.296332,-0.17991 0.455081,-0.45508 0.15875,-0.28575 0.15875,-0.58208 0,-0.28575 -0.15875,-0.56092 -0.148166,-0.28575 -0.433915,-0.46566 -0.275166,-0.17992 -0.645581,-0.17992 h -1.873244 v 2.42358 z m 0.201082,3.43957 q 0.380999,0 0.677332,-0.1905 0.306915,-0.1905 0.465665,-0.48683 0.169332,-0.30692 0.169332,-0.62442 0,-0.3175 -0.169332,-0.61383 -0.169333,-0.30691 -0.476249,-0.48683 -0.306915,-0.1905 -0.709081,-0.1905 h -1.98966 v 2.59291 z"
         id="path31506"
         style="fill:#000000" />
      <path
         d="m 98.837471,121.21964 h 0.89958 v 7.57765 h -0.89958 z"
         id="path31508"
         style="fill:#000000" />
      <path
         d="m 103.50472,128.96662 q -0.79375,0 -1.42875,-0.381 -0.635,-0.381 -0.99483,-1.03716 -0.34925,-0.65617 -0.34925,-1.44991 0,-0.79375 0.34925,-1.44992 0.35983,-0.65616 0.99483,-1.03716 0.635,-0.381 1.42875,-0.381 0.79375,0 1.42874,0.381 0.635,0.381 0.98425,1.03716 0.35983,0.65617 0.35983,1.44992 0,0.79374 -0.35983,1.44991 -0.34925,0.65616 -0.98425,1.03716 -0.63499,0.381 -1.42874,0.381 z m 0,-0.81491 q 0.49741,0 0.92075,-0.24342 0.43391,-0.254 0.68791,-0.71966 0.26458,-0.46567 0.26458,-1.09008 0,-0.62442 -0.26458,-1.09008 -0.254,-0.46567 -0.68791,-0.70909 -0.42334,-0.25399 -0.92075,-0.25399 -0.49742,0 -0.93133,0.25399 -0.43392,0.24342 -0.6985,0.70909 -0.254,0.46566 -0.254,1.09008 0,0.62441 0.254,1.09008 0.26458,0.46566 0.6985,0.71966 0.43391,0.24342 0.93133,0.24342 z"
         id="path31510"
         style="fill:#000000" />
      <path
         d="m 109.77004,128.96662 q -0.78316,0 -1.40758,-0.37042 -0.62441,-0.38099 -0.97366,-1.02658 -0.34925,-0.65616 -0.34925,-1.47107 0,-0.81492 0.34925,-1.47108 0.34925,-0.65617 0.97366,-1.02658 0.62442,-0.37042 1.40758,-0.37042 0.87841,0 1.47108,0.41275 0.60325,0.40217 0.85725,1.0795 l -0.81492,0.33866 q -0.20108,-0.49741 -0.60325,-0.75141 -0.39158,-0.26458 -0.95249,-0.26458 -0.47625,0 -0.889,0.26458 -0.41275,0.254 -0.66675,0.71966 -0.24341,0.46567 -0.24341,1.06892 0,0.60324 0.24341,1.06891 0.254,0.46566 0.66675,0.73025 0.41275,0.254 0.889,0.254 0.5715,0 0.98424,-0.26459 0.41275,-0.26458 0.61384,-0.75141 l 0.80433,0.33866 q -0.27517,0.66675 -0.889,1.0795 -0.60325,0.41275 -1.47108,0.41275 z"
         id="path31512"
         style="fill:#000000" />
      <path
         d="m 113.10377,121.21964 h 0.89959 v 4.76249 l 2.53999,-2.58233 h 1.14299 v 0.0423 l -2.11666,2.13782 2.16958,3.17499 v 0.0423 h -1.06891 l -1.73566,-2.59291 -0.93133,0.93133 v 1.66158 h -0.89959 z"
         id="path31514"
         style="fill:#000000" />
      <path
         d="m 118.32133,129.6757 0.56092,-0.87841 q -0.1905,-0.0318 -0.33867,-0.20109 -0.14816,-0.16933 -0.14816,-0.41274 0,-0.27517 0.1905,-0.46567 0.20108,-0.20108 0.48683,-0.20108 0.28575,0 0.47625,0.20108 0.20108,0.1905 0.20108,0.46567 0,0.17991 -0.0741,0.34924 -0.0741,0.15875 -0.22225,0.37042 l -0.6985,1.05833 z"
         id="path31516"
         style="fill:#000000" />
      <path
         d="m 123.63415,121.21964 h 2.56116 q 0.62441,0 1.16416,0.28575 0.53975,0.28575 0.85725,0.80433 0.32808,0.508 0.32808,1.15358 0,0.52917 -0.24342,0.98425 -0.23283,0.45508 -0.65616,0.762 -0.41275,0.30691 -0.92075,0.41275 l -0.0212,0.0318 2.13783,3.1009 v 0.0423 h -1.05833 l -2.06374,-3.09033 h -1.19592 v 3.09033 h -0.88899 z m 2.50824,3.65124 q 0.39158,0 0.73025,-0.17991 0.34925,-0.17992 0.55033,-0.49742 0.21166,-0.32808 0.21166,-0.73025 0,-0.34924 -0.17991,-0.66674 -0.17992,-0.3175 -0.508,-0.51859 -0.3175,-0.20108 -0.74083,-0.20108 h -1.68275 v 2.79399 z"
         id="path31518"
         style="fill:#000000" />
      <path
         d="m 131.49753,125.29421 -2.56115,-4.07457 h 1.04774 l 1.93675,3.17499 h 0.0423 l 1.90499,-3.17499 h 1.04775 l -2.51883,4.07457 v 3.50308 h -0.89958 z"
         id="path31520"
         style="fill:#000000" />
      <path
         d="m 135.92135,121.21964 h 2.28599 q 1.16416,0 2.03199,0.48684 0.86783,0.47624 1.3335,1.33349 0.46567,0.85725 0.46567,1.9685 0,1.11124 -0.46567,1.96849 -0.46567,0.85725 -1.3335,1.34408 -0.86783,0.47625 -2.03199,0.47625 h -2.28599 z m 2.28599,6.7204 q 1.34408,0 2.12724,-0.77258 0.79375,-0.77258 0.79375,-2.15899 0,-1.38642 -0.79375,-2.159 -0.78316,-0.77258 -2.12724,-0.77258 h -1.39699 v 5.86315 z"
         id="path31522"
         style="fill:#000000" />
      <path
         d="m 142.84281,129.6757 0.56092,-0.87841 q -0.1905,-0.0318 -0.33867,-0.20109 -0.14817,-0.16933 -0.14817,-0.41274 0,-0.27517 0.1905,-0.46567 0.20109,-0.20108 0.48683,-0.20108 0.28575,0 0.47625,0.20108 0.20109,0.1905 0.20109,0.46567 0,0.17991 -0.0741,0.34924 -0.0741,0.15875 -0.22225,0.37042 l -0.69849,1.05833 z"
         id="path31524"
         style="fill:#000000" />
      <path
         d="m 151.49994,128.96662 q -1.10066,0 -2.00024,-0.51858 -0.89958,-0.51858 -1.41816,-1.41816 -0.508,-0.91017 -0.508,-2.02141 0,-1.11125 0.508,-2.01083 0.51858,-0.91016 1.41816,-1.42875 0.89958,-0.51858 2.00024,-0.51858 0.84667,0 1.54516,0.32808 0.70909,0.3175 1.22767,0.91017 l -0.64558,0.62441 q -0.43392,-0.51858 -0.9525,-0.762 -0.508,-0.24341 -1.17475,-0.24341 -0.82549,0 -1.51341,0.39158 -0.68791,0.381 -1.10066,1.09008 -0.40217,0.6985 -0.40217,1.61925 0,0.92074 0.40217,1.62982 0.41275,0.6985 1.10066,1.09008 0.68792,0.381 1.51341,0.381 1.37583,0 2.33891,-1.13241 l 0.65617,0.635 q -0.52917,0.62441 -1.30175,0.99483 -0.77258,0.35983 -1.69333,0.35983 z"
         id="path31526"
         style="fill:#000000" />
      <path
         d="M 155.50042,121.21964 H 156.4 v 7.57765 h -0.89958 z"
         id="path31528"
         style="fill:#000000" />
      <path
         d="m 158.26266,122.40497 q -0.26458,0 -0.45508,-0.1905 -0.1905,-0.19049 -0.1905,-0.45508 0,-0.26458 0.1905,-0.4445 0.1905,-0.1905 0.45508,-0.1905 0.26458,0 0.45508,0.1905 0.1905,0.17992 0.1905,0.4445 0,0.26459 -0.1905,0.45508 -0.17991,0.1905 -0.45508,0.1905 z m -0.4445,0.99483 h 0.889 v 5.39749 h -0.889 z"
         id="path31530"
         style="fill:#000000" />
      <path
         d="m 162.51716,128.96662 q -0.78316,0 -1.40758,-0.37042 -0.62441,-0.38099 -0.97366,-1.02658 -0.34925,-0.65616 -0.34925,-1.47107 0,-0.81492 0.34925,-1.47108 0.34925,-0.65617 0.97366,-1.02658 0.62442,-0.37042 1.40758,-0.37042 0.87841,0 1.47108,0.41275 0.60325,0.40217 0.85725,1.0795 l -0.81492,0.33866 q -0.20108,-0.49741 -0.60325,-0.75141 -0.39158,-0.26458 -0.95249,-0.26458 -0.47625,0 -0.889,0.26458 -0.41275,0.254 -0.66675,0.71966 -0.24341,0.46567 -0.24341,1.06892 0,0.60324 0.24341,1.06891 0.254,0.46566 0.66675,0.73025 0.41275,0.254 0.889,0.254 0.5715,0 0.98424,-0.26459 0.41275,-0.26458 0.61384,-0.75141 l 0.80433,0.33866 q -0.27517,0.66675 -0.889,1.0795 -0.60325,0.41275 -1.47108,0.41275 z"
         id="path31532"
         style="fill:#000000" />
      <path
         d="m 165.85089,121.21964 h 0.89958 v 4.76249 l 2.53999,-2.58233 h 1.143 v 0.0423 l -2.11666,2.13782 2.16958,3.17499 v 0.0423 h -1.06892 l -1.73566,-2.59291 -0.93133,0.93133 v 1.66158 h -0.89958 z"
         id="path31534"
         style="fill:#000000" />
      <path
         d="m 173.93652,128.96662 q -0.61383,0 -1.11124,-0.27517 -0.48683,-0.28575 -0.73025,-0.68791 h -0.0423 v 0.79375 h -0.85725 v -7.57765 h 0.89958 v 2.23308 l -0.0423,0.75141 h 0.0423 q 0.24342,-0.41274 0.73025,-0.68791 0.49741,-0.28575 1.11124,-0.28575 0.71967,0 1.31233,0.37042 0.59267,0.37041 0.93133,1.02658 0.33867,0.65616 0.33867,1.47108 0,0.82549 -0.33867,1.48166 -0.33866,0.64558 -0.93133,1.01599 -0.59266,0.37042 -1.31233,0.37042 z m -0.10583,-0.81491 q 0.46567,0 0.87842,-0.254 0.41274,-0.254 0.65616,-0.71967 0.254,-0.47625 0.254,-1.07949 0,-0.60325 -0.254,-1.06892 -0.24342,-0.47625 -0.65616,-0.73025 -0.41275,-0.25399 -0.87842,-0.25399 -0.46566,0 -0.87841,0.25399 -0.41275,0.254 -0.65617,0.71967 -0.24341,0.46566 -0.24341,1.0795 0,0.61383 0.24341,1.07949 0.24342,0.46567 0.65617,0.71967 0.41275,0.254 0.87841,0.254 z"
         id="path31536"
         style="fill:#000000" />
      <path
         d="m 179.29167,128.96662 q -0.59267,0 -1.05833,-0.23283 -0.46567,-0.23284 -0.71967,-0.635 -0.254,-0.41275 -0.254,-0.93133 0,-0.85725 0.64558,-1.3335 0.64559,-0.48683 1.62983,-0.48683 0.48683,0 0.89958,0.10583 0.42334,0.10584 0.64558,0.24342 v -0.32808 q 0,-0.60325 -0.42333,-0.96308 -0.42333,-0.37042 -1.06891,-0.37042 -0.45508,0 -0.83608,0.20108 -0.381,0.1905 -0.60325,0.53975 l -0.67733,-0.508 q 0.3175,-0.48683 0.86783,-0.76199 0.56091,-0.27517 1.23825,-0.27517 1.10066,0 1.72507,0.58208 0.635,0.5715 0.635,1.56633 v 3.41841 h -0.85725 v -0.77258 h -0.0423 q -0.23283,0.39158 -0.6985,0.66674 -0.46566,0.27517 -1.04774,0.27517 z m 0.0847,-0.79375 q 0.45509,0 0.84667,-0.23283 0.39158,-0.23283 0.62441,-0.62441 0.23283,-0.39159 0.23283,-0.85725 -0.25399,-0.16934 -0.62441,-0.27517 -0.37042,-0.10583 -0.78316,-0.10583 -0.74084,0 -1.12183,0.30691 -0.37042,0.30692 -0.37042,0.79375 0,0.4445 0.33867,0.71967 0.33866,0.27516 0.85724,0.27516 z"
         id="path31538"
         style="fill:#000000" />
      <path
         d="m 183.71549,122.40497 q -0.26458,0 -0.45508,-0.1905 -0.1905,-0.19049 -0.1905,-0.45508 0,-0.26458 0.1905,-0.4445 0.1905,-0.1905 0.45508,-0.1905 0.26458,0 0.45508,0.1905 0.1905,0.17992 0.1905,0.4445 0,0.26459 -0.1905,0.45508 -0.17991,0.1905 -0.45508,0.1905 z m -0.4445,0.99483 h 0.889 v 5.39749 h -0.889 z"
         id="path31540"
         style="fill:#000000" />
      <path
         d="m 187.59956,128.88195 q -0.32808,0 -0.61383,-0.10583 -0.27516,-0.10583 -0.46566,-0.28575 -0.21167,-0.20108 -0.3175,-0.46566 -0.10583,-0.26459 -0.10583,-0.64559 v -3.1644 h -0.94192 v -0.81492 h 0.94192 v -1.52399 h 0.89958 v 1.52399 h 1.31233 v 0.81492 h -1.31233 v 2.94216 q 0,0.44449 0.16933,0.65616 0.20108,0.23283 0.58208,0.23283 0.30692,0 0.59267,-0.17991 v 0.87841 q -0.15875,0.0741 -0.32809,0.10583 -0.15875,0.0317 -0.41275,0.0317 z"
         id="path31542"
         style="fill:#000000" />
      <path
         d="m 192.03397,121.21964 h 2.7199 q 0.5715,0 1.06892,0.26459 0.508,0.26458 0.80433,0.73024 0.29633,0.46567 0.29633,1.04775 0,0.55033 -0.28575,0.96308 -0.27516,0.41275 -0.75141,0.635 v 0.0423 q 0.57149,0.1905 0.93133,0.65617 0.35983,0.46566 0.35983,1.09008 0,0.61383 -0.3175,1.11124 -0.30692,0.48684 -0.83608,0.762 -0.51858,0.27517 -1.12183,0.27517 h -2.86807 z m 2.7199,3.28083 q 0.381,0 0.66675,-0.17992 0.29633,-0.17991 0.45508,-0.45508 0.15875,-0.28575 0.15875,-0.58208 0,-0.28575 -0.15875,-0.56092 -0.14816,-0.28575 -0.43391,-0.46566 -0.27517,-0.17992 -0.64558,-0.17992 h -1.87325 v 2.42358 z m 0.20109,3.43957 q 0.381,0 0.67733,-0.1905 0.30691,-0.1905 0.46566,-0.48683 0.16934,-0.30692 0.16934,-0.62442 0,-0.3175 -0.16934,-0.61383 -0.16933,-0.30691 -0.47625,-0.48683 -0.30691,-0.1905 -0.70908,-0.1905 h -1.98966 v 2.59291 z"
         id="path31544"
         style="fill:#000000" />
      <path
         d="m 198.26753,121.21964 h 0.89958 v 7.57765 h -0.89958 z"
         id="path31546"
         style="fill:#000000" />
      <path
         d="m 202.93478,128.96662 q -0.79374,0 -1.42874,-0.381 -0.635,-0.381 -0.99483,-1.03716 -0.34925,-0.65617 -0.34925,-1.44991 0,-0.79375 0.34925,-1.44992 0.35983,-0.65616 0.99483,-1.03716 0.635,-0.381 1.42874,-0.381 0.79375,0 1.42875,0.381 0.635,0.381 0.98425,1.03716 0.35983,0.65617 0.35983,1.44992 0,0.79374 -0.35983,1.44991 -0.34925,0.65616 -0.98425,1.03716 -0.635,0.381 -1.42875,0.381 z m 0,-0.81491 q 0.49742,0 0.92075,-0.24342 0.43392,-0.254 0.68791,-0.71966 0.26459,-0.46567 0.26459,-1.09008 0,-0.62442 -0.26459,-1.09008 -0.25399,-0.46567 -0.68791,-0.70909 -0.42333,-0.25399 -0.92075,-0.25399 -0.49741,0 -0.93133,0.25399 -0.43391,0.24342 -0.69849,0.70909 -0.254,0.46566 -0.254,1.09008 0,0.62441 0.254,1.09008 0.26458,0.46566 0.69849,0.71966 0.43392,0.24342 0.93133,0.24342 z"
         id="path31548"
         style="fill:#000000" />
      <path
         d="m 209.2001,128.96662 q -0.78317,0 -1.40758,-0.37042 -0.62442,-0.38099 -0.97366,-1.02658 -0.34925,-0.65616 -0.34925,-1.47107 0,-0.81492 0.34925,-1.47108 0.34924,-0.65617 0.97366,-1.02658 0.62441,-0.37042 1.40758,-0.37042 0.87841,0 1.47108,0.41275 0.60324,0.40217 0.85724,1.0795 l -0.81491,0.33866 q -0.20108,-0.49741 -0.60325,-0.75141 -0.39158,-0.26458 -0.9525,-0.26458 -0.47624,0 -0.88899,0.26458 -0.41275,0.254 -0.66675,0.71966 -0.24342,0.46567 -0.24342,1.06892 0,0.60324 0.24342,1.06891 0.254,0.46566 0.66675,0.73025 0.41275,0.254 0.88899,0.254 0.5715,0 0.98425,-0.26459 0.41275,-0.26458 0.61383,-0.75141 l 0.80433,0.33866 q -0.27516,0.66675 -0.88899,1.0795 -0.60325,0.41275 -1.47108,0.41275 z"
         id="path31550"
         style="fill:#000000" />
      <path
         d="m 212.53384,121.21964 h 0.89958 v 4.76249 l 2.54,-2.58233 h 1.14299 v 0.0423 l -2.11666,2.13782 2.16958,3.17499 v 0.0423 h -1.06891 l -1.73567,-2.59291 -0.93133,0.93133 v 1.66158 h -0.89958 z"
         id="path31552"
         style="fill:#000000" />
      <path
         d="m 220.12206,128.96662 q -0.77258,0 -1.38641,-0.37042 -0.61383,-0.37041 -0.96308,-1.01599 -0.33867,-0.65617 -0.33867,-1.47108 0,-0.78317 0.3175,-1.43933 0.32808,-0.65616 0.92075,-1.04775 0.59266,-0.39158 1.37583,-0.39158 0.79374,0 1.37582,0.35983 0.58209,0.34925 0.889,0.97367 0.3175,0.62441 0.3175,1.42874 0,0.15875 -0.0318,0.27517 h -4.26507 q 0.0317,0.61383 0.29633,1.03716 0.26459,0.42333 0.66675,0.635 0.41275,0.21167 0.85725,0.21167 1.03716,0 1.59808,-0.97367 l 0.76199,0.37042 q -0.34924,0.65616 -0.95249,1.03716 -0.59267,0.381 -1.43933,0.381 z m 1.55574,-3.43957 q -0.0212,-0.33867 -0.1905,-0.67733 -0.16933,-0.33867 -0.53974,-0.5715 -0.35984,-0.23283 -0.91017,-0.23283 -0.635,0 -1.07949,0.41274 -0.43392,0.40217 -0.5715,1.06892 z"
         id="path31554"
         style="fill:#000000" />
      <path
         d="m 223.67805,123.3998 h 0.85725 v 0.86783 h 0.0423 q 0.15874,-0.44449 0.61383,-0.73024 0.45508,-0.29634 0.95249,-0.29634 0.37042,0 0.635,0.10584 v 0.97366 q -0.33866,-0.16933 -0.762,-0.16933 -0.39158,0 -0.71966,0.22225 -0.32808,0.22225 -0.52917,0.60325 -0.19049,0.37041 -0.19049,0.80433 v 3.01624 h -0.89959 z"
         id="path31556"
         style="fill:#000000" />
      <path
         d="m 231.82719,128.96662 q -0.59267,0 -1.05833,-0.23283 -0.46567,-0.23284 -0.71966,-0.635 -0.254,-0.41275 -0.254,-0.93133 0,-0.85725 0.64558,-1.3335 0.64558,-0.48683 1.62983,-0.48683 0.48683,0 0.89958,0.10583 0.42333,0.10584 0.64558,0.24342 v -0.32808 q 0,-0.60325 -0.42333,-0.96308 -0.42334,-0.37042 -1.06892,-0.37042 -0.45508,0 -0.83608,0.20108 -0.381,0.1905 -0.60325,0.53975 l -0.67733,-0.508 q 0.3175,-0.48683 0.86783,-0.76199 0.56092,-0.27517 1.23825,-0.27517 1.10066,0 1.72508,0.58208 0.63499,0.5715 0.63499,1.56633 v 3.41841 h -0.85724 v -0.77258 h -0.0423 q -0.23283,0.39158 -0.69849,0.66674 -0.46567,0.27517 -1.04775,0.27517 z m 0.0847,-0.79375 q 0.45508,0 0.84666,-0.23283 0.39158,-0.23283 0.62441,-0.62441 0.23284,-0.39159 0.23284,-0.85725 -0.254,-0.16934 -0.62442,-0.27517 -0.37041,-0.10583 -0.78316,-0.10583 -0.74083,0 -1.12183,0.30691 -0.37042,0.30692 -0.37042,0.79375 0,0.4445 0.33867,0.71967 0.33866,0.27516 0.85725,0.27516 z"
         id="path31558"
         style="fill:#000000" />
      <path
         d="m 235.72185,123.3998 h 0.85724 v 0.79375 h 0.0423 q 0.22225,-0.40216 0.70908,-0.67733 0.48683,-0.28575 1.03716,-0.28575 0.97367,0 1.48166,0.5715 0.51859,0.56091 0.51859,1.53458 v 3.46074 h -0.89958 v -3.32316 q 0,-0.75141 -0.35984,-1.09008 -0.35983,-0.33866 -0.98424,-0.33866 -0.43392,0 -0.78317,0.24341 -0.33866,0.24342 -0.52916,0.64558 -0.1905,0.39158 -0.1905,0.8255 v 3.03741 h -0.89958 z"
         id="path31560"
         style="fill:#000000" />
      <path
         d="m 243.94508,128.96662 q -0.71966,0 -1.31233,-0.37042 -0.58208,-0.37041 -0.92075,-1.01599 -0.33866,-0.65617 -0.33866,-1.48166 0,-0.81492 0.33866,-1.47108 0.33867,-0.65617 0.92075,-1.02658 0.59267,-0.37042 1.31233,-0.37042 0.62442,0 1.11125,0.28575 0.48683,0.27517 0.74083,0.68791 h 0.0423 l -0.0423,-0.75141 v -2.23308 h 0.89958 v 7.57765 h -0.85725 v -0.79375 h -0.0423 q -0.254,0.40216 -0.74083,0.68791 -0.48683,0.27517 -1.11125,0.27517 z m 0.10583,-0.81491 q 0.47625,0 0.87842,-0.254 0.41275,-0.254 0.65616,-0.71967 0.254,-0.46566 0.254,-1.07949 0,-0.61384 -0.254,-1.0795 -0.24341,-0.46567 -0.65616,-0.71967 -0.40217,-0.25399 -0.87842,-0.25399 -0.46566,0 -0.87841,0.25399 -0.41275,0.254 -0.66675,0.73025 -0.24341,0.46567 -0.24341,1.06892 0,0.60324 0.24341,1.07949 0.254,0.46567 0.66675,0.71967 0.41275,0.254 0.87841,0.254 z"
         id="path31562"
         style="fill:#000000" />
      <path
         d="m 250.48555,123.3998 h 0.85725 v 0.79375 h 0.0423 q 0.23283,-0.41275 0.6985,-0.68791 0.46566,-0.27517 0.98424,-0.27517 0.59267,0 1.02658,0.28575 0.4445,0.28575 0.635,0.762 0.28575,-0.47625 0.75142,-0.762 0.47625,-0.28575 1.10066,-0.28575 0.93133,0 1.397,0.5715 0.47624,0.56091 0.47624,1.53458 v 3.46074 h -0.88899 v -3.32316 q 0,-0.75141 -0.30692,-1.09008 -0.30691,-0.33866 -0.91016,-0.33866 -0.40217,0 -0.73025,0.23283 -0.32808,0.23283 -0.51858,0.62441 -0.17992,0.39158 -0.17992,0.84667 v 3.04799 h -0.89958 v -3.31258 q 0,-0.76199 -0.30691,-1.10066 -0.30692,-0.33866 -0.89958,-0.33866 -0.40217,0 -0.73025,0.24341 -0.32808,0.23283 -0.51858,0.635 -0.17992,0.39158 -0.17992,0.84666 v 3.02683 h -0.89958 z"
         id="path31564"
         style="fill:#000000" />
      <path
         d="m 262.23302,128.96662 q -0.79375,0 -1.42875,-0.381 -0.635,-0.381 -0.99483,-1.03716 -0.34925,-0.65617 -0.34925,-1.44991 0,-0.79375 0.34925,-1.44992 0.35983,-0.65616 0.99483,-1.03716 0.635,-0.381 1.42875,-0.381 0.79374,0 1.42874,0.381 0.635,0.381 0.98425,1.03716 0.35983,0.65617 0.35983,1.44992 0,0.79374 -0.35983,1.44991 -0.34925,0.65616 -0.98425,1.03716 -0.635,0.381 -1.42874,0.381 z m 0,-0.81491 q 0.49741,0 0.92074,-0.24342 0.43392,-0.254 0.68792,-0.71966 0.26458,-0.46567 0.26458,-1.09008 0,-0.62442 -0.26458,-1.09008 -0.254,-0.46567 -0.68792,-0.70909 -0.42333,-0.25399 -0.92074,-0.25399 -0.49742,0 -0.93133,0.25399 -0.43392,0.24342 -0.6985,0.70909 -0.254,0.46566 -0.254,1.09008 0,0.62441 0.254,1.09008 0.26458,0.46566 0.6985,0.71966 0.43391,0.24342 0.93133,0.24342 z"
         id="path31566"
         style="fill:#000000" />
      <path
         d="m 265.94777,123.3998 h 0.85725 v 0.86783 h 0.0423 q 0.15875,-0.44449 0.61383,-0.73024 0.45508,-0.29634 0.9525,-0.29634 0.37041,0 0.635,0.10584 v 0.97366 q -0.33867,-0.16933 -0.762,-0.16933 -0.39158,0 -0.71967,0.22225 -0.32808,0.22225 -0.52916,0.60325 -0.1905,0.37041 -0.1905,0.80433 v 3.01624 h -0.89958 z"
         id="path31568"
         style="fill:#000000" />
      <path
         d="m 272.00141,128.96662 q -0.77258,0 -1.38641,-0.37042 -0.61384,-0.37041 -0.96308,-1.01599 -0.33867,-0.65617 -0.33867,-1.47108 0,-0.78317 0.3175,-1.43933 0.32808,-0.65616 0.92075,-1.04775 0.59266,-0.39158 1.37582,-0.39158 0.79375,0 1.37583,0.35983 0.58209,0.34925 0.889,0.97367 0.3175,0.62441 0.3175,1.42874 0,0.15875 -0.0318,0.27517 h -4.26507 q 0.0317,0.61383 0.29633,1.03716 0.26459,0.42333 0.66675,0.635 0.41275,0.21167 0.85725,0.21167 1.03716,0 1.59808,-0.97367 l 0.76199,0.37042 q -0.34925,0.65616 -0.95249,1.03716 -0.59267,0.381 -1.43933,0.381 z m 1.55574,-3.43957 q -0.0212,-0.33867 -0.1905,-0.67733 -0.16933,-0.33867 -0.53974,-0.5715 -0.35984,-0.23283 -0.91017,-0.23283 -0.635,0 -1.0795,0.41274 -0.43391,0.40217 -0.57149,1.06892 z"
         id="path31570"
         style="fill:#000000" />
    </g>
  </g>
</svg>
